<svg width="319" height="263" viewBox="0 0 319 263" fill="none" xmlns="http://www.w3.org/2000/svg">
<g opacity="0.4">
<path d="M179.05 161.725C179.05 180.05 164.278 194.897 146.067 194.897C127.854 194.897 113.083 180.05 113.083 161.725C113.083 143.4 127.854 128.552 146.067 128.552C164.278 128.552 179.05 143.4 179.05 161.725Z" stroke="#FFC6BB" stroke-width="1.47807"/>
<path d="M137.125 116.375L137.123 116.375C126.568 118.408 116.01 113.216 111.065 103.648C111.065 103.648 111.065 103.648 111.064 103.647L63.9162 11.847C63.9161 11.8468 63.916 11.8466 63.9159 11.8464C61.3076 6.74112 64.9789 0.739035 70.5889 0.739035H181.248C186.515 0.739035 190.179 6.04102 188.35 10.9961L188.349 10.9968L155.244 100.937L155.243 100.939C152.322 108.922 145.433 114.794 137.125 116.375Z" stroke="#FFC6BB" stroke-width="1.47807"/>
<path d="M108.879 124.046L108.88 124.047C110.376 126.166 110.166 129.025 108.342 130.859L108.333 130.869C106.434 132.847 103.395 133.043 101.306 131.35L101.298 131.344L-10.75 42.955L-10.7543 42.9517C-13.9626 40.4585 -15.7933 36.5647 -15.7933 32.5159V31.7769H-15.8703V14.124C-15.8703 6.76811 -9.9467 0.81716 -2.64192 0.81716H15.2612C19.5769 0.81716 23.5943 2.87572 26.0778 6.40152L108.879 124.046Z" stroke="#FFC6BB" stroke-width="1.47807"/>
<path d="M98.6358 145.376L98.6367 145.376C100.399 146.331 101.491 148.174 101.491 150.236C101.491 153.112 99.3134 155.509 96.4542 155.786C96.4524 155.786 96.4506 155.786 96.4488 155.786L-6.48196 164.011L-6.48565 164.011C-11.5231 164.439 -15.7933 160.446 -15.7933 155.358V97.8549V97.5509L-15.8655 97.478C-15.6584 91.0657 -8.81277 87.0264 -3.07106 90.1239C-3.07077 90.1241 -3.07047 90.1243 -3.07018 90.1244L98.6358 145.376Z" stroke="#FFC6BB" stroke-width="1.47807"/>
<path d="M105.045 176.323C103.071 172.301 98.6756 170.126 94.2753 170.983C94.2747 170.983 94.274 170.983 94.2734 170.983L-8.96819 191.7C-8.96911 191.7 -8.97003 191.701 -8.97095 191.701C-12.7179 192.484 -15.4797 195.829 -15.4797 199.746V289.065C-15.4797 296.405 -6.63174 300.02 -1.54474 294.835L105.045 176.323ZM105.045 176.323V176.399L105.118 176.551C106.91 180.3 106.124 184.78 103.249 187.745C103.248 187.745 103.248 187.745 103.248 187.746L-1.54415 294.834L105.045 176.323Z" stroke="#FFC6BB" stroke-width="1.47807"/>
<path d="M108.995 201.266L108.456 201.978L22.1049 316.208L108.995 201.266ZM108.995 201.266C111.462 198.722 115.296 198.082 118.476 199.779C121.778 201.545 123.342 205.517 122.209 209.149C122.209 209.15 122.209 209.15 122.209 209.15L85.3223 327.026L85.3203 327.033C83.7948 332.074 79.2221 335.432 73.9894 335.432H31.5468C21.7491 335.432 16.1388 324.11 22.1046 316.208L108.995 201.266Z" stroke="#FFC6BB" stroke-width="1.47807"/>
<path d="M178.683 321.062L178.682 321.06L152.215 211.953L178.683 321.062ZM178.683 321.062C180.498 328.436 174.906 335.511 167.44 335.511H126.927C119.751 335.511 114.305 329.024 115.539 321.864L134.406 212.831L134.486 212.751M178.683 321.062L134.486 212.751M134.486 212.751L134.524 212.517M134.486 212.751L134.524 212.517M134.524 212.517C135.236 208.148 139.012 204.989 143.441 204.989C147.57 204.989 151.213 207.855 152.215 211.952L134.524 212.517Z" stroke="#FFC6BB" stroke-width="1.47807"/>
<path d="M215.893 324.179L170.478 211.052L170.514 211.028C168.338 205.776 170.296 199.638 175.091 196.568L175.091 196.568L175.094 196.566C178.141 194.597 181.989 194.159 185.399 195.399L185.401 195.399L305.938 238.702L305.938 238.702C313.202 241.31 318.027 248.246 318.027 256.009V318.091C318.027 328.318 309.716 336.592 299.562 336.442L299.56 336.442L232.655 335.667L232.654 335.667C225.238 335.591 218.636 331.043 215.893 324.18L215.893 324.179Z" stroke="#FFC6BB" stroke-width="1.47807"/>
<path d="M202.599 178.845L202.599 178.845L202.589 178.843C197.834 178.058 194.62 173.483 195.403 168.675C196.048 164.94 198.975 161.939 202.735 161.368L202.735 161.368L202.74 161.367L311.547 143.984L311.548 143.984C314.954 143.436 318.022 146.035 318.022 149.541V192.765C318.022 196.264 314.81 198.939 311.408 198.322L311.407 198.322L202.599 178.845Z" stroke="#FFC6BB" stroke-width="1.47807"/>
<path d="M192.431 140.937L192.45 140.922C190.234 137.371 191.89 132.614 195.859 131.142C195.859 131.142 195.86 131.142 195.861 131.142L305.744 91.1006L305.748 91.0991C311.737 88.8769 318.103 93.392 318.103 99.7961V115.394C318.103 119.923 314.889 123.73 310.456 124.522C310.455 124.522 310.455 124.522 310.455 124.522L199.265 143.998C196.575 144.412 193.901 143.252 192.431 140.937Z" stroke="#FFC6BB" stroke-width="1.47807"/>
<path d="M224.083 13.2113L173.73 110.84C173.73 110.841 173.729 110.842 173.729 110.843C171.879 114.495 172.81 118.917 175.994 121.408C178.486 123.341 181.745 123.762 184.573 122.482L184.574 122.481L304.647 68.3933L224.083 13.2113ZM224.083 13.2113L224.119 13.2199C228.005 5.62982 235.777 0.895285 244.298 0.895285H295.383C307.935 0.895285 318.104 11.1144 318.104 23.7473V47.4935C318.104 56.5152 312.794 64.7099 304.648 68.3929L224.083 13.2113Z" stroke="#FFC6BB" stroke-width="1.47807"/>
</g>
</svg>
