<svg width="19" height="20" viewBox="0 0 19 20" fill="none" xmlns="http://www.w3.org/2000/svg">
<path fill-rule="evenodd" clip-rule="evenodd" d="M0.775418 16.3031C2.74838 13.692 5.85615 12 9.35727 12C12.8584 12 15.9662 13.692 17.9391 16.3031C17.948 16.3149 17.957 16.3268 17.966 16.3386C18.1356 16.563 18.3175 16.8035 18.4475 17.0356C18.6048 17.3165 18.7215 17.6414 18.7142 18.0366C18.7084 18.3542 18.6122 18.6516 18.4953 18.8864C18.3784 19.1212 18.1992 19.3772 17.9493 19.5734C17.6159 19.835 17.253 19.9276 16.9306 19.9662C16.6478 20.0001 16.3126 20.0001 15.9756 20C15.9604 20 15.9452 20 15.93 20H2.78451C2.76932 20 2.75413 20 2.73895 20C2.40195 20.0001 2.06676 20.0001 1.78392 19.9662C1.46153 19.9276 1.09862 19.835 0.765297 19.5734C0.515352 19.3772 0.336125 19.1212 0.219249 18.8864C0.102373 18.6516 0.00612779 18.3542 0.00031842 18.0366C-0.00690858 17.6414 0.1097 17.3165 0.267035 17.0356C0.397021 16.8035 0.578915 16.563 0.748553 16.3386C0.757545 16.3268 0.766504 16.3149 0.775418 16.3031Z" fill="#151515"/>
<path fill-rule="evenodd" clip-rule="evenodd" d="M3.85727 5.5C3.85727 2.46243 6.31971 0 9.35727 0C12.3948 0 14.8573 2.46243 14.8573 5.5C14.8573 8.53757 12.3948 11 9.35727 11C6.31971 11 3.85727 8.53757 3.85727 5.5Z" fill="#151515"/>
</svg>
