<svg width="307" height="229" viewBox="0 0 307 229" fill="none" xmlns="http://www.w3.org/2000/svg">
<g opacity="0.4">
<path d="M197.05 51.7245C197.05 70.05 182.278 84.8974 164.067 84.8974C145.854 84.8974 131.083 70.05 131.083 51.7245C131.083 33.3996 145.854 18.5515 164.067 18.5515C182.278 18.5515 197.05 33.3996 197.05 51.7245Z" stroke="#FFC6BB" stroke-width="1.47807"/>
<path d="M155.125 6.37518L155.123 6.3755C144.568 8.40793 134.01 3.21568 129.065 -6.35159C129.065 -6.35204 129.065 -6.35249 129.064 -6.35293L81.9162 -98.153C81.9161 -98.1532 81.916 -98.1534 81.9159 -98.1536C79.3076 -103.259 82.9789 -109.261 88.5889 -109.261H199.248C204.515 -109.261 208.179 -103.959 206.35 -99.0039L206.349 -99.0032L173.244 -9.06271L173.243 -9.06133C170.322 -1.07795 163.433 4.79442 155.125 6.37518Z" stroke="#FFC6BB" stroke-width="1.47807"/>
<path d="M126.879 14.0458L126.88 14.0465C128.376 16.1664 128.166 19.0251 126.342 20.8593L126.333 20.8687C124.434 22.8471 121.395 23.0434 119.306 21.3497L119.298 21.3436L7.24999 -67.045L7.24574 -67.0483C4.03744 -69.5415 2.20667 -73.4353 2.20667 -77.4841V-78.2231H2.12966V-95.876C2.12966 -103.232 8.0533 -109.183 15.3581 -109.183H33.2612C37.5769 -109.183 41.5943 -107.124 44.0778 -103.598L126.879 14.0458Z" stroke="#FFC6BB" stroke-width="1.47807"/>
<path d="M116.636 35.3758L116.637 35.3763C118.399 36.3307 119.491 38.1739 119.491 40.2356C119.491 43.1122 117.313 45.5089 114.454 45.7858C114.452 45.786 114.451 45.7862 114.449 45.7863L11.518 54.0105L11.5144 54.0108C6.4769 54.4387 2.20667 50.4455 2.20667 45.3578V-12.1451V-12.4491L2.13448 -12.522C2.34163 -18.9343 9.18723 -22.9736 14.9289 -19.8761C14.9292 -19.8759 14.9295 -19.8757 14.9298 -19.8756L116.636 35.3758Z" stroke="#FFC6BB" stroke-width="1.47807"/>
<path d="M123.045 66.3228C121.071 62.3012 116.676 60.1261 112.275 60.9826C112.275 60.9828 112.274 60.9829 112.273 60.983L9.03181 81.7002C9.03089 81.7004 9.02997 81.7006 9.02905 81.7008C5.28215 82.484 2.52029 85.8294 2.52029 89.7462V179.065C2.52029 186.405 11.3683 190.02 16.4553 184.835L123.045 66.3228ZM123.045 66.3228V66.3993L123.118 66.5505C124.91 70.3001 124.124 74.7796 121.249 77.7445C121.248 77.7449 121.248 77.7453 121.248 77.7457L16.4559 184.834L123.045 66.3228Z" stroke="#FFC6BB" stroke-width="1.47807"/>
<path d="M126.995 91.2657L126.456 91.9784L40.1049 206.208L126.995 91.2657ZM126.995 91.2657C129.462 88.7216 133.296 88.0822 136.476 89.7788C139.778 91.5454 141.342 95.5169 140.209 99.1494C140.209 99.1495 140.209 99.1497 140.209 99.1498L103.322 217.026L103.32 217.033C101.795 222.074 97.2221 225.432 91.9894 225.432H49.5468C39.7491 225.432 34.1388 214.11 40.1046 206.208L126.995 91.2657Z" stroke="#FFC6BB" stroke-width="1.47807"/>
<path d="M196.683 211.062L196.682 211.06L170.215 101.953L196.683 211.062ZM196.683 211.062C198.498 218.436 192.906 225.511 185.44 225.511H144.927C137.751 225.511 132.305 219.024 133.539 211.864L152.406 102.831L152.486 102.751M196.683 211.062L152.486 102.751M152.486 102.751L152.524 102.517M152.486 102.751L152.524 102.517M152.524 102.517C153.236 98.1479 157.012 94.989 161.441 94.989C165.57 94.989 169.213 97.8552 170.215 101.952L152.524 102.517Z" stroke="#FFC6BB" stroke-width="1.47807"/>
<path d="M233.893 214.179L188.478 101.052L188.514 101.028C186.338 95.7759 188.296 89.6376 193.091 86.5679L193.091 86.5679L193.094 86.5662C196.141 84.5965 199.989 84.1589 203.399 85.3985L203.401 85.3995L323.938 128.702L323.938 128.702C331.202 131.31 336.027 138.246 336.027 146.009V208.091C336.027 218.318 327.716 226.592 317.562 226.442L317.56 226.442L250.655 225.667L250.654 225.667C243.238 225.591 236.636 221.043 233.893 214.18L233.893 214.179Z" stroke="#FFC6BB" stroke-width="1.47807"/>
<path d="M220.599 68.8446L220.599 68.8445L220.589 68.8429C215.834 68.058 212.62 63.4834 213.403 58.6753C214.048 54.9399 216.975 51.939 220.735 51.3678L220.735 51.3678L220.74 51.3669L329.547 33.9844L329.548 33.9843C332.954 33.4362 336.022 36.0353 336.022 39.5408V82.7648C336.022 86.2644 332.81 88.9387 329.408 88.3225L329.407 88.3222L220.599 68.8446Z" stroke="#FFC6BB" stroke-width="1.47807"/>
<path d="M210.431 30.9368L210.45 30.9217C208.234 27.3706 209.89 22.6139 213.859 21.1424C213.859 21.1422 213.86 21.142 213.861 21.1418L323.744 -18.8994L323.748 -18.9009C329.737 -21.1231 336.103 -16.608 336.103 -10.2039V5.39408C336.103 9.92266 332.889 13.7302 328.456 14.5217C328.455 14.5218 328.455 14.5219 328.455 14.5219L217.265 33.9983C214.575 34.4117 211.901 33.2519 210.431 30.9368Z" stroke="#FFC6BB" stroke-width="1.47807"/>
<path d="M242.083 -96.7887L191.73 0.840233C191.73 0.840996 191.729 0.841766 191.729 0.842529C189.879 4.49465 190.81 8.91669 193.994 11.4078C196.486 13.3407 199.745 13.7618 202.573 12.4819L202.574 12.4813L322.647 -41.6067L242.083 -96.7887ZM242.083 -96.7887L242.119 -96.7801C246.005 -104.37 253.777 -109.105 262.298 -109.105H313.383C325.935 -109.105 336.104 -98.8856 336.104 -86.2527V-62.5065C336.104 -53.4848 330.794 -45.2901 322.648 -41.6071L242.083 -96.7887Z" stroke="#FFC6BB" stroke-width="1.47807"/>
</g>
</svg>
