<svg width="40" height="40" viewBox="0 0 40 40" fill="none" xmlns="http://www.w3.org/2000/svg">
<path d="M3.6875 16.5625H5.0625L4.375 14.8125L3.6875 16.5625Z" fill="#2FABF7"/>
<path d="M20.75 15.0625C20.625 15 20.4375 15 20.25 15H19V16H20.25C20.4375 16 20.625 16 20.75 15.9375C20.875 15.875 20.9375 15.6875 20.9375 15.5C21 15.25 20.875 15.125 20.75 15.0625Z" fill="#228FE0"/>
<path d="M34.125 13.1875V13.9375L33.75 13.1875H30.8125V13.9375L30.4375 13.1875H26.4375C25.75 13.1875 25.1875 13.3125 24.6875 13.5625V13.1875H21.875V13.5625C21.5625 13.3125 21.1875 13.1875 20.6875 13.1875H10.625L9.9375 14.75L9.25 13.1875H6.0625V13.9375L5.6875 13.1875H3L1.75 16.125L0.3125 19.375H3.5L3.875 18.375H4.75L5.125 19.375H8.75V18.625L9.0625 19.375H10.875L11.1875 18.625V19.375H19.875V17.75H20C20.125 17.75 20.125 17.75 20.125 17.9375V19.3125H24.625V18.9375C25 19.125 25.5625 19.3125 26.3125 19.3125H28.1875L28.5625 18.3125H29.4375L29.8125 19.3125H33.4375V18.375L34 19.3125H36.9375V13.1875H34.125ZM13 18.4375H11.9375V15L10.4375 18.4375H9.5L8 15V18.4375H5.875L5.4375 17.5H3.3125L2.9375 18.5H1.75L3.625 14.0625H5.1875L6.9375 18.25V14.0625H8.625L10 17.0625L11.25 14.0625H13V18.4375ZM17.25 15H14.8125V15.8125H17.1875V16.6875H14.8125V17.5625H17.25V18.5H13.75V14.0625H17.25V15ZM21.9375 16.8125C22.0625 17.0625 22.125 17.25 22.125 17.625V18.5H21.0625V17.9375C21.0625 17.6875 21.0625 17.3125 20.875 17.0625C20.6875 16.875 20.5 16.875 20.125 16.875H19V18.5H17.9375V14.0625H20.3125C20.875 14.0625 21.25 14.0625 21.5625 14.25C21.875 14.4375 22.0625 14.75 22.0625 15.25C22.0625 15.9375 21.625 16.3125 21.3125 16.4375C21.625 16.5 21.8125 16.6875 21.9375 16.8125ZM23.8125 18.4375H22.75V14H23.8125V18.4375ZM36.125 18.4375H34.625L32.625 15.125V18.4375H30.5L30.125 17.5H27.9375L27.5625 18.5H26.375C25.875 18.5 25.25 18.375 24.875 18C24.5 17.625 24.3125 17.125 24.3125 16.3125C24.3125 15.6875 24.4375 15.0625 24.875 14.5625C25.1875 14.1875 25.75 14.0625 26.4375 14.0625H27.4375V15H26.4375C26.0625 15 25.875 15.0625 25.625 15.25C25.4375 15.4375 25.3125 15.8125 25.3125 16.25C25.3125 16.75 25.375 17.0625 25.625 17.3125C25.8125 17.5 26.0625 17.5625 26.375 17.5625H26.8125L28.25 14.125H29.8125L31.5625 18.3125V14.125H33.125L34.9375 17.1875V14.125H36V18.4375H36.125Z" fill="#0571C1"/>
<path d="M28.3125 16.5625H29.75L29.0625 14.8125L28.3125 16.5625ZM17.6875 25.5625V22L16.0625 23.75L17.6875 25.5625Z" fill="#228FE0"/>
<path d="M11 22.4375V23.25H13.3125V24.125H11V25.0625H13.5625L14.75 23.75L13.625 22.4375H11Z" fill="#2FABF7"/>
<path d="M20.0625 22.4375H18.75V23.5625H20.125C20.5 23.5625 20.75 23.375 20.75 23C20.6875 22.625 20.4375 22.4375 20.0625 22.4375Z" fill="#228FE0"/>
<path d="M39.375 23.5V20.6875H36.75C36.1875 20.6875 35.75 20.8125 35.4375 21.0625V20.6875H32.5625C32.125 20.6875 31.5625 20.8125 31.3125 21.0625V20.6875H26.25V21.0625C25.875 20.75 25.1875 20.6875 24.875 20.6875H21.5V21.0625C21.1875 20.75 20.4375 20.6875 20.0625 20.6875H16.3125L15.4375 21.625L14.625 20.6875H9V26.8125H14.5L15.375 25.875L16.1875 26.8125H19.5625V25.375H20C20.4375 25.375 21 25.375 21.4375 25.1875V26.875H24.25V25.25H24.375C24.5625 25.25 24.5625 25.25 24.5625 25.4375V26.875H33.0625C33.625 26.875 34.1875 26.75 34.5 26.5V26.875H37.1875C37.75 26.875 38.3125 26.8125 38.6875 26.5625C39.3125 26.1875 39.6875 25.5 39.6875 24.6875C39.6875 24.25 39.5625 23.8125 39.375 23.5ZM20 24.5H18.75V26H16.75L15.5 24.5625L14.1875 26H10.0625V21.5625H14.25L15.5 23L16.8125 21.5625H20.125C20.9375 21.5625 21.875 21.8125 21.875 23C21.8125 24.25 20.9375 24.5 20 24.5ZM26.25 24.25C26.375 24.4375 26.4375 24.6875 26.4375 25.0625V25.9375H25.375V25.375C25.375 25.125 25.375 24.6875 25.1875 24.5C25.0625 24.3125 24.8125 24.3125 24.4375 24.3125H23.3125V25.9375H22.25V21.5H24.625C25.125 21.5 25.5625 21.5 25.875 21.6875C26.1875 21.875 26.4375 22.1875 26.4375 22.6875C26.4375 23.375 26 23.75 25.6875 23.875C26 24 26.1875 24.125 26.25 24.25ZM30.5625 22.4375H28.125V23.25H30.5V24.125H28.125V25H30.5625V25.9375H27.0625V21.5H30.5625V22.4375ZM33.1875 25.9375H31.1875V25H33.1875C33.375 25 33.5 25 33.625 24.875C33.6875 24.8125 33.75 24.6875 33.75 24.5625C33.75 24.4375 33.6875 24.3125 33.625 24.25C33.5625 24.1875 33.4375 24.125 33.25 24.125C32.25 24.0625 31.0625 24.125 31.0625 22.75C31.0625 22.125 31.4375 21.4375 32.5625 21.4375H34.625V22.5H32.6875C32.5 22.5 32.375 22.5 32.25 22.5625C32.125 22.625 32.125 22.75 32.125 22.875C32.125 23.0625 32.25 23.125 32.375 23.1875C32.5 23.25 32.625 23.25 32.75 23.25H33.3125C33.875 23.25 34.25 23.375 34.5 23.625C34.6875 23.8125 34.8125 24.125 34.8125 24.5625C34.8125 25.5 34.25 25.9375 33.1875 25.9375ZM38.5625 25.5C38.3125 25.75 37.875 25.9375 37.25 25.9375H35.25V25H37.25C37.4375 25 37.5625 25 37.6875 24.875C37.75 24.8125 37.8125 24.6875 37.8125 24.5625C37.8125 24.4375 37.75 24.3125 37.6875 24.25C37.625 24.1875 37.5 24.125 37.3125 24.125C36.3125 24.0625 35.125 24.125 35.125 22.75C35.125 22.125 35.5 21.4375 36.625 21.4375H38.6875V22.5H36.8125C36.625 22.5 36.5 22.5 36.375 22.5625C36.25 22.625 36.25 22.75 36.25 22.875C36.25 23.0625 36.3125 23.125 36.5 23.1875C36.625 23.25 36.75 23.25 36.875 23.25H37.4375C38 23.25 38.375 23.375 38.625 23.625C38.6875 23.625 38.6875 23.6875 38.6875 23.6875C38.875 23.9375 38.9375 24.25 38.9375 24.5625C38.9375 24.9375 38.8125 25.25 38.5625 25.5Z" fill="#0571C1"/>
<path d="M25.125 22.5625C25 22.5 24.8125 22.5 24.625 22.5H23.375V23.5H24.625C24.8125 23.5 25 23.5 25.125 23.4375C25.25 23.375 25.3125 23.1875 25.3125 23C25.375 22.75 25.25 22.625 25.125 22.5625Z" fill="#228FE0"/>
<path d="M20.75 15.0625C20.625 15 20.4375 15 20.25 15H19V16H20.25C20.4375 16 20.625 16 20.75 15.9375C20.875 15.875 20.9375 15.6875 20.9375 15.5C21 15.25 20.875 15.125 20.75 15.0625ZM28.3125 16.5625H29.75L29.0625 14.8125L28.3125 16.5625ZM17.6875 25.5625V22L16.0625 23.75L17.6875 25.5625ZM20.0625 22.4375H18.75V23.5625H20.125C20.5 23.5625 20.75 23.375 20.75 23C20.6875 22.625 20.4375 22.4375 20.0625 22.4375ZM25.125 22.5625C25 22.5 24.8125 22.5 24.625 22.5H23.375V23.5H24.625C24.8125 23.5 25 23.5 25.125 23.4375C25.25 23.375 25.3125 23.1875 25.3125 23C25.375 22.75 25.25 22.625 25.125 22.5625Z" fill="#228FE0"/>
<path d="M19.625 25.8125L18.75 24.875V25.9375H16.6875L15.4375 24.5L14.0625 25.9375H9.9375V21.5625H14.125L15.4375 23L16.0625 22.25L14.5 20.6875H9V26.8125H14.5L15.4375 25.875L16.25 26.8125H19.625V25.8125Z" fill="#2FABF7"/>
<path d="M13.125 19.3125L12.3125 18.4375H11.9375V18.0625L11 17.125L10.375 18.4375H9.5L8 15V18.4375H5.875L5.4375 17.5H3.3125L2.875 18.4375H1.75L3.625 14.0625H5.1875L6.9375 18.25V14.0625H7.875L7 13.1875H6.0625V13.9375L5.75 13.1875H3L1.75 16.125L0.3125 19.3125H3.5625L3.9375 18.375H4.8125L5.25 19.3125H8.75V18.5625L9.0625 19.3125H10.875L11.1875 18.5625V19.3125H13.125Z" fill="#2FABF7"/>
<path d="M10.25 16.4375L9.25 15.4375L10 17.0625L10.25 16.4375Z" fill="#2FABF7"/>
<path d="M38.6875 26.5C39.25 26.125 39.625 25.5 39.6875 24.8125L38.8125 23.9375C38.875 24.125 38.9375 24.3125 38.9375 24.5625C38.9375 24.9375 38.8125 25.25 38.5625 25.5C38.3125 25.75 37.875 25.9375 37.25 25.9375H35.25V25H37.25C37.4375 25 37.5625 25 37.6875 24.875C37.75 24.8125 37.8125 24.6875 37.8125 24.5625C37.8125 24.4375 37.75 24.3125 37.6875 24.25C37.625 24.1875 37.5 24.125 37.3125 24.125C36.3125 24.0625 35.125 24.125 35.125 22.75C35.125 22.125 35.5 21.5625 36.4375 21.4375L35.75 20.75C35.625 20.8125 35.5625 20.875 35.5 20.875V20.5H32.625C32.1875 20.5 31.625 20.625 31.375 20.875V20.5H26.25V20.875C25.875 20.5625 25.1875 20.5 24.875 20.5H21.5V20.875C21.1875 20.5625 20.4375 20.5 20.0625 20.5H16.3125L15.4375 21.4375L14.625 20.5H13.9375L15.8125 22.375L16.75 21.375H20.0625C20.875 21.375 21.8125 21.625 21.8125 22.8125C21.8125 24.0625 20.9375 24.3125 20 24.3125H18.75V25.25L19.6875 26.1875V25.25H20C20.4375 25.25 21 25.25 21.4375 25.0625V26.75H24.25V25.125H24.375C24.5625 25.125 24.5625 25.125 24.5625 25.3125V26.75H33.0625C33.625 26.75 34.1875 26.625 34.5 26.375V26.75H37.1875C37.6875 26.8125 38.25 26.75 38.6875 26.5ZM26.25 24.25C26.375 24.4375 26.4375 24.6875 26.4375 25.0625V25.9375H25.375V25.375C25.375 25.125 25.375 24.6875 25.1875 24.5C25.0625 24.3125 24.8125 24.3125 24.4375 24.3125H23.3125V25.9375H22.25V21.5H24.625C25.125 21.5 25.5625 21.5 25.875 21.6875C26.1875 21.875 26.4375 22.1875 26.4375 22.6875C26.4375 23.375 26 23.75 25.6875 23.875C26 24 26.1875 24.125 26.25 24.25ZM30.5625 22.4375H28.125V23.25H30.5V24.125H28.125V25H30.5625V25.9375H27.0625V21.5H30.5625V22.4375ZM33.1875 25.9375H31.1875V25H33.1875C33.375 25 33.5 25 33.625 24.875C33.6875 24.8125 33.75 24.6875 33.75 24.5625C33.75 24.4375 33.6875 24.3125 33.625 24.25C33.5625 24.1875 33.4375 24.125 33.25 24.125C32.25 24.0625 31.0625 24.125 31.0625 22.75C31.0625 22.125 31.4375 21.4375 32.5625 21.4375H34.625V22.5H32.6875C32.5 22.5 32.375 22.5 32.25 22.5625C32.125 22.625 32.125 22.75 32.125 22.875C32.125 23.0625 32.25 23.125 32.375 23.1875C32.5 23.25 32.625 23.25 32.75 23.25H33.3125C33.875 23.25 34.25 23.375 34.5 23.625C34.6875 23.8125 34.8125 24.125 34.8125 24.5625C34.8125 25.5 34.25 25.9375 33.1875 25.9375Z" fill="#228FE0"/>
<path d="M36.1875 22.875C36.1875 23.0625 36.25 23.125 36.4375 23.1875C36.5625 23.25 36.6875 23.25 36.8125 23.25H37.375C37.75 23.25 38 23.3125 38.25 23.4375L37.3125 22.5H36.75C36.5625 22.5 36.4375 22.5 36.3125 22.5625C36.25 22.625 36.1875 22.75 36.1875 22.875Z" fill="#228FE0"/>
<path d="M34 19.125L34.125 19.3125H34.1875L34 19.125ZM30.5625 15.6875L31.625 18.25V16.75L30.5625 15.6875Z" fill="#228FE0"/>
<path d="M19.875 17.75H20C20.125 17.75 20.125 17.75 20.125 17.9375V19.3125H24.625V18.9375C25 19.125 25.5625 19.3125 26.3125 19.3125H28.1875L28.5625 18.3125H29.4375L29.8125 19.3125H33.4375V18.6875L32.5625 17.8125V18.5H30.4375L30.125 17.5H27.9375L27.5625 18.5H26.375C25.875 18.5 25.25 18.375 24.875 18C24.5 17.625 24.3125 17.125 24.3125 16.3125C24.3125 15.6875 24.4375 15.0625 24.875 14.5625C25.1875 14.1875 25.75 14.0625 26.4375 14.0625H27.4375V15H26.4375C26.0625 15 25.875 15.0625 25.625 15.25C25.4375 15.4375 25.3125 15.8125 25.3125 16.25C25.3125 16.75 25.375 17.0625 25.625 17.3125C25.8125 17.5 26.0625 17.5625 26.375 17.5625H26.8125L28.25 14.125H28.875L28 13.25H26.375C25.6875 13.25 25.125 13.375 24.625 13.625V13.25H21.875V13.625C21.5625 13.375 21.1875 13.25 20.6875 13.25H10.625L9.9375 14.8125L9.25 13.25H6.5L7.375 14.125H8.625L9.6875 16.4375L10.0625 16.8125L11.1875 14.0625H12.9375V18.5H11.875V15.0625L10.8125 17.5625L12.625 19.375H19.8125L19.875 17.75ZM22.75 14.0625H23.8125V18.5H22.75V14.0625ZM17.25 15H14.8125V15.8125H17.1875V16.6875H14.8125V17.5625H17.25V18.5H13.75V14.0625H17.25V15ZM19 18.4375H17.9375V14H20.3125C20.875 14 21.25 14 21.5625 14.1875C21.875 14.375 22.0625 14.6875 22.0625 15.1875C22.0625 15.875 21.625 16.25 21.3125 16.375C21.5625 16.4375 21.75 16.625 21.8125 16.75C21.9375 17 22 17.1875 22 17.5625V18.4375H20.9375V17.875C20.9375 17.625 20.9375 17.25 20.75 17C20.6875 16.875 20.5 16.875 20.125 16.875H19V18.4375Z" fill="#228FE0"/>
</svg>
