<svg width="25" height="31" viewBox="0 0 25 31" fill="none" xmlns="http://www.w3.org/2000/svg">
<path d="M16.423 5.51136C16.9774 4.87235 17.4002 4.13011 17.667 3.32726C17.9337 2.52441 18.0393 1.67677 17.9776 0.833008C16.2754 0.970406 14.6954 1.77096 13.5779 3.06219C13.0427 3.68105 12.6372 4.40099 12.3853 5.1794C12.1333 5.9578 12.0402 6.77884 12.1113 7.59389C12.9416 7.60081 13.7623 7.41658 14.51 7.05545C15.2577 6.69433 15.9122 6.166 16.423 5.51136ZM20.1188 16.4226C20.1286 15.2989 20.4246 14.1961 20.9788 13.2185C21.5331 12.2408 22.3273 11.4205 23.2865 10.835C22.6812 9.96275 21.8809 9.24354 20.9492 8.73441C20.0175 8.22527 18.98 7.94023 17.9189 7.90187C15.6311 7.66722 13.5192 9.23645 12.3019 9.23645C11.0847 9.23645 9.3688 7.9312 7.46226 7.96053C6.21586 8.00159 5.00139 8.36498 3.93728 9.01527C2.87318 9.66556 1.99578 10.5805 1.39066 11.671C-1.1905 16.1587 0.730707 22.8315 3.31187 26.454C4.48512 28.2285 5.95169 30.2377 7.88757 30.1644C9.82344 30.0911 10.4541 28.9618 12.6979 28.9618C14.9418 28.9618 15.6311 30.1644 17.5376 30.1204C19.4441 30.0764 20.7934 28.3018 22.0253 26.5273C22.898 25.239 23.5797 23.8311 24.0492 22.3476C22.8869 21.8519 21.8952 21.0266 21.1967 19.9737C20.4982 18.9207 20.1235 17.6862 20.1188 16.4226Z" fill="black"/>
</svg>
