<svg width="66" height="55" viewBox="0 0 66 55" fill="none" xmlns="http://www.w3.org/2000/svg">
<rect x="0.458333" y="0.458333" width="64.1667" height="54.0833" stroke="#B6B6B6" stroke-width="0.916667"/>
<path d="M36.423 17.5114C36.9774 16.8723 37.4002 16.1301 37.667 15.3273C37.9337 14.5244 38.0393 13.6768 37.9776 12.833C36.2754 12.9704 34.6954 13.771 33.5779 15.0622C33.0427 15.681 32.6372 16.401 32.3853 17.1794C32.1333 17.9578 32.0402 18.7788 32.1113 19.5939C32.9416 19.6008 33.7623 19.4166 34.51 19.0555C35.2577 18.6943 35.9122 18.166 36.423 17.5114ZM40.1188 28.4226C40.1286 27.2989 40.4246 26.1961 40.9788 25.2185C41.5331 24.2408 42.3273 23.4205 43.2865 22.835C42.6812 21.9628 41.8809 21.2435 40.9492 20.7344C40.0175 20.2253 38.98 19.9402 37.9189 19.9019C35.6311 19.6672 33.5192 21.2364 32.3019 21.2364C31.0847 21.2364 29.3688 19.9312 27.4623 19.9605C26.2159 20.0016 25.0014 20.365 23.9373 21.0153C22.8732 21.6656 21.9958 22.5805 21.3907 23.671C18.8095 28.1587 20.7307 34.8315 23.3119 38.454C24.4851 40.2285 25.9517 42.2377 27.8876 42.1644C29.8234 42.0911 30.4541 40.9618 32.6979 40.9618C34.9418 40.9618 35.6311 42.1644 37.5376 42.1204C39.4441 42.0764 40.7934 40.3018 42.0253 38.5273C42.898 37.239 43.5797 35.8311 44.0492 34.3476C42.8869 33.8519 41.8952 33.0266 41.1967 31.9737C40.4982 30.9207 40.1235 29.6862 40.1188 28.4226Z" fill="black"/>
</svg>
