<svg width="40" height="40" viewBox="0 0 40 40" fill="none" xmlns="http://www.w3.org/2000/svg">
<path d="M31.1811 11.1772C31.832 10.5263 31.832 9.47106 31.1811 8.82019C30.5302 8.16931 29.475 8.16931 28.8241 8.82019L20.0026 17.6417L11.1811 8.82019C10.5302 8.16931 9.47497 8.16931 8.82409 8.82019C8.17322 9.47106 8.17322 10.5263 8.82409 11.1772L17.6456 19.9987L8.82409 28.8202C8.17322 29.4711 8.17322 30.5263 8.82409 31.1772C9.47497 31.8281 10.5302 31.8281 11.1811 31.1772L20.0026 22.3557L28.8241 31.1772C29.475 31.8281 30.5302 31.8281 31.1811 31.1772C31.832 30.5263 31.832 29.4711 31.1811 28.8202L22.3596 19.9987L31.1811 11.1772Z" fill="#151515"/>
</svg>
