<svg width="20" height="20" viewBox="0 0 20 20" fill="none" xmlns="http://www.w3.org/2000/svg">
<path d="M15.5891 5.58958C15.9145 5.26414 15.9145 4.73651 15.5891 4.41107C15.2637 4.08563 14.736 4.08563 14.4106 4.41107L9.99984 8.82181L5.58909 4.41107C5.26366 4.08563 4.73602 4.08563 4.41058 4.41107C4.08514 4.73651 4.08514 5.26414 4.41058 5.58958L8.82133 10.0003L4.41058 14.4111C4.08514 14.7365 4.08514 15.2641 4.41058 15.5896C4.73602 15.915 5.26366 15.915 5.58909 15.5896L9.99984 11.1788L14.4106 15.5896C14.736 15.915 15.2637 15.915 15.5891 15.5896C15.9145 15.2641 15.9145 14.7365 15.5891 14.4111L11.1783 10.0003L15.5891 5.58958Z" fill="#CE0303"/>
</svg>
