<svg width="40" height="40" viewBox="0 0 40 40" fill="none" xmlns="http://www.w3.org/2000/svg">
<g id="Icons">
<path id="Solid" d="M31.1792 11.1782C31.83 10.5273 31.83 9.47204 31.1792 8.82116C30.5283 8.17029 29.473 8.17029 28.8221 8.82116L20.0007 17.6427L11.1792 8.82116C10.5283 8.17029 9.47301 8.17029 8.82214 8.82116C8.17127 9.47204 8.17127 10.5273 8.82214 11.1782L17.6436 19.9997L8.82214 28.8212C8.17127 29.472 8.17127 30.5273 8.82214 31.1782C9.47301 31.8291 10.5283 31.8291 11.1792 31.1782L20.0007 22.3567L28.8221 31.1782C29.473 31.8291 30.5283 31.8291 31.1792 31.1782C31.83 30.5273 31.83 29.472 31.1792 28.8212L22.3577 19.9997L31.1792 11.1782Z" fill="black"/>
</g>
</svg>
