<svg width="21" height="22" viewBox="0 0 21 22" fill="none" xmlns="http://www.w3.org/2000/svg">
<path d="M5.51097 0.000272776L5.44951 0.000141408C5.22263 -0.00057659 4.93711 -0.0014802 4.66174 0.0771638C4.42328 0.145265 4.19957 0.257121 4.00202 0.407025C3.77388 0.580133 3.60329 0.809095 3.46774 0.991024L3.43097 1.04027L1.96077 3.00049C1.82432 3.18242 1.7561 3.27338 1.73066 3.36088C1.65961 3.60521 1.79629 3.87858 2.03438 3.96834C2.11965 4.00049 2.23474 4.00049 2.46491 4.00049H18.957C19.1872 4.00049 19.3023 4.00049 19.3876 3.96834C19.6256 3.87858 19.7623 3.60521 19.6913 3.36088C19.6658 3.27338 19.5976 3.18242 19.4612 3.00049L17.991 1.04027L17.9542 0.991022C17.8186 0.809099 17.648 0.580121 17.4199 0.407025C17.2224 0.257121 16.9987 0.145265 16.7602 0.0771639C16.4848 -0.0014802 16.1993 -0.00057659 15.9724 0.000141408L15.911 0.000272776H5.51097Z" fill="#151515"/>
<path fill-rule="evenodd" clip-rule="evenodd" d="M20.711 7.60049C20.711 7.04044 20.711 6.76041 20.602 6.5465C20.5061 6.35834 20.3532 6.20536 20.165 6.10948C19.9511 6.00049 19.6711 6.00049 19.111 6.00049H2.31094C1.75088 6.00049 1.47086 6.00049 1.25694 6.10948C1.06878 6.20536 0.915802 6.35834 0.819928 6.5465C0.710935 6.76041 0.710936 7.04044 0.710938 7.60049L0.710966 17.8388C0.710948 18.366 0.710933 18.8207 0.741536 19.1953C0.773837 19.5906 0.845153 19.9839 1.03795 20.3622C1.32557 20.9267 1.78451 21.3857 2.34899 21.6733C2.72737 21.8661 3.12059 21.9374 3.51594 21.9697C3.89051 22.0003 4.34526 22.0003 4.8724 22.0003L16.5495 22.0003C17.0767 22.0003 17.5314 22.0003 17.906 21.9697C18.3013 21.9374 18.6946 21.8661 19.0729 21.6733C19.6374 21.3857 20.0964 20.9267 20.384 20.3622C20.5768 19.9839 20.6481 19.5906 20.6804 19.1953C20.711 18.8207 20.711 18.366 20.711 17.8388L20.711 7.60049ZM6.71096 9.00049C7.26325 9.00049 7.71096 9.4482 7.71096 10.0005C7.71096 10.7961 8.02703 11.5592 8.58964 12.1218C9.15225 12.6844 9.91531 13.0005 10.711 13.0005C11.5066 13.0005 12.2697 12.6844 12.8323 12.1218C13.3949 11.5592 13.711 10.7961 13.711 10.0005C13.711 9.4482 14.1587 9.00049 14.711 9.00049C15.2632 9.00049 15.711 9.4482 15.711 10.0005C15.711 11.3266 15.1842 12.5983 14.2465 13.536C13.3088 14.4737 12.037 15.0005 10.711 15.0005C9.38488 15.0005 8.11311 14.4737 7.17543 13.536C6.23775 12.5983 5.71096 11.3266 5.71096 10.0005C5.71096 9.4482 6.15868 9.00049 6.71096 9.00049Z" fill="#151515"/>
</svg>
