<svg width="20" height="20" viewBox="0 0 20 20" fill="none" xmlns="http://www.w3.org/2000/svg">
<path fill-rule="evenodd" clip-rule="evenodd" d="M9.58329 1.66602C5.21104 1.66602 1.66663 5.21043 1.66663 9.58268C1.66663 13.9549 5.21104 17.4993 9.58329 17.4993C11.4692 17.4993 13.2012 16.8399 14.5611 15.739L16.9107 18.0886C17.2361 18.414 17.7638 18.414 18.0892 18.0886C18.4147 17.7632 18.4147 17.2355 18.0892 16.9101L15.7396 14.5604C16.8405 13.2006 17.5 11.4686 17.5 9.58268C17.5 5.21043 13.9555 1.66602 9.58329 1.66602ZM3.33329 9.58268C3.33329 6.1309 6.13151 3.33268 9.58329 3.33268C13.0351 3.33268 15.8333 6.1309 15.8333 9.58268C15.8333 13.0345 13.0351 15.8327 9.58329 15.8327C6.13151 15.8327 3.33329 13.0345 3.33329 9.58268Z" fill="#B6B6B6"/>
</svg>
