<svg width="22" height="22" viewBox="0 0 22 22" fill="none" xmlns="http://www.w3.org/2000/svg">
<path fill-rule="evenodd" clip-rule="evenodd" d="M7.11475 1.83398H14.8905C15.6284 1.83397 16.2373 1.83396 16.7334 1.8745C17.2487 1.91659 17.7223 2.00694 18.1672 2.23363C18.8572 2.58516 19.4181 3.14609 19.7696 3.83602C19.9963 4.28091 20.0867 4.75456 20.1288 5.26981C20.1693 5.7659 20.1693 6.37489 20.1693 7.11277V12.4071C20.1693 13.021 20.1693 13.5278 20.141 13.9427C20.1116 14.3729 20.0488 14.7708 19.8902 15.1538C19.518 16.0523 18.8042 16.7661 17.9058 17.1382C17.5228 17.2969 17.1249 17.3597 16.6947 17.389C16.2798 17.4173 15.773 17.4173 15.159 17.4173H15.1276C14.6358 17.4173 14.5381 17.4231 14.4587 17.4418C14.3202 17.4745 14.1912 17.539 14.0819 17.6302C14.0192 17.6825 13.956 17.7572 13.6609 18.1507L12.3071 19.9558C12.2215 20.07 12.1248 20.1991 12.0317 20.3026C11.929 20.4167 11.7583 20.5848 11.501 20.6849C11.1804 20.8096 10.8248 20.8096 10.5042 20.6849C10.2469 20.5848 10.0762 20.4167 9.97355 20.3026C9.88044 20.1991 9.7837 20.07 9.69812 19.9558L8.34427 18.1507C8.04916 17.7572 7.98597 17.6825 7.92329 17.6302C7.81403 17.539 7.68505 17.4745 7.54655 17.4418C7.46708 17.4231 7.36945 17.4173 6.8776 17.4173H6.84619C6.23221 17.4173 5.72542 17.4173 5.31053 17.389C4.88035 17.3597 4.48243 17.2969 4.09943 17.1382C3.201 16.7661 2.48719 16.0523 2.11505 15.1538C1.9564 14.7708 1.89358 14.3729 1.86423 13.9427C1.83592 13.5278 1.83593 13.021 1.83594 12.4071L1.83594 7.11279C1.83593 6.3749 1.83592 5.76591 1.87645 5.26981C1.91855 4.75456 2.0089 4.28091 2.23558 3.83602C2.58712 3.14609 3.14805 2.58516 3.83797 2.23363C4.28286 2.00694 4.75651 1.91659 5.27176 1.8745C5.76786 1.83396 6.37686 1.83397 7.11475 1.83398Z" fill="black"/>
</svg>
