<svg width="201" height="196" viewBox="0 0 201 196" fill="none" xmlns="http://www.w3.org/2000/svg">
<path d="M60.6938 185.174C60.6358 185.31 60.5389 185.349 60.4031 185.291L58.8545 184.631C58.7186 184.573 58.6797 184.476 58.7376 184.34L64.6483 170.484C64.7063 170.348 64.8032 170.309 64.939 170.367L66.4265 171.002C66.5216 171.042 66.5828 171.125 66.6102 171.249L68.5462 184.382C68.5424 184.428 68.557 184.451 68.59 184.449C68.6171 184.46 68.6394 184.446 68.6568 184.405L73.0434 174.065C73.1013 173.93 73.1982 173.891 73.334 173.949L74.8826 174.609C75.0185 174.667 75.0574 174.764 74.9995 174.9L69.0888 188.756C69.0308 188.892 68.9339 188.93 68.7981 188.873L67.2902 188.229C67.1952 188.189 67.1339 188.106 67.1066 187.982L65.1909 174.858C65.1947 174.812 65.183 174.782 65.1558 174.771C65.1229 174.773 65.0977 174.794 65.0803 174.835L60.6938 185.174Z" fill="#151515"/>
<path d="M40.3874 170.591C40.4764 170.473 40.5799 170.458 40.6977 170.547L46.9715 175.289C47.0186 175.325 47.06 175.319 47.0956 175.272L49.9675 171.473C50.0031 171.425 49.9974 171.384 49.9502 171.348L45.6381 168.089C45.5203 168 45.5059 167.897 45.595 167.779L46.4365 166.665C46.5255 166.548 46.629 166.533 46.7468 166.622L51.0589 169.882C51.106 169.917 51.1474 169.911 51.183 169.864L54.1217 165.976C54.1573 165.929 54.1516 165.888 54.1044 165.852L47.8307 161.11C47.7128 161.021 47.6985 160.918 47.7875 160.8L48.629 159.687C48.7181 159.569 48.8215 159.554 48.9393 159.643L56.8037 165.588C56.9215 165.677 56.9359 165.78 56.8468 165.898L47.7636 177.915C47.6746 178.033 47.5711 178.047 47.4533 177.958L39.589 172.014C39.4712 171.925 39.4568 171.822 39.5459 171.704L40.3874 170.591Z" fill="#151515"/>
<path d="M41.1426 151.839C41.2233 151.944 41.2257 152.045 41.1497 152.14L31.6908 164.609L31.6515 164.666C31.5576 164.738 31.4658 164.715 31.3761 164.598L30.2867 163.172C30.206 163.067 30.2095 162.962 30.2972 162.858L37.3014 153.854C37.3159 153.824 37.3187 153.803 37.3097 153.792C37.2918 153.768 37.2666 153.759 37.2342 153.766L26.8003 158.281C26.6768 158.338 26.5746 158.314 26.4939 158.208L25.4314 156.818C25.3507 156.712 25.3542 156.607 25.4419 156.503L32.4637 147.486C32.4782 147.456 32.481 147.435 32.472 147.424C32.4631 147.412 32.4424 147.409 32.4099 147.415L21.8508 151.803C21.7273 151.86 21.6252 151.836 21.5445 151.73L20.5223 150.393C20.4775 150.334 20.4637 150.279 20.481 150.229C20.4893 150.167 20.5272 150.119 20.5949 150.086L34.9991 144.127C35.1226 144.069 35.2248 144.094 35.3055 144.199L36.3411 145.555C36.4218 145.66 36.4183 145.765 36.3306 145.869L29.0095 155.115C28.9833 155.154 28.9746 155.179 28.9836 155.191C28.9926 155.203 29.0191 155.201 29.0633 155.186L39.8544 150.481C39.969 150.412 40.0711 150.436 40.1608 150.554L41.1426 151.839Z" fill="#151515"/>
<path d="M23.31 114.95C23.3414 115.08 23.305 115.18 23.2007 115.251L20.8713 116.639C20.8317 116.664 20.8172 116.698 20.8277 116.741L22.3012 122.789C22.3116 122.832 22.3402 122.855 22.3867 122.859L25.0937 123.021C25.219 123.036 25.2973 123.108 25.3288 123.237L25.7535 124.98C25.792 125.138 25.7271 125.215 25.5587 125.21L9.75303 124.068C9.62775 124.052 9.54938 123.98 9.51792 123.851L8.99355 121.699C8.96209 121.57 8.99851 121.47 9.10281 121.399L22.6013 113.071L22.6821 113.029C22.7826 113.004 22.8485 113.056 22.88 113.186L23.31 114.95ZM20.4477 122.762C20.4798 122.769 20.5085 122.762 20.5337 122.741C20.5411 122.709 20.5413 122.678 20.5343 122.649L19.3282 117.699C19.3212 117.67 19.3088 117.651 19.291 117.64C19.2553 117.618 19.2248 117.618 19.1996 117.639L11.8228 122.081C11.7976 122.103 11.7885 122.128 11.7955 122.156C11.8025 122.185 11.8221 122.203 11.8543 122.21L20.4477 122.762Z" fill="#151515"/>
<path d="M22.0534 96.4828C22.0528 96.601 22.0007 96.682 21.8971 96.7257L15.2579 99.7937C15.2135 99.8083 15.1912 99.8377 15.191 99.882L15.1749 103.072C15.1746 103.131 15.204 103.161 15.2631 103.161L21.7981 103.194C21.9457 103.195 22.0192 103.269 22.0185 103.417L22.01 105.1C22.0092 105.248 21.935 105.321 21.7873 105.321L6.72363 105.245C6.57595 105.244 6.50248 105.17 6.50322 105.022L6.53325 99.063C6.53772 98.1769 6.72623 97.4025 7.09879 96.7398C7.47142 96.0623 7.99096 95.5406 8.65739 95.1748C9.32383 94.8089 10.0927 94.6282 10.964 94.6326C11.9978 94.6378 12.8752 94.9154 13.5961 95.4655C14.3023 96.0007 14.7785 96.7489 15.0247 97.7101C15.0539 97.7694 15.0908 97.7843 15.1352 97.755L21.7972 94.5764C21.8268 94.5618 21.8638 94.5546 21.9081 94.5548C22.0114 94.5553 22.0628 94.6146 22.0622 94.7328L22.0534 96.4828ZM8.35193 103.038C8.35163 103.097 8.38102 103.126 8.44009 103.127L13.4023 103.152C13.4613 103.152 13.491 103.123 13.4913 103.063L13.51 99.364C13.5139 98.5813 13.2882 97.9525 12.8327 97.4776C12.3625 97.0026 11.7434 96.7632 10.9755 96.7593C10.1928 96.7554 9.56391 96.9885 9.08894 97.4587C8.61397 97.9289 8.37452 98.5554 8.37057 99.3381L8.35193 103.038Z" fill="#151515"/>
<path d="M25.307 77.678C25.2779 77.7925 25.2078 77.8585 25.0967 77.8759L17.9129 79.249C17.8663 79.2524 17.8376 79.2756 17.8267 79.3185L17.0404 82.4101C17.0258 82.4673 17.0471 82.5032 17.1044 82.5178L23.4378 84.1286C23.581 84.165 23.6343 84.2548 23.5979 84.3979L23.1829 86.0296C23.1465 86.1727 23.0568 86.2261 22.9136 86.1897L8.31452 82.4766C8.17139 82.4402 8.11803 82.3504 8.15443 82.2073L9.62327 76.4321C9.84169 75.5733 10.2117 74.8674 10.7333 74.3143C11.2586 73.7469 11.8888 73.3662 12.6239 73.1722C13.359 72.9782 14.1487 72.9886 14.9932 73.2033C15.9951 73.4582 16.7794 73.9395 17.346 74.6475C17.902 75.3375 18.1833 76.1786 18.19 77.1708C18.2041 77.2353 18.2362 77.2588 18.2864 77.2411L25.519 75.7661C25.5513 75.7591 25.5889 75.761 25.6318 75.7719C25.732 75.7974 25.7675 75.8674 25.7384 75.9819L25.307 77.678ZM10.4278 80.7283C10.4133 80.7855 10.4346 80.8214 10.4919 80.836L15.301 82.0591C15.3582 82.0737 15.3941 82.0523 15.4087 81.9951L16.3206 78.4097C16.5135 77.6511 16.4464 76.9864 16.1192 76.4155C15.7776 75.841 15.2347 75.4591 14.4905 75.2699C13.7319 75.0769 13.0653 75.1512 12.4908 75.4927C11.9163 75.8343 11.5326 76.3843 11.3397 77.1429L10.4278 80.7283Z" fill="#151515"/>
<path d="M29.1284 67.7371C29.0648 67.8704 28.9663 67.9052 28.8331 67.8415L15.2402 61.3487C15.107 61.2851 15.0722 61.1866 15.1358 61.0533L15.8615 59.5341C15.9251 59.4009 16.0236 59.3661 16.1569 59.4297L29.7497 65.9225C29.883 65.9862 29.9178 66.0846 29.8541 66.2179L29.1284 67.7371Z" fill="#151515"/>
<path d="M36.757 54.5979C36.6774 54.7043 36.577 54.7399 36.4558 54.7046L21.5357 49.4652L21.4514 49.4298C21.3686 49.3679 21.3671 49.2837 21.4467 49.1773L22.5214 47.7404C22.601 47.6339 22.7014 47.5984 22.8226 47.6336L34.8219 52.044C34.8544 52.0499 34.8795 52.041 34.8972 52.0173C34.9149 51.9937 34.9163 51.9671 34.9015 51.9376L27.2807 41.6731C27.2127 41.5669 27.214 41.4664 27.2848 41.3718L28.333 39.9704C28.4303 39.8403 28.5307 39.8416 28.6342 39.9744L37.849 52.842C37.9171 52.9482 37.9113 53.0546 37.8317 53.161L36.757 54.5979Z" fill="#151515"/>
<path d="M53.9486 37.1124C53.8456 37.1965 53.7396 37.2067 53.6306 37.1432L51.3738 35.6397C51.3343 35.6147 51.2974 35.6162 51.2631 35.6442L46.4408 39.5806C46.4065 39.6086 46.3976 39.6445 46.4142 39.6881L47.4354 42.2003C47.4758 42.3198 47.4445 42.4216 47.3415 42.5057L45.9515 43.6404C45.8256 43.7431 45.7285 43.7175 45.6601 43.5637L39.8786 28.809C39.8382 28.6895 39.8695 28.5877 39.9724 28.5036L41.6886 27.1028C41.7915 27.0187 41.8975 27.0084 42.0066 27.072L55.339 35.6629L55.4122 35.7175C55.4776 35.7976 55.4588 35.8797 55.3558 35.9637L53.9486 37.1124ZM45.6665 37.8964C45.6737 37.9286 45.6924 37.9515 45.7225 37.965C45.7548 37.9578 45.7823 37.9448 45.8052 37.9261L49.7523 34.7042C49.7752 34.6855 49.7876 34.6658 49.7897 34.645C49.7939 34.6034 49.781 34.5759 49.7509 34.5623L42.563 29.8205C42.5329 29.807 42.5064 29.8095 42.4835 29.8282C42.4606 29.8469 42.4528 29.8723 42.46 29.9046L45.6665 37.8964Z" fill="#151515"/>
<path d="M62.3153 31.7151C62.1822 31.779 62.0837 31.7444 62.0198 31.6112L55.5033 18.0297C55.4394 17.8966 55.4741 17.798 55.6072 17.7342L57.1252 17.0058C57.2583 16.942 57.3568 16.9766 57.4207 17.1097L63.1993 29.1534C63.2248 29.2066 63.2642 29.2205 63.3175 29.1949L70.2081 25.8888C70.3413 25.8249 70.4398 25.8595 70.5037 25.9927L71.1074 27.251C71.1713 27.3841 71.1367 27.4826 71.0035 27.5465L62.3153 31.7151Z" fill="#151515"/>
<path d="M83.4929 24.0338C82.3824 24.2785 81.378 24.3184 80.4796 24.1534C79.5957 23.9852 78.8602 23.6331 78.2733 23.0971C77.7008 22.5578 77.3207 21.8627 77.1332 21.0118L76.995 20.3844C76.9632 20.2402 77.0194 20.1522 77.1636 20.1204L78.7429 19.7724C78.8871 19.7406 78.9751 19.7968 79.0069 19.9411L79.1213 20.4603C79.2834 21.1958 79.7342 21.7317 80.4737 22.0677C81.2131 22.4038 82.1381 22.4495 83.2487 22.2048C84.2438 21.9855 84.9477 21.6111 85.3603 21.0816C85.773 20.5521 85.9046 19.9485 85.7552 19.2706C85.6567 18.8235 85.4426 18.4699 85.1131 18.2098C84.7836 17.9497 84.3378 17.7455 83.7758 17.5971C83.2251 17.4312 82.4324 17.2656 81.3979 17.1004C80.2561 16.9285 79.3385 16.7451 78.6453 16.5501C77.9664 16.3518 77.3663 16.0304 76.8449 15.5858C76.3203 15.1267 75.9674 14.4861 75.7862 13.664C75.5129 12.4237 75.7382 11.3532 76.4623 10.4527C77.2007 9.54892 78.3272 8.93018 79.8415 8.59646C80.9088 8.36127 81.886 8.33497 82.7731 8.51755C83.6602 8.70013 84.3916 9.06825 84.9673 9.62191C85.5574 10.1724 85.9462 10.8731 86.1338 11.724L86.2291 12.1567C86.2609 12.3009 86.2047 12.3889 86.0604 12.4207L84.4379 12.7783C84.2937 12.8101 84.2057 12.7538 84.1739 12.6096L84.1024 12.2851C83.9371 11.5351 83.4976 10.9817 82.7838 10.6248C82.0812 10.2504 81.2035 10.1791 80.1507 10.4111C79.2565 10.6082 78.6055 10.9482 78.1978 11.4313C77.7869 11.8999 77.6577 12.4804 77.8103 13.1726C77.9151 13.6486 78.1235 14.011 78.4355 14.2598C78.7474 14.5087 79.1683 14.7032 79.6983 14.8435C80.2395 14.9662 81.049 15.1054 82.1268 15.2611C83.2398 15.4393 84.1517 15.6315 84.8626 15.8378C85.5703 16.0297 86.1952 16.3608 86.7374 16.8311C87.2765 17.287 87.6366 17.9259 87.8177 18.748C88.0974 20.0172 87.8512 21.1301 87.079 22.0866C86.318 23.0256 85.1227 23.6746 83.4929 24.0338Z" fill="#151515"/>
<path d="M112.15 23.1136C111.085 22.9462 110.178 22.5795 109.43 22.0134C108.682 21.4473 108.143 20.7348 107.815 19.8759C107.489 19.0024 107.407 18.0477 107.57 17.0118L108.388 11.8034C108.551 10.7676 108.921 9.89127 109.497 9.17452C110.073 8.45778 110.804 7.94477 111.69 7.6355C112.576 7.32623 113.551 7.25529 114.616 7.42268C115.696 7.59237 116.609 7.96026 117.358 8.52636C118.106 9.09245 118.644 9.80496 118.973 10.6639C119.301 11.5228 119.384 12.4702 119.221 13.506L118.403 18.7144C118.24 19.7503 117.869 20.6339 117.291 21.3652C116.715 22.082 115.984 22.595 115.098 22.9042C114.212 23.2135 113.229 23.2833 112.15 23.1136ZM112.435 21.2972C113.427 21.4532 114.278 21.2729 114.987 20.7565C115.696 20.24 116.13 19.4784 116.288 18.4718L117.124 13.1539C117.284 12.1327 117.106 11.2675 116.59 10.5584C116.076 9.83479 115.323 9.395 114.33 9.23907C113.338 9.08314 112.487 9.27069 111.775 9.80173C111.081 10.3205 110.653 11.0905 110.493 12.1117L109.657 17.4296C109.499 18.4362 109.671 19.293 110.172 19.9997C110.689 20.7088 111.443 21.1413 112.435 21.2972Z" fill="#151515"/>
<path d="M140.301 15.6286C140.359 15.493 140.456 15.4544 140.592 15.5128L142.138 16.1788C142.274 16.2372 142.313 16.3342 142.254 16.4699L136.295 30.3051C136.237 30.4407 136.14 30.4794 136.004 30.4209L134.519 29.7812C134.424 29.7403 134.363 29.6578 134.336 29.5337L132.446 16.3941C132.45 16.3475 132.435 16.3252 132.402 16.3271C132.375 16.3154 132.353 16.3299 132.335 16.3706L127.913 26.6947C127.854 26.8304 127.757 26.869 127.622 26.8106L126.075 26.1446C125.94 26.0862 125.901 25.9891 125.96 25.8535L131.919 12.0183C131.977 11.8826 132.074 11.844 132.21 11.9024L133.715 12.5509C133.81 12.5918 133.871 12.6743 133.898 12.7985L135.768 25.9293C135.764 25.9758 135.776 26.005 135.803 26.0166C135.836 26.0148 135.861 25.9935 135.879 25.9528L140.301 15.6286Z" fill="#151515"/>
<path d="M154.608 43.6351C154.518 43.5372 154.506 43.4375 154.573 43.3357L162.855 30.0558L162.889 29.9945C162.975 29.9145 163.069 29.9288 163.169 30.0375L164.384 31.3579C164.474 31.4557 164.48 31.5605 164.402 31.6722L158.249 41.2779C158.237 41.3088 158.237 41.3297 158.247 41.3405C158.267 41.3623 158.292 41.3686 158.324 41.3594L168.302 35.9106C168.42 35.8423 168.524 35.8571 168.614 35.9549L169.799 37.2427C169.889 37.3405 169.895 37.4453 169.817 37.557L163.648 47.1777C163.636 47.2086 163.635 47.2295 163.645 47.2403C163.655 47.2512 163.676 47.2521 163.708 47.2429L173.822 41.9095C173.94 41.8412 174.044 41.856 174.134 41.9538L175.274 43.1927C175.324 43.2471 175.343 43.3001 175.33 43.3518C175.328 43.4144 175.294 43.4653 175.23 43.5044L161.43 50.7542C161.312 50.8224 161.208 50.8077 161.118 50.7098L159.963 49.4546C159.873 49.3568 159.867 49.2521 159.945 49.1403L166.391 39.2646C166.414 39.2238 166.42 39.1979 166.41 39.187C166.4 39.1762 166.374 39.1803 166.331 39.1994L156.015 44.8694C155.907 44.9485 155.803 44.9337 155.703 44.8251L154.608 43.6351Z" fill="#151515"/>
<path d="M185.423 61.1704C185.555 61.104 185.654 61.1368 185.721 61.2687L186.477 62.7729C186.544 62.9048 186.511 63.004 186.379 63.0703L172.921 69.8382C172.789 69.9045 172.69 69.8717 172.623 69.7398L171.867 68.2357C171.801 68.1037 171.833 68.0046 171.965 67.9382L177.843 64.9823C177.896 64.9557 177.909 64.9161 177.883 64.8633L175.046 59.2228C175.02 59.17 174.98 59.1569 174.927 59.1834L169.049 62.1394C168.917 62.2058 168.818 62.173 168.752 62.041L167.995 60.5369C167.929 60.4049 167.962 60.3058 168.094 60.2395L181.552 53.4716C181.684 53.4052 181.783 53.438 181.849 53.57L182.606 55.0741C182.672 55.2061 182.639 55.3052 182.507 55.3716L176.728 58.2777C176.675 58.3043 176.662 58.3439 176.689 58.3967L179.525 64.0372C179.552 64.09 179.592 64.1031 179.644 64.0766L185.423 61.1704Z" fill="#151515"/>
<path d="M176.474 82.8121C176.237 81.7604 176.243 80.7825 176.493 79.8782C176.743 78.9739 177.207 78.2107 177.884 77.5885C178.576 76.9631 179.433 76.535 180.456 76.3042L185.599 75.1437C186.622 74.9128 187.572 74.933 188.451 75.204C189.33 75.4751 190.076 75.9652 190.691 76.6744C191.305 77.3836 191.731 78.2641 191.968 79.3157C192.209 80.3818 192.204 81.367 191.954 82.2713C191.703 83.1755 191.24 83.9388 190.563 84.5609C189.885 85.183 189.035 85.6095 188.013 85.8403L182.87 87.0009C181.847 87.2317 180.889 87.2132 179.996 86.9454C179.117 86.6744 178.37 86.1842 177.756 85.475C177.142 84.7658 176.715 83.8782 176.474 82.8121ZM178.268 82.4073C178.489 83.387 178.97 84.1111 179.712 84.5796C180.453 85.0481 181.321 85.1702 182.315 84.9459L187.566 83.761C188.575 83.5334 189.313 83.0488 189.782 82.3072C190.264 81.5624 190.395 80.7001 190.174 79.7205C189.953 78.7409 189.465 78.0184 188.709 77.5531C187.97 77.099 187.097 76.9857 186.089 77.2133L180.837 78.3982C179.843 78.6226 179.111 79.0983 178.639 79.8255C178.17 80.5671 178.047 81.4277 178.268 82.4073Z" fill="#151515"/>
<path d="M178.721 96.924C178.724 96.7763 178.799 96.7036 178.946 96.7059L194.008 96.9363C194.156 96.9385 194.229 97.0135 194.227 97.1612L194.201 98.8446C194.199 98.9923 194.124 99.065 193.976 99.0627L180.619 98.8584C180.56 98.8575 180.53 98.8866 180.529 98.9456L180.412 106.587C180.41 106.735 180.335 106.808 180.188 106.806L178.792 106.784C178.644 106.782 178.572 106.707 178.574 106.559L178.721 96.924Z" fill="#151515"/>
<path d="M188.451 128.073C188.308 128.037 188.254 127.948 188.29 127.805L190.203 120.177C190.218 120.119 190.196 120.084 190.139 120.069L185.519 118.91C185.462 118.896 185.426 118.917 185.412 118.975L184.097 124.218C184.061 124.361 183.971 124.415 183.828 124.379L182.474 124.039C182.331 124.003 182.277 123.914 182.313 123.77L183.628 118.527C183.643 118.47 183.621 118.434 183.564 118.42L178.837 117.234C178.779 117.22 178.744 117.241 178.729 117.299L176.816 124.927C176.78 125.07 176.69 125.124 176.547 125.088L175.193 124.748C175.05 124.712 174.997 124.623 175.032 124.479L177.431 114.917C177.467 114.774 177.556 114.721 177.7 114.757L192.311 118.421C192.454 118.457 192.508 118.547 192.472 118.69L190.074 128.252C190.038 128.395 189.948 128.449 189.805 128.413L188.451 128.073Z" fill="#151515"/>
<path d="M169.811 136.111C170.332 135.1 170.943 134.302 171.644 133.716C172.338 133.144 173.079 132.803 173.866 132.694C174.647 132.598 175.425 132.75 176.199 133.149L176.77 133.444C176.901 133.512 176.933 133.611 176.865 133.742L176.124 135.18C176.056 135.311 175.957 135.343 175.826 135.275L175.353 135.031C174.684 134.686 173.983 134.69 173.252 135.044C172.521 135.398 171.895 136.081 171.374 137.092C170.907 137.997 170.745 138.778 170.889 139.434C171.032 140.089 171.413 140.576 172.03 140.894C172.436 141.104 172.845 141.166 173.256 141.078C173.666 140.991 174.108 140.779 174.582 140.441C175.061 140.123 175.695 139.619 176.483 138.929C177.345 138.161 178.072 137.572 178.665 137.163C179.251 136.768 179.882 136.511 180.557 136.394C181.246 136.284 181.964 136.422 182.712 136.808C183.841 137.39 184.52 138.247 184.75 139.38C184.974 140.525 184.73 141.787 184.019 143.165C183.518 144.137 182.914 144.905 182.207 145.471C181.5 146.037 180.749 146.364 179.955 146.453C179.155 146.555 178.367 146.407 177.593 146.007L177.199 145.804C177.068 145.737 177.036 145.637 177.104 145.506L177.866 144.029C177.933 143.898 178.033 143.866 178.164 143.934L178.459 144.086C179.142 144.438 179.848 144.454 180.579 144.133C181.316 143.832 181.932 143.202 182.426 142.244C182.845 141.43 183 140.712 182.889 140.09C182.791 139.474 182.427 139.004 181.797 138.679C181.364 138.456 180.952 138.384 180.561 138.465C180.17 138.546 179.752 138.746 179.305 139.064C178.865 139.402 178.241 139.935 177.432 140.665C176.584 141.407 175.853 141.986 175.241 142.401C174.641 142.823 173.987 143.092 173.279 143.209C172.584 143.332 171.862 143.201 171.114 142.815C169.959 142.219 169.26 141.319 169.018 140.114C168.781 138.928 169.046 137.594 169.811 136.111Z" fill="#151515"/>
<path d="M156.921 154.634C157.008 154.533 157.111 154.505 157.229 154.549L159.711 155.642C159.754 155.66 159.79 155.652 159.819 155.618L163.893 150.912C163.922 150.878 163.925 150.841 163.901 150.801L162.463 148.502C162.403 148.391 162.416 148.285 162.503 148.185L163.677 146.828C163.784 146.705 163.884 146.714 163.978 146.854L172.209 160.395C172.27 160.506 172.256 160.611 172.169 160.712L170.72 162.387C170.633 162.487 170.53 162.516 170.412 162.472L155.801 156.301L155.719 156.259C155.641 156.192 155.646 156.108 155.733 156.007L156.921 154.634ZM164.945 152.438C164.933 152.407 164.91 152.388 164.878 152.38C164.848 152.392 164.823 152.41 164.804 152.432L161.469 156.285C161.45 156.307 161.441 156.328 161.443 156.349C161.446 156.391 161.463 156.416 161.495 156.424L169.391 159.86C169.423 159.868 169.449 159.861 169.468 159.838C169.487 159.816 169.491 159.79 169.478 159.759L164.945 152.438Z" fill="#151515"/>
<path d="M149.611 161.386C149.731 161.3 149.834 161.317 149.92 161.438L158.674 173.697C158.76 173.817 158.743 173.92 158.623 174.006L157.253 174.984C157.132 175.07 157.029 175.053 156.944 174.933L149.181 164.062C149.147 164.013 149.105 164.007 149.057 164.041L142.838 168.482C142.717 168.568 142.614 168.551 142.528 168.431L141.717 167.295C141.632 167.175 141.649 167.072 141.769 166.986L149.611 161.386Z" fill="#151515"/>
<path d="M130.311 187.702C130.255 187.566 130.296 187.469 130.432 187.413L137.707 184.426C137.762 184.404 137.778 184.365 137.755 184.31L135.946 179.904C135.924 179.85 135.885 179.834 135.83 179.856L130.83 181.909C130.694 181.966 130.597 181.925 130.541 181.789L130.011 180.498C129.955 180.361 129.995 180.265 130.132 180.209L135.132 178.155C135.187 178.133 135.203 178.094 135.18 178.04L133.329 173.531C133.306 173.477 133.268 173.461 133.213 173.483L125.939 176.471C125.802 176.527 125.706 176.486 125.649 176.35L125.119 175.059C125.063 174.922 125.103 174.826 125.24 174.77L134.359 171.025C134.496 170.969 134.592 171.009 134.648 171.146L140.371 185.08C140.427 185.217 140.386 185.313 140.25 185.369L131.131 189.114C130.994 189.17 130.898 189.13 130.842 188.993L130.311 187.702Z" fill="#151515"/>
<circle cx="94.7049" cy="187.724" r="3.87674" fill="#FF4623"/>
<circle cx="110.213" cy="187.724" r="3.87674" fill="#151515"/>
</svg>
