<svg width="151" height="80" viewBox="0 0 151 80" fill="none" xmlns="http://www.w3.org/2000/svg">
<g opacity="0.15" clip-path="url(#clip0_712_32453)">
<path d="M79.3722 -9.42518C79.3722 -0.525181 72.155 6.68959 63.2522 6.68959C54.3488 6.68959 47.1319 -0.525183 47.1319 -9.42518C47.1319 -18.3249 54.3488 -25.54 63.2522 -25.54C72.155 -25.54 79.3722 -18.3249 79.3722 -9.42518Z" stroke="#FF4623" stroke-width="1.98246"/>
<path d="M37.0835 -4.14571C39.0009 -4.51598 40.9086 -3.60475 41.8139 -1.90904V-1.8789L41.9118 -1.67526C42.7053 -0.0251684 42.3605 1.95454 41.0791 3.26887C41.0786 3.26936 41.0781 3.26986 41.0776 3.27035L-12.0933 57.286C-12.0935 57.2862 -12.0937 57.2864 -12.094 57.2867C-14.2918 59.5131 -18.1103 57.9552 -18.1103 54.8111V9.7564C-18.1103 8.07945 -16.9199 6.64166 -15.3012 6.30419C-15.3001 6.30395 -15.2989 6.30371 -15.2978 6.30346L37.0809 -4.14522C37.0818 -4.14538 37.0826 -4.14554 37.0835 -4.14571Z" stroke="#FF4623" stroke-width="1.98246"/>
<path d="M44.9009 10.9288L44.6516 11.2566L0.835751 68.8764C-1.88066 72.453 0.672051 77.5801 5.13663 77.5801H26.6728C29.0623 77.5801 31.1396 76.0592 31.833 73.7812L31.8357 73.7722L50.5523 14.3131L44.9009 10.9288ZM44.9009 10.9288C45.9646 9.86074 47.5984 9.59792 48.9573 10.3182L44.9009 10.9288ZM48.9575 10.3183C50.3622 11.0655 51.0405 12.7561 50.5526 14.3122L48.9575 10.3183Z" stroke="#FF4623" stroke-width="1.98246"/>
<path d="M79.2022 71.1L79.203 71.1032C80.0257 74.4269 77.4904 77.6243 74.0962 77.6243H53.5389C50.2785 77.6243 47.8077 74.6961 48.3679 71.4655C48.3679 71.4653 48.3679 71.4651 48.368 71.465L57.9077 16.6593L57.9505 16.6165L58.0021 16.3017C58.313 14.406 59.9635 13.0225 61.9185 13.0225C63.7297 13.0225 65.3318 14.2735 65.7722 16.0644C65.7722 16.0646 65.7723 16.0648 65.7724 16.065L79.2022 71.1Z" stroke="#FF4623" stroke-width="1.98246"/>
<path d="M99.2489 72.2949L76.2022 15.2242L76.2204 15.212C75.2343 12.8462 76.1202 10.0691 78.3044 8.67909L78.3044 8.6791L78.3081 8.67677C79.6933 7.78677 81.4459 7.58856 82.9958 8.14879L82.9994 8.15007L144.162 29.9931L144.162 29.9931C147.601 31.2207 149.887 34.4853 149.887 38.1406V69.4561C149.887 74.2692 145.951 78.1648 141.142 78.0942L141.139 78.0942L107.19 77.7034L107.189 77.7034C103.673 77.6677 100.548 75.5249 99.2494 72.2963L99.2489 72.2949Z" stroke="#FF4623" stroke-width="1.98246"/>
<path d="M92.0447 -1.39599L92.0447 -1.39608L92.0315 -1.39824C89.9608 -1.73804 88.5527 -3.72141 88.8937 -5.81348C89.1779 -7.44356 90.4629 -8.74425 92.0979 -8.99123L92.0979 -8.99121L92.1053 -8.99238L147.316 -17.7606L147.317 -17.7607C148.676 -17.9781 149.889 -16.9517 149.889 -15.5686V6.23465C149.889 7.60967 148.611 8.67305 147.258 8.42937L147.256 8.42901L92.0447 -1.39599ZM91.871 -0.420092L147.082 9.40491L87.9163 -5.97834C87.4858 -3.35559 89.2475 -0.850592 91.871 -0.420092Z" stroke="#FF4623" stroke-width="1.98246"/>
</g>
<defs>
<clipPath id="clip0_712_32453">
<rect width="171" height="171" fill="white" transform="translate(-20 -91)"/>
</clipPath>
</defs>
</svg>
