<svg width="80" height="80" viewBox="0 0 80 80" fill="none" xmlns="http://www.w3.org/2000/svg">
<path opacity="0.146" d="M6.25 7.49365V72.4937H56.25V19.9937H43.75V7.49365H6.25Z" fill="black"/>
<path opacity="0.97" d="M8.75 4.99365V69.9937H58.75V17.4937L46.25 4.99365H8.75Z" fill="#FF836C"/>
<path fill-rule="evenodd" clip-rule="evenodd" d="M46.25 4.99365V17.4937H58.75" fill="#FFC6BB"/>
<path d="M13.75 16.2437H41.25M13.75 23.7437H48.75M13.75 31.2437H48.75" stroke="#FFECE9" stroke-width="0.15625"/>
<path opacity="0.15" d="M70.878 22.8562C71.2273 23.2039 71.5046 23.6171 71.6937 24.0723C71.8829 24.5275 71.9803 25.0155 71.9803 25.5085C71.9803 26.0014 71.8829 26.4898 71.6937 26.9449C71.5046 27.4001 71.2273 27.8133 70.878 28.1611L68.228 30.8112L29.3355 69.7037L18.7305 73.2386L69.9955 21.9736L70.878 22.8562Z" fill="black"/>
<path opacity="0.15" d="M69.1105 21.0879C68.7628 20.7389 68.3496 20.462 67.8946 20.2731C67.4397 20.0841 66.9519 19.9868 66.4592 19.9868C65.9666 19.9868 65.4788 20.0841 65.0238 20.2731C64.5689 20.462 64.1557 20.7389 63.808 21.0879L61.158 23.7405L22.2655 62.6302L18.7305 73.2379L69.9955 21.9729L69.1105 21.0879Z" fill="black"/>
<path d="M62.9277 25.5063L69.9988 32.5774L31.1079 71.4683L24.0369 64.3972L62.9277 25.5063Z" fill="#F05542"/>
<path d="M24.035 64.3986L31.105 71.471L20.5 75.0062L24.035 64.3986ZM62.925 25.5085L65.575 22.8586C65.9227 22.5093 66.3361 22.2321 66.7913 22.0429C67.2465 21.8537 67.7346 21.7563 68.2275 21.7563C68.7204 21.7563 69.2085 21.8537 69.6637 22.0429C70.1189 22.2321 70.5323 22.5093 70.88 22.8586L72.6475 24.6238C72.9969 24.9715 73.2741 25.3847 73.4633 25.8399C73.6524 26.2951 73.7498 26.7831 73.7498 27.2761C73.7498 27.769 73.6524 28.257 73.4633 28.7122C73.2741 29.1674 72.9969 29.5809 72.6475 29.9286L69.9975 32.5785L62.925 25.5085Z" fill="#FDE3BC"/>
<path d="M27.5723 67.9384L66.4623 29.0459" stroke="#FF4623" stroke-width="0.15625"/>
<path d="M21.3825 72.3555L20.5 75.0081L23.15 74.123L21.3825 72.3555Z" fill="#FF4623"/>
<path d="M62.9277 25.5063L69.9988 32.5774L68.231 34.3452L61.16 27.2741L62.9277 25.5063Z" fill="#FF4623"/>
</svg>
