<svg width="24" height="24" viewBox="0 0 24 24" fill="none" xmlns="http://www.w3.org/2000/svg">
<path d="M11.542 16.314C11.0287 16.3047 10.5293 16.2627 10.044 16.188C9.55867 16.104 9.16667 15.992 8.868 15.852V14.662C9.18533 14.8113 9.59133 14.942 10.086 15.054C10.5807 15.166 11.066 15.2267 11.542 15.236V12.408C11.0847 12.2773 10.6833 12.1373 10.338 11.988C10.002 11.8293 9.72667 11.652 9.512 11.456C9.29733 11.26 9.134 11.036 9.022 10.784C8.91933 10.5227 8.868 10.224 8.868 9.888C8.868 9.43067 8.97533 9.03867 9.19 8.712C9.414 8.38533 9.72667 8.12867 10.128 7.942C10.5293 7.746 11.0007 7.634 11.542 7.606V6.374H12.438V7.592C12.9327 7.60133 13.3807 7.65733 13.782 7.76C14.1927 7.85333 14.566 7.97 14.902 8.11L14.524 9.146C14.2253 9.02467 13.894 8.922 13.53 8.838C13.1753 8.74467 12.8113 8.684 12.438 8.656V11.47C13.054 11.6473 13.5673 11.8387 13.978 12.044C14.3887 12.24 14.6967 12.4873 14.902 12.786C15.1167 13.0753 15.224 13.4533 15.224 13.92C15.224 14.5733 14.9813 15.1053 14.496 15.516C14.0107 15.9173 13.3247 16.1647 12.438 16.258V17.812H11.542V16.314ZM12.438 15.166C12.9887 15.11 13.39 14.984 13.642 14.788C13.894 14.5827 14.02 14.3213 14.02 14.004C14.02 13.7707 13.9733 13.5793 13.88 13.43C13.7867 13.2713 13.6233 13.136 13.39 13.024C13.166 12.912 12.8487 12.8047 12.438 12.702V15.166ZM11.542 8.684C11.206 8.70267 10.9307 8.76333 10.716 8.866C10.5013 8.95933 10.338 9.08533 10.226 9.244C10.1233 9.40267 10.072 9.58467 10.072 9.79C10.072 10.0327 10.114 10.2427 10.198 10.42C10.2913 10.588 10.4453 10.7327 10.66 10.854C10.8747 10.966 11.1687 11.0687 11.542 11.162V8.684Z" fill="#151515"/>
<rect x="0.5" y="0.5" width="23" height="23" rx="11.5" stroke="#151515"/>
</svg>
