<svg width="13" height="15" viewBox="0 0 13 15" fill="none" xmlns="http://www.w3.org/2000/svg">
<path fill-rule="evenodd" clip-rule="evenodd" d="M6.6512 0.704831C6.77507 0.686931 6.90088 0.686931 7.02475 0.704831C7.16751 0.72546 7.30035 0.775645 7.40584 0.815494L7.4341 0.826146L11.0206 2.17098C11.424 2.32159 11.7783 2.45386 12.0511 2.6943C12.2898 2.90464 12.4736 3.16995 12.5868 3.46728C12.7161 3.80717 12.7156 4.18532 12.7149 4.61593L12.7148 7.82984C12.7148 9.67558 11.711 11.2144 10.6259 12.3448C9.53353 13.4829 8.28369 14.2867 7.6228 14.6722L7.59604 14.6879C7.47543 14.7587 7.3189 14.8507 7.11181 14.8951C6.94239 14.9314 6.73356 14.9314 6.56414 14.8951C6.35707 14.8507 6.20052 14.7587 6.07992 14.6879L6.05315 14.6722C5.39226 14.2867 4.14243 13.4829 3.05005 12.3448C1.96494 11.2144 0.96111 9.67558 0.96111 7.82984L0.961023 4.61593C0.960399 4.18532 0.959852 3.80717 1.08919 3.46728C1.20233 3.16995 1.38619 2.90464 1.62486 2.6943C1.89769 2.45386 2.25196 2.32159 2.65537 2.17098L6.24185 0.826146L6.27012 0.815494C6.3756 0.775646 6.50844 0.725461 6.6512 0.704831ZM7.49095 3.91185C7.49095 3.55122 7.1986 3.25887 6.83796 3.25887C6.47733 3.25887 6.18498 3.55122 6.18498 3.91185V4.23835C5.10308 4.23835 4.22602 5.1154 4.22602 6.1973C4.22602 7.2792 5.10308 8.15626 6.18498 8.15626H7.49095C7.85158 8.15626 8.14393 8.44861 8.14393 8.80924C8.14393 9.16987 7.85158 9.46223 7.49095 9.46223H6.09791C5.88112 9.46223 5.6917 9.34051 5.59618 9.15863C5.42851 8.83934 5.03375 8.71644 4.71447 8.88411C4.39518 9.05178 4.27228 9.44654 4.43995 9.76583C4.75217 10.3603 5.37688 10.7682 6.09791 10.7682H6.18498V11.0947C6.18498 11.4553 6.47733 11.7477 6.83796 11.7477C7.1986 11.7477 7.49095 11.4553 7.49095 11.0947V10.7682C8.57285 10.7682 9.4499 9.89114 9.4499 8.80924C9.4499 7.72734 8.57285 6.85029 7.49095 6.85029H6.18498C5.82434 6.85029 5.53199 6.55793 5.53199 6.1973C5.53199 5.83667 5.82434 5.54432 6.18498 5.54432H7.57801C7.79481 5.54432 7.98423 5.66603 8.07974 5.84792C8.24742 6.1672 8.64217 6.2901 8.96146 6.12243C9.28074 5.95476 9.40365 5.56 9.23597 5.24072C8.92376 4.64619 8.29904 4.23835 7.57801 4.23835H7.49095V3.91185Z" fill="#B6B6B6"/>
</svg>
