<svg width="64" height="64" viewBox="0 0 64 64" fill="none" xmlns="http://www.w3.org/2000/svg">
<path d="M48.5537 40.7801C47.5123 39.7387 45.8238 39.7387 44.7824 40.7801C43.741 41.8215 43.741 43.5099 44.7824 44.5513L49.5635 49.3324L44.7824 54.1134C43.741 55.1548 43.741 56.8432 44.7824 57.8846C45.8238 58.926 47.5123 58.926 48.5537 57.8846L53.3347 53.1036L58.1158 57.8846C59.1572 58.926 60.8456 58.926 61.887 57.8846C62.9284 56.8432 62.9284 55.1548 61.887 54.1134L57.1059 49.3324L61.887 44.5513C62.9284 43.5099 62.9284 41.8215 61.887 40.7801C60.8456 39.7387 59.1572 39.7387 58.1158 40.7801L53.3347 45.5611L48.5537 40.7801Z" fill="#B6B6B6"/>
<path d="M30.927 3.15915C31.6358 3.01336 32.3669 3.01336 33.0758 3.15915C33.8952 3.32767 34.6276 3.73787 35.2098 4.06399L35.3685 4.15265C40.0696 6.76439 48.0224 11.1848 52.5061 13.6771C53.5948 14.2822 54.1391 14.5848 54.321 14.9846C54.4796 15.3333 54.4806 15.7332 54.3238 16.0826C54.1439 16.4834 53.6007 16.789 52.5142 17.4002L46.3033 20.8938L22.4024 7.61554L28.6343 4.15265L28.793 4.06399C29.3752 3.73787 30.1076 3.32767 30.927 3.15915Z" fill="#B6B6B6"/>
<path d="M16.9125 10.6667L40.8464 23.9633L33.0472 28.3504C32.6657 28.565 32.4749 28.6723 32.2727 28.7144C32.0937 28.7516 31.9089 28.7516 31.7299 28.7144C31.5277 28.6723 31.3369 28.565 30.9554 28.3504L11.4886 17.4002C10.402 16.7891 9.85878 16.4835 9.67891 16.0827C9.5221 15.7333 9.52312 15.3333 9.68169 14.9847C9.86359 14.5848 10.4079 14.2822 11.4966 13.6771L16.9125 10.6667Z" fill="#B6B6B6"/>
<path d="M58.6571 23.706C58.6561 22.5105 58.6556 21.9127 58.4035 21.5637C58.1836 21.2592 57.8453 21.0616 57.4721 21.0195C57.0442 20.9712 56.5222 21.2649 55.4781 21.8522L35.7555 32.9462C35.3596 33.1689 35.1616 33.2802 35.0176 33.4377C34.8901 33.5771 34.7937 33.742 34.7347 33.9214C34.668 34.1242 34.668 34.3513 34.668 34.8055V56.6062C34.668 57.7987 34.668 58.395 34.9188 58.7438C35.1375 59.0481 35.4743 59.2462 35.8465 59.2898C36.2731 59.3397 36.7928 59.0511 37.832 58.474C38.0208 58.3692 38.1152 58.3168 38.1762 58.2733C38.5639 57.9969 38.7226 57.6988 38.7352 57.2229C38.7372 57.1479 38.724 56.995 38.6977 56.6892C38.5022 54.4183 39.2734 52.08 41.0112 50.3422L42.021 49.3324L41.0112 48.3225C37.887 45.1983 37.887 40.133 41.0112 37.0088C44.1354 33.8846 49.2007 33.8846 52.3249 37.0088L53.3347 38.0186L54.3445 37.0088C55.1102 36.2432 55.9924 35.6652 56.934 35.2748C57.6858 34.9632 58.0618 34.8073 58.2366 34.6456C58.4211 34.4749 58.4954 34.3635 58.5823 34.1277C58.6646 33.9042 58.6644 33.5936 58.664 32.9724C58.6618 29.5363 58.6592 26.1481 58.6571 23.706Z" fill="#B6B6B6"/>
<path d="M26.1707 58.474C27.21 59.0511 27.7296 59.3397 28.1563 59.2898C28.5285 59.2462 28.8652 59.048 29.084 58.7438C29.3347 58.395 29.3347 57.7987 29.3347 56.6062V34.8056C29.3347 34.3514 29.3347 34.1243 29.2681 33.9215C29.2091 33.7421 29.1127 33.5772 28.9852 33.4379C28.8411 33.2803 28.6431 33.169 28.2473 32.9463L8.52468 21.8522C7.48059 21.2649 6.95854 20.9713 6.53069 21.0195C6.15743 21.0616 5.81921 21.2593 5.59927 21.5638C5.34716 21.9128 5.34666 22.5106 5.34566 23.7062C5.3415 28.6826 5.33472 37.5872 5.33472 42.8221L5.33425 43.0144C5.33169 43.7181 5.32846 44.6028 5.60398 45.4367C5.84218 46.1576 6.23156 46.8194 6.7461 47.3777C7.34121 48.0235 8.11614 48.4504 8.73247 48.7898L8.90093 48.8829C13.6508 51.5217 21.7271 56.0066 26.1707 58.474Z" fill="#B6B6B6"/>
</svg>
