<svg width="309" height="184" viewBox="0 0 309 184" fill="none" xmlns="http://www.w3.org/2000/svg">
<g opacity="0.4">
<path d="M169.046 161.725C169.046 180.05 154.274 194.897 136.063 194.897C117.85 194.897 103.079 180.05 103.079 161.725C103.079 143.4 117.85 128.552 136.063 128.552C154.274 128.552 169.046 143.4 169.046 161.725Z" stroke="#F1BAC1" stroke-width="1.47807"/>
<path d="M127.125 116.375L127.123 116.375C116.568 118.408 106.01 113.216 101.065 103.648C101.065 103.648 101.065 103.648 101.064 103.647L53.9162 11.847C53.9161 11.8468 53.916 11.8466 53.9159 11.8464C51.3076 6.74112 54.9789 0.739035 60.5889 0.739035H171.248C176.515 0.739035 180.179 6.04102 178.35 10.9961L178.349 10.9968L145.244 100.937L145.243 100.939C142.322 108.922 135.433 114.794 127.125 116.375Z" stroke="#F1BAC1" stroke-width="1.47807"/>
<path d="M98.8793 124.046L98.8798 124.047C100.376 126.166 100.166 129.025 98.342 130.859L98.333 130.869C96.4336 132.847 93.3947 133.043 91.3063 131.35L91.2984 131.344L-20.75 42.955L-20.7543 42.9517C-23.9626 40.4585 -25.7933 36.5647 -25.7933 32.5159V31.7769H-25.8703V14.124C-25.8703 6.76811 -19.9467 0.81716 -12.6419 0.81716H5.26121C9.57686 0.81716 13.5943 2.87572 16.0778 6.40152L98.8793 124.046Z" stroke="#F1BAC1" stroke-width="1.47807"/>
<path d="M88.6358 145.376L88.6367 145.376C90.3991 146.331 91.4906 148.174 91.4906 150.236C91.4906 153.112 89.3134 155.509 86.4542 155.786C86.4524 155.786 86.4506 155.786 86.4488 155.786L-16.482 164.011L-16.4856 164.011C-21.5231 164.439 -25.7933 160.446 -25.7933 155.358V97.8549V97.5509L-25.8655 97.478C-25.6584 91.0657 -18.8128 87.0264 -13.0711 90.1239C-13.0708 90.1241 -13.0705 90.1243 -13.0702 90.1244L88.6358 145.376Z" stroke="#F1BAC1" stroke-width="1.47807"/>
<path d="M95.0415 176.323C93.0673 172.301 88.6717 170.126 84.2714 170.983C84.2708 170.983 84.2701 170.983 84.2695 170.983L-18.9721 191.7C-18.973 191.7 -18.9739 191.701 -18.9749 191.701C-22.7218 192.484 -25.4836 195.829 -25.4836 199.746V289.065C-25.4836 296.405 -16.6356 300.02 -11.5486 294.835L95.0415 176.323ZM95.0415 176.323V176.399L95.1137 176.551C96.9063 180.3 96.1203 184.78 93.2449 187.745C93.2445 187.745 93.2441 187.745 93.2437 187.746L-11.5481 294.834L95.0415 176.323Z" stroke="#F1BAC1" stroke-width="1.47807"/>
<path d="M192.599 178.845L192.599 178.845L192.589 178.843C187.834 178.058 184.62 173.483 185.403 168.675C186.048 164.94 188.975 161.939 192.735 161.368L192.735 161.368L192.74 161.367L301.547 143.984L301.548 143.984C304.954 143.436 308.022 146.035 308.022 149.541V192.765C308.022 196.264 304.81 198.939 301.408 198.322L301.407 198.322L192.599 178.845Z" stroke="#F1BAC1" stroke-width="1.47807"/>
<path d="M182.431 140.937L182.45 140.922C180.234 137.371 181.89 132.614 185.859 131.142C185.859 131.142 185.86 131.142 185.861 131.142L295.744 91.1006L295.748 91.0991C301.737 88.8769 308.103 93.392 308.103 99.7961V115.394C308.103 119.923 304.889 123.73 300.456 124.522C300.455 124.522 300.455 124.522 300.455 124.522L189.265 143.998C186.575 144.412 183.901 143.252 182.431 140.937Z" stroke="#F1BAC1" stroke-width="1.47807"/>
<path d="M214.083 13.2113L163.73 110.84C163.73 110.841 163.729 110.842 163.729 110.843C161.879 114.495 162.81 118.917 165.994 121.408C168.486 123.341 171.745 123.762 174.573 122.482L174.574 122.481L294.647 68.3933L214.083 13.2113ZM214.083 13.2113L214.119 13.2199C218.005 5.62982 225.777 0.895285 234.298 0.895285H285.383C297.935 0.895285 308.104 11.1144 308.104 23.7473V47.4935C308.104 56.5152 302.794 64.7099 294.648 68.3929L214.083 13.2113Z" stroke="#F1BAC1" stroke-width="1.47807"/>
</g>
</svg>
