<svg width="24" height="24" viewBox="0 0 24 24" fill="none" xmlns="http://www.w3.org/2000/svg">
<path fill-rule="evenodd" clip-rule="evenodd" d="M2.29332 2.29289C2.68384 1.90237 3.31701 1.90237 3.70753 2.29289C9.71654 8.3019 15.7041 14.2894 21.7075 20.2929C22.0981 20.6834 22.0981 21.3166 21.7075 21.7071C21.317 22.0976 20.6838 22.0976 20.2933 21.7071L17.1396 18.5534C15.6947 19.3988 13.9721 20 12.0004 20C9.13874 20 6.80576 18.7353 5.07716 17.2926C3.35091 15.8518 2.16738 14.1857 1.57463 13.2472L1.55055 13.2092C1.43291 13.024 1.28018 12.7836 1.20298 12.4468C1.14065 12.1748 1.14067 11.825 1.20303 11.553C1.28028 11.2161 1.43345 10.9751 1.55139 10.7895L1.57567 10.7512C2.17804 9.79768 3.40133 8.07527 5.19578 6.60956L2.29332 3.70711C1.9028 3.31658 1.9028 2.68342 2.29332 2.29289ZM8.55435 9.96814C8.20259 10.5638 8.00043 11.2591 8.00043 11.9999C8.00043 14.2091 9.79129 15.9999 12.0004 15.9999C12.7413 15.9999 13.4366 15.7977 14.0322 15.446L12.5186 13.9324C12.3535 13.9765 12.1799 13.9999 12.0004 13.9999C10.8959 13.9999 10.0004 13.1045 10.0004 11.9999C10.0004 11.8204 10.0239 11.6468 10.068 11.4818L8.55435 9.96814Z" fill="#151515"/>
<path d="M15.9927 11.7496C15.8686 9.73992 14.2605 8.13182 12.2508 8.00771L8.79205 4.54897C9.77165 4.20697 10.8428 4 12.0004 4C14.8621 4 17.1951 5.26472 18.9237 6.70743C20.6499 8.14818 21.8335 9.81429 22.4262 10.7528L22.4503 10.7908C22.5679 10.976 22.7206 11.2163 22.7978 11.5532C22.8602 11.8251 22.8602 12.1749 22.7978 12.4468C22.7206 12.7837 22.5679 13.024 22.4503 13.2092L22.4262 13.2472C22.0027 13.9177 21.2777 14.9597 20.2685 16.0255L15.9927 11.7496Z" fill="#151515"/>
</svg>
