<svg width="29" height="30" viewBox="0 0 29 30" fill="none" xmlns="http://www.w3.org/2000/svg">
<g clip-path="url(#clip0_105_25239)">
<path d="M28.6488 14.9413C28.6488 13.7395 28.5513 12.8626 28.3403 11.9531H14.6172V17.3773H22.6723C22.51 18.7253 21.633 20.7554 19.6841 22.1195L19.6568 22.3011L23.9958 25.6624L24.2964 25.6924C27.0572 23.1427 28.6488 19.3911 28.6488 14.9413Z" fill="#4285F4"/>
<path d="M14.6198 29.2333C18.5661 29.2333 21.8791 27.934 24.299 25.6929L19.6867 22.12C18.4525 22.9807 16.7959 23.5816 14.6198 23.5816C10.7546 23.5816 7.47406 21.032 6.30465 17.5078L6.13324 17.5224L1.6215 21.014L1.5625 21.1781C3.96604 25.9527 8.90311 29.2333 14.6198 29.2333Z" fill="#34A853"/>
<path d="M6.30118 17.5074C5.99262 16.598 5.81405 15.6235 5.81405 14.6166C5.81405 13.6097 5.99262 12.6353 6.28495 11.7258L6.27677 11.5321L1.7085 7.98438L1.55903 8.05547C0.568417 10.0368 0 12.2618 0 14.6166C0 16.9715 0.568417 19.1963 1.55903 21.1777L6.30118 17.5074Z" fill="#FBBC05"/>
<path d="M14.6198 5.65159C17.3643 5.65159 19.2157 6.83713 20.2713 7.82786L24.3964 3.80023C21.863 1.44539 18.5661 0 14.6198 0C8.90311 0 3.96604 3.28052 1.5625 8.05513L6.28841 11.7255C7.47406 8.20135 10.7546 5.65159 14.6198 5.65159Z" fill="#EB4335"/>
</g>
<defs>
<clipPath id="clip0_105_25239">
<rect width="28.6645" height="29.3333" fill="white"/>
</clipPath>
</defs>
</svg>
