<svg width="17" height="18" viewBox="0 0 17 18" fill="none" xmlns="http://www.w3.org/2000/svg">
<path d="M3.92725 0.000223178L3.87696 0.000115696C3.69134 -0.00047175 3.45773 -0.00121106 3.23243 0.0631333C3.03734 0.118852 2.8543 0.210369 2.69267 0.333016C2.50601 0.474649 2.36644 0.661979 2.25554 0.810828L2.22545 0.851122L1.02258 2.45491C0.910941 2.60376 0.855121 2.67819 0.834304 2.74978C0.776176 2.94968 0.888007 3.17334 1.08281 3.24679C1.15257 3.27309 1.24673 3.27309 1.43505 3.27309H14.9284C15.1168 3.27309 15.2109 3.27309 15.2807 3.24678C15.4755 3.17334 15.5873 2.94968 15.5292 2.74978C15.5084 2.67819 15.4525 2.60376 15.3409 2.45491L14.138 0.851122L14.1079 0.810826C13.997 0.661982 13.8575 0.474639 13.6708 0.333016C13.5092 0.210369 13.3261 0.118852 13.131 0.0631333C12.9057 -0.00121106 12.6721 -0.00047175 12.4865 0.000115696L12.4362 0.000223178H3.92725Z" fill="#B6B6B6"/>
<path fill-rule="evenodd" clip-rule="evenodd" d="M16.3635 6.21851C16.3635 5.76029 16.3635 5.53118 16.2743 5.35616C16.1959 5.20221 16.0707 5.07705 15.9168 4.99861C15.7417 4.90943 15.5126 4.90943 15.0544 4.90943H1.30908C0.850855 4.90943 0.621744 4.90943 0.446728 4.99861C0.292778 5.07705 0.167614 5.20221 0.0891733 5.35616C-1.88971e-06 5.53118 -1.25596e-06 5.76029 9.50738e-09 6.21851L2.31434e-05 14.5952C8.51336e-06 15.0265 -3.60722e-06 15.3986 0.0250349 15.7051C0.0514626 16.0285 0.109811 16.3502 0.26755 16.6598C0.502873 17.1217 0.878366 17.4971 1.34021 17.7325C1.64979 17.8902 1.97151 17.9486 2.29497 17.975C2.60143 18 2.9735 18 3.40479 18L12.9587 18C13.39 18 13.762 18 14.0685 17.975C14.392 17.9486 14.7137 17.8902 15.0233 17.7325C15.4851 17.4972 15.8606 17.1217 16.0959 16.6598C16.2537 16.3502 16.312 16.0285 16.3384 15.7051C16.3635 15.3986 16.3635 15.0265 16.3635 14.5952L16.3635 6.21851ZM4.90905 7.36394C5.36091 7.36394 5.72722 7.73025 5.72722 8.18212C5.72722 8.83309 5.98582 9.45741 6.44613 9.91772C6.90644 10.378 7.53076 10.6366 8.18174 10.6366C8.83271 10.6366 9.45703 10.378 9.91734 9.91772C10.3777 9.45741 10.6363 8.83309 10.6363 8.18212C10.6363 7.73025 11.0026 7.36394 11.4544 7.36394C11.9063 7.36394 12.2726 7.73025 12.2726 8.18212C12.2726 9.26708 11.8416 10.3076 11.0744 11.0748C10.3072 11.842 9.2667 12.273 8.18174 12.273C7.09677 12.273 6.05625 11.842 5.28906 11.0748C4.52188 10.3076 4.09088 9.26708 4.09088 8.18212C4.09088 7.73025 4.45719 7.36394 4.90905 7.36394Z" fill="#B6B6B6"/>
</svg>
