<svg width="26" height="26" viewBox="0 0 26 26" fill="none" xmlns="http://www.w3.org/2000/svg">
<path fill-rule="evenodd" clip-rule="evenodd" d="M12.8 0C16.219 0 19.4333 1.33145 21.851 3.749C24.2686 6.16665 25.6 9.381 25.6 12.8C25.6 16.219 24.2686 19.4333 21.851 21.851C19.4333 24.2686 16.219 25.6 12.8 25.6C9.38095 25.6 6.1666 24.2686 3.749 21.851C1.3314 19.4333 0 16.219 0 12.8C0 9.381 1.3314 6.1666 3.749 3.749C6.16655 1.33145 9.38095 0 12.8 0ZM1.5 12.8C1.5 19.0308 6.56915 24.1 12.8 24.1C19.0308 24.1 24.1 19.0308 24.1 12.8C24.1 6.56915 19.0308 1.5 12.8 1.5C6.56915 1.5 1.5 6.56915 1.5 12.8Z" fill="black"/>
<path d="M18.9151 8.69225C18.6222 8.39945 18.1473 8.39945 17.8545 8.6923L11.2315 15.3152L7.74517 11.8289C7.45232 11.536 6.97742 11.536 6.68452 11.8289C6.39162 12.1217 6.39162 12.5966 6.68452 12.8895L10.7012 16.9062C10.8476 17.0526 11.0396 17.1258 11.2315 17.1258C11.4234 17.1258 11.6154 17.0526 11.7618 16.9062L18.9151 9.7529C19.208 9.46005 19.208 8.98515 18.9151 8.69225Z" fill="black"/>
</svg>
