<svg width="20" height="21" viewBox="0 0 20 21" fill="none" xmlns="http://www.w3.org/2000/svg">
<path d="M17.3651 4.69475C16.9395 4.26892 16.4342 3.93112 15.8779 3.70065C15.3217 3.47019 14.7255 3.35156 14.1235 3.35156C13.5214 3.35156 12.9252 3.47019 12.369 3.70065C11.8128 3.93112 11.3074 4.26892 10.8818 4.69475L9.99847 5.57808L9.11514 4.69475C8.25539 3.83501 7.08933 3.35201 5.87347 3.35201C4.65761 3.35201 3.49155 3.83501 2.6318 4.69475C1.77206 5.55449 1.28906 6.72056 1.28906 7.93642C1.28906 9.15228 1.77206 10.3183 2.6318 11.1781L3.51514 12.0614L9.99847 18.5447L16.4818 12.0614L17.3651 11.1781C17.791 10.7525 18.1288 10.2471 18.3592 9.69088C18.5897 9.13466 18.7083 8.53849 18.7083 7.93642C18.7083 7.33434 18.5897 6.73817 18.3592 6.18195C18.1288 5.62574 17.791 5.12038 17.3651 4.69475Z" stroke="#626262" stroke-width="2" stroke-linecap="round" stroke-linejoin="round"/>
</svg>
