<svg width="20" height="20" viewBox="0 0 20 20" fill="none" xmlns="http://www.w3.org/2000/svg">
<g id="Huge-icon/interface/outline/like">
<g id="Vector">
<path d="M5.0013 6.66667H3.33464C2.41416 6.66667 1.66797 7.41286 1.66797 8.33333V15.8333C1.66797 16.7538 2.41416 17.5 3.33464 17.5H5.0013C5.92178 17.5 6.66797 16.7538 6.66797 15.8333V8.33333C6.66797 7.41286 5.92178 6.66667 5.0013 6.66667Z" stroke="#151515" stroke-width="1.5" stroke-linecap="round" stroke-linejoin="round"/>
<path d="M5.0013 6.66667H3.33464C2.41416 6.66667 1.66797 7.41286 1.66797 8.33333V15.8333C1.66797 16.7538 2.41416 17.5 3.33464 17.5H5.0013C5.92178 17.5 6.66797 16.7538 6.66797 15.8333V8.33333C6.66797 7.41286 5.92178 6.66667 5.0013 6.66667Z" stroke="black" stroke-opacity="0.2" stroke-width="1.5" stroke-linecap="round" stroke-linejoin="round"/>
<path d="M5.0013 6.66667H3.33464C2.41416 6.66667 1.66797 7.41286 1.66797 8.33333V15.8333C1.66797 16.7538 2.41416 17.5 3.33464 17.5H5.0013C5.92178 17.5 6.66797 16.7538 6.66797 15.8333V8.33333C6.66797 7.41286 5.92178 6.66667 5.0013 6.66667Z" stroke="black" stroke-opacity="0.2" stroke-width="1.5" stroke-linecap="round" stroke-linejoin="round"/>
<path d="M5.0013 6.66667H3.33464C2.41416 6.66667 1.66797 7.41286 1.66797 8.33333V15.8333C1.66797 16.7538 2.41416 17.5 3.33464 17.5H5.0013C5.92178 17.5 6.66797 16.7538 6.66797 15.8333V8.33333C6.66797 7.41286 5.92178 6.66667 5.0013 6.66667Z" stroke="black" stroke-opacity="0.2" stroke-width="1.5" stroke-linecap="round" stroke-linejoin="round"/>
<path d="M13.232 17.5H10.1772C9.51914 17.5 8.87578 17.3052 8.32822 16.9402L7.03905 16.0807C6.80722 15.9262 6.66797 15.666 6.66797 15.3873V8.55464C6.66797 8.40961 6.70581 8.2671 6.77777 8.14119L10.0013 2.5H11.1086C12.7725 2.5 13.765 4.35447 12.842 5.73896L11.668 7.5H16.2C17.2843 7.5 18.0799 8.51898 17.8169 9.57089L16.4659 14.9751C16.0949 16.459 14.7616 17.5 13.232 17.5Z" stroke="#151515" stroke-width="1.5" stroke-linecap="round" stroke-linejoin="round"/>
<path d="M13.232 17.5H10.1772C9.51914 17.5 8.87578 17.3052 8.32822 16.9402L7.03905 16.0807C6.80722 15.9262 6.66797 15.666 6.66797 15.3873V8.55464C6.66797 8.40961 6.70581 8.2671 6.77777 8.14119L10.0013 2.5H11.1086C12.7725 2.5 13.765 4.35447 12.842 5.73896L11.668 7.5H16.2C17.2843 7.5 18.0799 8.51898 17.8169 9.57089L16.4659 14.9751C16.0949 16.459 14.7616 17.5 13.232 17.5Z" stroke="black" stroke-opacity="0.2" stroke-width="1.5" stroke-linecap="round" stroke-linejoin="round"/>
<path d="M13.232 17.5H10.1772C9.51914 17.5 8.87578 17.3052 8.32822 16.9402L7.03905 16.0807C6.80722 15.9262 6.66797 15.666 6.66797 15.3873V8.55464C6.66797 8.40961 6.70581 8.2671 6.77777 8.14119L10.0013 2.5H11.1086C12.7725 2.5 13.765 4.35447 12.842 5.73896L11.668 7.5H16.2C17.2843 7.5 18.0799 8.51898 17.8169 9.57089L16.4659 14.9751C16.0949 16.459 14.7616 17.5 13.232 17.5Z" stroke="black" stroke-opacity="0.2" stroke-width="1.5" stroke-linecap="round" stroke-linejoin="round"/>
<path d="M13.232 17.5H10.1772C9.51914 17.5 8.87578 17.3052 8.32822 16.9402L7.03905 16.0807C6.80722 15.9262 6.66797 15.666 6.66797 15.3873V8.55464C6.66797 8.40961 6.70581 8.2671 6.77777 8.14119L10.0013 2.5H11.1086C12.7725 2.5 13.765 4.35447 12.842 5.73896L11.668 7.5H16.2C17.2843 7.5 18.0799 8.51898 17.8169 9.57089L16.4659 14.9751C16.0949 16.459 14.7616 17.5 13.232 17.5Z" stroke="black" stroke-opacity="0.2" stroke-width="1.5" stroke-linecap="round" stroke-linejoin="round"/>
</g>
</g>
</svg>
