<svg width="16" height="17" viewBox="0 0 16 17" fill="none" xmlns="http://www.w3.org/2000/svg">
<path fill-rule="evenodd" clip-rule="evenodd" d="M4 6.1875C4 3.97836 5.79086 2.1875 8 2.1875C10.2091 2.1875 12 3.97836 12 6.1875V6.95438C12.1884 6.99567 12.3692 7.05578 12.544 7.14482C13.0457 7.40048 13.4537 7.80843 13.7094 8.31019C13.8742 8.63375 13.9399 8.97822 13.9705 9.35295C14 9.71374 14 10.1566 14 10.6933V11.6817C14 12.2184 14 12.6613 13.9705 13.0221C13.9399 13.3968 13.8742 13.7413 13.7094 14.0648C13.4537 14.5666 13.0457 14.9745 12.544 15.2302C12.2204 15.395 11.8759 15.4608 11.5012 15.4914C11.1404 15.5208 10.6975 15.5208 10.1609 15.5208H5.83915C5.3025 15.5208 4.85958 15.5208 4.49878 15.4914C4.12405 15.4608 3.77958 15.395 3.45603 15.2302C2.95426 14.9745 2.54631 14.5666 2.29065 14.0648C2.12579 13.7413 2.06008 13.3968 2.02946 13.0221C1.99999 12.6613 1.99999 12.2183 2 11.6817V10.6933C1.99999 10.1567 1.99999 9.71374 2.02946 9.35295C2.06008 8.97822 2.12579 8.63375 2.29065 8.31019C2.54631 7.80843 2.95426 7.40048 3.45603 7.14482C3.63076 7.05578 3.8116 6.99567 4 6.95438V6.1875ZM10.6667 6.1875V6.85525H5.33333V6.1875C5.33333 4.71474 6.52724 3.52083 8 3.52083C9.47276 3.52083 10.6667 4.71474 10.6667 6.1875ZM8.66667 10.5208C8.66667 10.1526 8.36819 9.85417 8 9.85417C7.63181 9.85417 7.33333 10.1526 7.33333 10.5208V11.8542C7.33333 12.2224 7.63181 12.5208 8 12.5208C8.36819 12.5208 8.66667 12.2224 8.66667 11.8542V10.5208Z" fill="#151515"/>
</svg>
