<svg width="125" height="24" viewBox="0 0 125 24" fill="none" xmlns="http://www.w3.org/2000/svg">
<g clip-path="url(#clip0_105_24761)">
<path d="M16.2449 16.8422C16.2449 22.0075 12.3027 23.9935 8.09823 23.9935C5.7159 23.9935 2.91525 23.3077 1.41212 22.2717L2.4331 20.1357C3.69516 20.9716 5.54573 21.6074 7.80752 21.6074C11.4306 21.6074 13.4018 20.1786 13.4018 17.2565V16.0064C12.161 17.7996 9.77859 18.8854 7.24739 18.8854C2.84434 18.8854 0.0507812 16.1064 0.0507812 11.7841C0.0507812 7.46191 2.85142 4.63281 7.24739 4.63281C9.97002 4.63281 12.161 5.71158 13.4018 7.53334V5.12576H16.2449V16.8493V16.8422ZM13.4018 13.6487V9.89097C12.09 7.80483 10.2395 6.9904 7.99896 6.9904C4.6878 6.9904 2.84435 8.73357 2.84435 11.7841C2.84435 14.8347 4.69489 16.5564 7.99896 16.5564C10.2395 16.5564 12.0829 15.742 13.4018 13.6559V13.6487Z" fill="#231F20"/>
<path d="M20.2617 1.67062C20.2617 0.734735 21.0417 0.0703125 22.0839 0.0703125C23.1263 0.0703125 23.8849 0.734735 23.8849 1.67062C23.8849 2.5565 23.1333 3.27091 22.0839 3.27091C21.0346 3.27091 20.2617 2.5565 20.2617 1.67062ZM23.5232 18.5809H20.7013V5.10696H23.5232V18.5809Z" fill="#231F20"/>
<path d="M27.9258 18.5846V5.1108H30.7689V7.71842C31.9389 5.80378 34.1226 4.625 36.8524 4.625C40.915 4.625 42.9359 7.25405 42.9359 10.8904V18.5846H40.1139V11.0905C40.1139 8.43284 38.7739 7.01116 36.1292 7.01116C33.8461 7.01116 31.9246 8.08992 30.776 10.3046V18.5919H27.9328L27.9258 18.5846Z" fill="#231F20"/>
<path d="M62.4598 16.8422C62.4598 22.0075 58.5176 23.9935 54.3131 23.9935C51.9307 23.9935 49.1301 23.3077 47.627 22.2717L48.648 20.1357C49.91 20.9716 51.7606 21.6074 54.0224 21.6074C57.6455 21.6074 59.6166 20.1786 59.6166 17.2565V16.0064C58.3758 17.7996 55.9935 18.8854 53.4622 18.8854C49.0592 18.8854 46.2656 16.1064 46.2656 11.7841C46.2656 7.46191 49.0592 4.63281 53.4622 4.63281C56.1849 4.63281 58.3758 5.71158 59.6166 7.53334V5.12576H62.4598V16.8493V16.8422ZM59.6166 13.6487V9.89097C58.3048 7.80483 56.4543 6.9904 54.2209 6.9904C50.9097 6.9904 49.0663 8.73357 49.0663 11.7841C49.0663 14.8347 50.9169 16.5564 54.2209 16.5564C56.4614 16.5564 58.3048 15.742 59.6166 13.6559V13.6487Z" fill="#231F20"/>
<path d="M74.4312 16.8388C76.8845 16.8388 78.4159 16.203 79.8765 14.8956L81.5285 16.6889C79.7064 18.3391 77.3949 19.0964 74.2823 19.0964C68.9576 19.0964 65.8945 16.2959 65.8945 11.8665C65.8945 7.43713 68.9576 4.59375 74.0909 4.59375C78.8839 4.59375 81.9966 7.12277 81.9966 11.845C81.9966 12.1666 81.9753 12.338 81.9256 12.481H68.6952C68.9646 15.4029 71.0775 16.8317 74.4383 16.8317L74.4312 16.8388ZM68.8157 10.4449L79.2455 10.4234C78.6357 7.9658 76.7427 6.85843 74.1122 6.85843C71.3186 6.85843 69.3475 8.06582 68.8087 10.4449H68.8157Z" fill="#231F20"/>
<path d="M85.2969 18.5813V5.10742H88.14V8.1794C89.2107 6.01472 91.6923 4.83594 94.4362 4.83594V7.34355C91.4654 7.34355 89.0334 8.59377 88.14 11.13V18.5813H85.2969Z" fill="#231F20"/>
<path d="M112.71 13.948C114.03 13.948 115.099 12.8701 115.099 11.5404C115.099 10.2107 114.03 9.13281 112.71 9.13281C111.39 9.13281 110.32 10.2107 110.32 11.5404C110.32 12.8701 111.39 13.948 112.71 13.948Z" fill="#EA4624"/>
<path d="M106.846 0.937996L110.185 7.45347C110.546 8.15361 111.319 8.53223 112.085 8.38221C112.695 8.2679 113.198 7.83926 113.411 7.25344L115.751 0.86655C115.893 0.480764 115.609 0.0664062 115.198 0.0664062H107.363C106.923 0.0664062 106.639 0.537916 106.838 0.930844L106.846 0.937996Z" fill="#EA4624"/>
<path d="M101.18 2.37074V1.06336C101.18 0.513262 101.619 0.0703125 102.165 0.0703125H103.434C103.753 0.0703125 104.058 0.227482 104.242 0.491816L110.106 8.83622C110.227 9.00768 110.206 9.23629 110.063 9.38632C109.907 9.54349 109.666 9.55777 109.496 9.42202L101.562 3.14945C101.321 2.9637 101.186 2.6708 101.186 2.36361L101.18 2.37074Z" fill="#EA4624"/>
<path d="M101.18 7.00767C101.18 6.50043 101.718 6.17894 102.158 6.4147L109.361 10.3369C109.504 10.4154 109.596 10.5655 109.596 10.7297C109.596 10.9656 109.418 11.1584 109.192 11.1727L101.903 11.7585C101.513 11.7871 101.186 11.4799 101.186 11.087V7.00052L101.18 7.00767Z" fill="#EA4624"/>
<path d="M109.851 12.5745C109.985 12.8603 109.928 13.2032 109.708 13.4319L102.285 21.0333C101.888 21.4405 101.207 21.1547 101.207 20.5903V14.2534C101.207 13.9533 101.42 13.6891 101.711 13.6319L109.021 12.1602C109.361 12.0888 109.701 12.2674 109.851 12.5817V12.5745Z" fill="#EA4624"/>
<path d="M110.002 14.3742L103.89 22.4828C103.444 23.0758 103.862 23.933 104.607 23.933H107.613C108.003 23.933 108.35 23.6758 108.463 23.3043L111.081 14.9385C111.165 14.6599 111.045 14.3527 110.789 14.2098C110.527 14.067 110.194 14.1384 110.01 14.3813L110.002 14.3742Z" fill="#EA4624"/>
<path d="M111.83 15.1483L110.49 22.8997C110.397 23.4355 110.808 23.9285 111.348 23.9285H114.212C114.779 23.9285 115.191 23.3926 115.063 22.8426L113.183 15.0983C113.106 14.784 112.829 14.5625 112.51 14.5625C112.17 14.5625 111.886 14.8053 111.83 15.1411V15.1483Z" fill="#EA4624"/>
<path d="M114.382 15.0536L117.6 23.0837C117.806 23.591 118.288 23.9267 118.834 23.9339L123.57 23.9839C124.321 23.991 124.931 23.3838 124.931 22.6265V18.2185C124.931 17.647 124.577 17.1327 124.039 16.9398L115.502 13.8678C115.239 13.7749 114.956 13.8106 114.721 13.9534C114.36 14.1892 114.211 14.6465 114.375 15.0465L114.382 15.0536Z" fill="#EA4624"/>
<path d="M116.701 12.8104L124.408 14.1892C124.685 14.2393 124.94 14.0249 124.94 13.7463V10.6743C124.94 10.3957 124.692 10.1813 124.422 10.2242L116.722 11.4601C116.432 11.503 116.205 11.7317 116.162 12.0245C116.098 12.396 116.346 12.7461 116.715 12.8104H116.701Z" fill="#EA4624"/>
<path d="M115.942 10.0894C116.056 10.2751 116.269 10.3752 116.481 10.3322L124.352 8.94628C124.691 8.88913 124.933 8.58906 124.933 8.24615V7.13881C124.933 6.64586 124.45 6.30295 123.989 6.47441L116.205 9.31777C115.893 9.43208 115.765 9.80354 115.935 10.0894H115.942Z" fill="#EA4624"/>
<path d="M118.185 0.973708L114.611 7.90356C114.47 8.18218 114.54 8.52509 114.788 8.71799C114.98 8.86802 115.236 8.8966 115.448 8.79658L123.949 4.95301C124.544 4.68154 124.934 4.08141 124.934 3.42415V1.73814C124.934 0.816541 124.19 0.0664062 123.276 0.0664062H119.659C119.036 0.0664062 118.469 0.416456 118.185 0.966557V0.973708Z" fill="#EA4624"/>
</g>
<defs>
<clipPath id="clip0_105_24761">
<rect width="125" height="24" fill="white"/>
</clipPath>
</defs>
</svg>
