<svg width="195" height="38" viewBox="0 0 195 38" fill="none" xmlns="http://www.w3.org/2000/svg">
<g clip-path="url(#clip0_955_7235)">
<path d="M25.3526 26.0271C25.3526 34.0251 19.2051 37.1096 12.6416 37.1096C8.92167 37.1096 4.55859 36.0437 2.20681 34.4415L3.80199 31.13C5.77545 32.423 8.65686 33.4134 12.1877 33.4134C17.8433 33.4134 20.9138 31.2057 20.9138 26.6767V24.734C18.9781 27.5156 15.2582 29.1871 11.3113 29.1871C4.4451 29.1871 0.0820312 24.8853 0.0820312 18.1803C0.0820312 11.4752 4.4451 7.09766 11.3113 7.09766C15.5609 7.09766 18.9781 8.7755 20.9138 11.5887V7.85459H25.3526V26.0144V26.0271ZM20.9138 21.0755V15.2473C18.8647 12.0113 15.9833 10.7561 12.4903 10.7561C7.33279 10.7561 4.4451 13.4621 4.4451 18.1803C4.4451 22.8985 7.32649 25.5665 12.4903 25.5665C15.9833 25.5665 18.8647 24.3114 20.9138 21.0755Z" fill="#F1F2F2"/>
<path d="M31.6094 2.53608C31.6094 1.09162 32.8262 0.0634766 34.453 0.0634766C36.0796 0.0634766 37.2586 1.09162 37.2586 2.53608C37.2586 3.90485 36.0796 5.0087 34.453 5.0087C32.8262 5.0087 31.6094 3.90485 31.6094 2.53608ZM36.6912 28.7319H32.2903V7.86609H36.6912V28.7319Z" fill="#F1F2F2"/>
<path d="M43.5586 28.7336V7.86771H47.9972V11.9046C49.8194 8.93372 53.2305 7.10449 57.48 7.10449C63.8165 7.10449 66.969 11.1793 66.969 16.812V28.7272H62.5681V17.1148C62.5681 13.0022 60.4812 10.7945 56.3451 10.7945C52.7765 10.7945 49.7815 12.4723 47.9972 15.8974V28.7272H43.5586V28.7336Z" fill="#F1F2F2"/>
<path d="M97.4424 26.0271C97.4424 34.0251 91.295 37.1096 84.7315 37.1096C81.0115 37.1096 76.6484 36.0437 74.2968 34.4415L75.8918 31.13C77.8654 32.423 80.7467 33.4134 84.2776 33.4134C89.9332 33.4134 93.0036 31.2057 93.0036 26.6767V24.734C91.068 27.5156 87.348 29.1871 83.4012 29.1871C76.535 29.1871 72.1719 24.8853 72.1719 18.1803C72.1719 11.4752 76.535 7.09766 83.4012 7.09766C87.6507 7.09766 91.068 8.7755 93.0036 11.5887V7.85459H97.4424V26.0144V26.0271ZM93.0036 21.0755V15.2473C90.9546 12.0113 88.0732 10.7561 84.5801 10.7561C79.4227 10.7561 76.535 13.4621 76.535 18.1803C76.535 22.8985 79.4163 25.5665 84.5801 25.5665C88.0732 25.5665 90.9546 24.3114 93.0036 21.0755Z" fill="#F1F2F2"/>
<path d="M116.113 26.0263C119.946 26.0263 122.336 25.036 124.612 23.0176L127.191 25.7992C124.347 28.3475 120.741 29.5334 115.886 29.5334C107.576 29.5334 102.797 25.1937 102.797 18.3373C102.797 11.4808 107.576 7.06543 115.583 7.06543C123.061 7.06543 127.916 10.9888 127.916 18.2994C127.916 18.7977 127.878 19.0626 127.802 19.2898H107.16C107.576 23.8186 110.88 26.0263 116.113 26.0263ZM107.349 16.1296L123.629 16.0917C122.683 12.2819 119.719 10.5725 115.621 10.5725C111.258 10.5725 108.181 12.4396 107.349 16.1296Z" fill="#F1F2F2"/>
<path d="M133.07 28.7318V7.86599H137.509V12.622C139.18 9.2726 143.051 7.44336 147.339 7.44336V11.3289C142.711 11.3289 138.915 13.2717 137.509 17.1951V28.7318H133.07Z" fill="#F1F2F2"/>
<path d="M175.826 21.5611C177.888 21.5611 179.558 19.8893 179.558 17.8269C179.558 15.7647 177.888 14.0928 175.826 14.0928C173.766 14.0928 172.094 15.7647 172.094 17.8269C172.094 19.8893 173.766 21.5611 175.826 21.5611Z" fill="#EF4623"/>
<path d="M166.678 1.40116L171.885 11.4935C172.447 12.5784 173.65 13.165 174.848 12.9379C175.794 12.755 176.582 12.0927 176.916 11.1844L180.574 1.29392C180.795 0.694688 180.352 0.0576172 179.716 0.0576172H167.491C166.804 0.0576172 166.363 0.782999 166.678 1.39484V1.40116Z" fill="#EF4623"/>
<path d="M157.852 3.62777V1.60301C157.852 0.751471 158.545 0.0576172 159.395 0.0576172H161.369C161.868 0.0576172 162.341 0.303616 162.631 0.707308L171.778 13.6381C171.968 13.903 171.937 14.2625 171.71 14.4896C171.47 14.7356 171.085 14.7608 170.82 14.5464L158.444 4.83255C158.072 4.54239 157.852 4.09454 157.852 3.62146V3.62777Z" fill="#EF4623"/>
<path d="M157.851 10.806C157.851 10.0175 158.69 9.51918 159.383 9.89134L170.618 15.9593C170.838 16.0791 170.977 16.3126 170.977 16.5649C170.977 16.9244 170.701 17.2209 170.341 17.2524L158.966 18.1607C158.362 18.2111 157.844 17.7318 157.844 17.1263V10.7996L157.851 10.806Z" fill="#EF4623"/>
<path d="M171.374 19.4298C171.582 19.8714 171.495 20.4012 171.147 20.7544L159.571 32.5309C158.953 33.1553 157.895 32.7201 157.895 31.8433V22.0285C157.895 21.5618 158.222 21.1582 158.683 21.0698L170.088 18.7928C170.617 18.6856 171.147 18.9567 171.38 19.4425L171.374 19.4298Z" fill="#EF4623"/>
<path d="M171.605 22.211L162.065 34.7697C161.366 35.6906 162.021 37.0152 163.175 37.0152H167.859C168.471 37.0152 169.007 36.6178 169.19 36.0374L173.27 23.0815C173.407 22.6463 173.212 22.1733 172.815 21.9524C172.4 21.7254 171.881 21.8388 171.597 22.2174L171.605 22.211Z" fill="#EF4623"/>
<path d="M174.463 23.4084L172.376 35.4182C172.231 36.2509 172.874 37.0141 173.719 37.0141H178.19C179.072 37.0141 179.721 36.1878 179.513 35.33L176.587 23.3391C176.468 22.8533 176.033 22.5127 175.534 22.5127C175.012 22.5127 174.557 22.8912 174.469 23.4084H174.463Z" fill="#EF4623"/>
<path d="M178.446 23.2694L183.47 35.7081C183.786 36.4966 184.548 37.0139 185.394 37.0201L192.789 37.1021C193.955 37.1148 194.915 36.1687 194.915 35.0017V28.1769C194.915 27.2873 194.359 26.4989 193.52 26.1962L180.204 21.4339C179.801 21.2889 179.354 21.3393 178.988 21.5727C178.42 21.9322 178.194 22.645 178.446 23.2632V23.2694Z" fill="#EF4623"/>
<path d="M182.064 19.7944L194.087 21.9327C194.516 22.0084 194.913 21.6805 194.913 21.2388V16.4892C194.913 16.0602 194.528 15.7259 194.099 15.7953L182.082 17.7128C181.635 17.7823 181.281 18.1354 181.206 18.5833C181.111 19.1574 181.496 19.6935 182.064 19.8007V19.7944Z" fill="#EF4623"/>
<path d="M180.877 15.5817C181.053 15.8718 181.387 16.0232 181.715 15.96L193.996 13.8154C194.521 13.7208 194.906 13.2667 194.906 12.7305V11.0148C194.906 10.2516 194.149 9.72176 193.43 9.98037L181.292 14.3831C180.807 14.5597 180.599 15.14 180.871 15.5817H180.877Z" fill="#EF4623"/>
<path d="M184.378 1.45747L178.81 12.1931C178.582 12.6221 178.703 13.1519 179.087 13.4547C179.384 13.6818 179.782 13.7322 180.121 13.5808L193.388 7.63269C194.32 7.21639 194.919 6.28916 194.919 5.26732V2.65593C194.919 1.22408 193.759 0.0634766 192.327 0.0634766H186.69C185.721 0.0634766 184.837 0.605938 184.39 1.46378L184.378 1.45747Z" fill="#EF4623"/>
</g>
<defs>
<clipPath id="clip0_955_7235">
<rect width="195" height="37.1572" fill="white"/>
</clipPath>
</defs>
</svg>
