<svg width="168" height="33" viewBox="0 0 168 33" fill="none" xmlns="http://www.w3.org/2000/svg">
<g clip-path="url(#clip0_209_585)">
<path d="M21.8502 22.701C21.8502 29.5881 16.554 32.2361 10.9053 32.2361C7.70472 32.2361 3.94211 31.3217 1.92269 29.9405L3.29434 27.0923C4.9899 28.2069 7.4761 29.0546 10.5148 29.0546C15.3823 29.0546 18.0305 27.1496 18.0305 23.2535V21.5866C16.3635 23.9775 13.1629 25.4253 9.76224 25.4253C3.84684 25.4253 0.09375 21.72 0.09375 15.957C0.09375 10.194 3.85636 6.42188 9.76224 6.42188C13.42 6.42188 16.3635 7.86024 18.0305 10.2892V7.07914H21.8502V22.7105V22.701ZM18.0305 18.4431V13.4327C16.2682 10.6512 13.7821 9.56533 10.772 9.56533C6.32349 9.56533 3.84685 11.8896 3.84685 15.957C3.84685 20.0244 6.33301 22.32 10.772 22.32C13.7821 22.32 16.2587 21.2341 18.0305 18.4527V18.4431Z" fill="#231F20"/>
<path d="M27.2422 2.47749C27.2422 1.22965 28.2901 0.34375 29.6903 0.34375C31.0906 0.34375 32.1098 1.22965 32.1098 2.47749C32.1098 3.65867 31.1001 4.61122 29.6903 4.61122C28.2805 4.61122 27.2422 3.65867 27.2422 2.47749ZM31.624 25.0245H27.8328V7.05928H31.624V25.0245Z" fill="#231F20"/>
<path d="M37.5391 25.023V7.0579H41.3588V10.5347C42.9305 7.98186 45.8644 6.41016 49.5318 6.41016C54.9899 6.41016 57.7048 9.91556 57.7048 14.764V25.023H53.9136V15.0308C53.9136 11.4873 52.1132 9.5917 48.5602 9.5917C45.4929 9.5917 42.9114 11.03 41.3683 13.983V25.0326H37.5486L37.5391 25.023Z" fill="#231F20"/>
<path d="M83.9362 22.701C83.9362 29.5881 78.6399 32.2361 72.9913 32.2361C69.7906 32.2361 66.028 31.3217 64.0086 29.9405L65.3803 27.0923C67.0758 28.2069 69.5621 29.0546 72.6008 29.0546C77.4683 29.0546 80.1165 27.1496 80.1165 23.2535V21.5866C78.4495 23.9775 75.2488 25.4253 71.8481 25.4253C65.9328 25.4253 62.1797 21.72 62.1797 15.957C62.1797 10.194 65.9328 6.42188 71.8481 6.42188C75.506 6.42188 78.4495 7.86024 80.1165 10.2892V7.07914H83.9362V22.7105V22.701ZM80.1165 18.4431V13.4327C78.3541 10.6512 75.868 9.56533 72.8674 9.56533C68.4189 9.56533 65.9423 11.8896 65.9423 15.957C65.9423 20.0244 68.4285 22.32 72.8674 22.32C75.8775 22.32 78.3541 21.2341 80.1165 18.4527V18.4431Z" fill="#231F20"/>
<path d="M100.016 22.6978C103.312 22.6978 105.369 21.8501 107.331 20.1069L109.551 22.4979C107.103 24.6982 103.997 25.7079 99.8157 25.7079C92.662 25.7079 88.5469 21.9739 88.5469 16.0681C88.5469 10.1623 92.662 6.37109 99.5585 6.37109C105.998 6.37109 110.18 9.74313 110.18 16.0395C110.18 16.4682 110.151 16.6968 110.084 16.8874H92.3095C92.6715 20.7833 95.5101 22.6883 100.025 22.6883L100.016 22.6978ZM92.4714 14.1726L106.484 14.1439C105.664 10.8672 103.121 9.39067 99.5871 9.39067C95.834 9.39067 93.1858 11.0005 92.4619 14.1726H92.4714Z" fill="#231F20"/>
<path d="M114.617 25.0225V7.05729H118.437V11.1533C119.875 8.26702 123.209 6.69531 126.896 6.69531V10.0388C122.904 10.0388 119.637 11.7058 118.437 15.0874V25.0225H114.617Z" fill="#231F20"/>
<path d="M151.445 18.8421C153.218 18.8421 154.654 17.4049 154.654 15.6319C154.654 13.8591 153.218 12.4219 151.445 12.4219C149.672 12.4219 148.234 13.8591 148.234 15.6319C148.234 17.4049 149.672 18.8421 151.445 18.8421Z" fill="#EA4624"/>
<path d="M143.566 1.49415L148.052 10.1814C148.537 11.115 149.576 11.6198 150.604 11.4198C151.424 11.2674 152.1 10.6958 152.387 9.91474L155.529 1.39889C155.721 0.884509 155.339 0.332031 154.787 0.332031H144.26C143.67 0.332031 143.289 0.960711 143.555 1.48462L143.566 1.49415Z" fill="#EA4624"/>
<path d="M135.961 3.41098V1.66781C135.961 0.934349 136.552 0.34375 137.285 0.34375H138.989C139.419 0.34375 139.828 0.553309 140.075 0.905754L147.953 12.0316C148.116 12.2602 148.087 12.5651 147.896 12.7651C147.686 12.9747 147.363 12.9937 147.134 12.8127L136.475 4.44927C136.151 4.2016 135.97 3.81107 135.97 3.40147L135.961 3.41098Z" fill="#EA4624"/>
<path d="M135.961 9.59096C135.961 8.91464 136.684 8.48598 137.275 8.80032L146.953 14.0299C147.144 14.1346 147.268 14.3347 147.268 14.5537C147.268 14.8681 147.03 15.1253 146.725 15.1443L136.933 15.9254C136.408 15.9635 135.97 15.5539 135.97 15.0301V9.58142L135.961 9.59096Z" fill="#EA4624"/>
<path d="M147.605 17.0108C147.785 17.3918 147.709 17.8491 147.413 18.154L137.44 28.2891C136.907 28.8321 135.992 28.4511 135.992 27.6986V19.2494C135.992 18.8493 136.278 18.4969 136.669 18.4206L146.49 16.4584C146.946 16.3631 147.404 16.6013 147.605 17.0204V17.0108Z" fill="#EA4624"/>
<path d="M147.809 19.4143L139.598 30.2257C138.998 31.0164 139.56 32.1594 140.561 32.1594H144.6C145.123 32.1594 145.59 31.8165 145.742 31.3211L149.258 20.1667C149.371 19.7953 149.21 19.3857 148.866 19.1951C148.514 19.0047 148.066 19.0999 147.819 19.4238L147.809 19.4143Z" fill="#EA4624"/>
<path d="M150.263 20.4412L148.463 30.7764C148.338 31.4908 148.891 32.1481 149.616 32.1481H153.463C154.226 32.1481 154.778 31.4337 154.607 30.7003L152.082 20.3746C151.978 19.9554 151.606 19.6602 151.178 19.6602C150.72 19.6602 150.339 19.9839 150.263 20.4317V20.4412Z" fill="#EA4624"/>
<path d="M153.692 20.3176L158.016 31.0243C158.293 31.7008 158.94 32.1484 159.674 32.158L166.036 32.2246C167.046 32.2341 167.865 31.4245 167.865 30.4148V24.5374C167.865 23.7754 167.389 23.0896 166.666 22.8325L155.197 18.7365C154.844 18.6126 154.463 18.6602 154.148 18.8507C153.663 19.1651 153.463 19.7748 153.683 20.3081L153.692 20.3176Z" fill="#EA4624"/>
<path d="M156.807 17.3266L167.162 19.165C167.534 19.2318 167.877 18.946 167.877 18.5745V14.4785C167.877 14.107 167.543 13.8212 167.181 13.8784L156.836 15.5263C156.445 15.5834 156.141 15.8883 156.084 16.2788C155.998 16.7742 156.331 17.2409 156.827 17.3266H156.807Z" fill="#EA4624"/>
<path d="M155.791 13.696C155.943 13.9436 156.23 14.077 156.515 14.0198L167.089 12.1719C167.545 12.0957 167.869 11.6956 167.869 11.2384V9.7619C167.869 9.10464 167.222 8.64742 166.602 8.87604L156.144 12.6672C155.725 12.8196 155.553 13.3149 155.781 13.696H155.791Z" fill="#EA4624"/>
<path d="M158.796 1.54177L153.995 10.7816C153.805 11.1531 153.9 11.6103 154.233 11.8675C154.491 12.0675 154.834 12.1056 155.119 11.9723L166.54 6.84751C167.34 6.48554 167.864 5.68537 167.864 4.80903V2.56101C167.864 1.33221 166.864 0.332031 165.636 0.332031H160.778C159.94 0.332031 159.178 0.798765 158.796 1.53223V1.54177Z" fill="#EA4624"/>
</g>
<defs>
<clipPath id="clip0_209_585">
<rect width="167.935" height="32" fill="white" transform="translate(0.0234375 0.246094)"/>
</clipPath>
</defs>
</svg>
