<svg width="162" height="32" viewBox="0 0 162 32" fill="none" xmlns="http://www.w3.org/2000/svg">
<path d="M21.8481 22.3789C21.8481 29.2691 16.5478 31.9282 10.8872 31.9282C7.68338 31.9282 3.91615 31.0113 1.89168 29.6294L3.26753 26.7737C4.97097 27.8872 7.45407 28.7452 10.5006 28.7452C15.3751 28.7452 18.0286 26.8392 18.0286 22.9356V21.2655C16.3578 23.6627 13.154 25.1036 9.75372 25.1036C3.83098 25.1036 0.0703125 21.3965 0.0703125 15.6197C0.0703125 9.84291 3.83098 6.07031 9.75372 6.07031C13.416 6.07031 16.3643 7.51123 18.0286 9.94115V6.72527H21.8546V22.3789H21.8481ZM18.0219 18.1151V13.0981C16.253 10.3079 13.7699 9.22723 10.7561 9.22723C6.30752 9.22723 3.81788 11.5589 3.81788 15.6262C3.81788 19.6936 6.30752 21.9924 10.7561 21.9924C13.7634 21.9924 16.253 20.9118 18.0219 18.1217V18.1151Z" fill="white"/>
<path d="M27.2422 2.13518C27.2422 0.890757 28.2904 0 29.699 0C31.1077 0 32.1231 0.884206 32.1231 2.13518C32.1231 3.31413 31.1077 4.27035 29.699 4.27035C28.2904 4.27035 27.2422 3.32068 27.2422 2.13518ZM31.6252 24.7053H27.8317V6.72647H31.6252V24.7053Z" fill="white"/>
<path d="M37.5469 24.7118V6.7331H41.3731V10.2109C42.9455 7.65004 45.8871 6.07812 49.556 6.07812C55.0203 6.07812 57.7391 9.58873 57.7391 14.4421V24.7118H53.9457V14.704C53.9457 11.1607 52.144 9.25471 48.5798 9.25471C45.5071 9.25471 42.9192 10.6956 41.3796 13.6495V24.7053H37.5534L37.5469 24.7118Z" fill="white"/>
<path d="M84.0044 22.3789C84.0044 29.2691 78.7041 31.9282 73.0433 31.9282C69.8396 31.9282 66.0723 31.0113 64.0479 29.6294L65.4237 26.7737C67.1272 27.8872 69.6103 28.7452 72.6568 28.7452C77.5312 28.7452 80.1847 26.8392 80.1847 22.9356V21.2655C78.5141 23.6627 75.3103 25.1036 71.9099 25.1036C65.9871 25.1036 62.2266 21.3965 62.2266 15.6197C62.2266 9.84291 65.9871 6.07031 71.9099 6.07031C75.5723 6.07031 78.5206 7.51123 80.1847 9.94115V6.72527H84.0109V22.3789H84.0044ZM80.1782 18.1151V13.0981C78.4091 10.3079 75.9261 9.22723 72.9123 9.22723C68.4637 9.22723 65.9741 11.5589 65.9741 15.6262C65.9741 19.6936 68.4637 21.9924 72.9123 21.9924C75.9196 21.9924 78.4091 20.9118 80.1782 18.1217V18.1151Z" fill="white"/>
<path d="M100.104 22.3805C103.406 22.3805 105.469 21.5289 107.435 19.7867L109.663 22.184C107.206 24.3846 104.1 25.3998 99.9136 25.3998C92.7461 25.3998 88.625 21.6599 88.625 15.7522C88.625 9.84439 92.7461 6.03906 99.6516 6.03906C106.098 6.03906 110.285 9.41868 110.285 15.7195C110.285 16.1451 110.252 16.3744 110.187 16.5709H92.3857C92.7461 20.4744 95.5895 22.3805 100.11 22.3805H100.104ZM92.5429 13.8528L106.577 13.82C105.758 10.5387 103.209 9.065 99.6711 9.065C95.9105 9.065 93.2571 10.6697 92.5364 13.8528H92.5429Z" fill="white"/>
<path d="M114.727 24.714V6.73522H118.553V10.8353C119.994 7.9469 123.329 6.375 127.031 6.375V9.72185C123.041 9.72185 119.765 11.392 118.553 14.7717V24.714H114.727Z" fill="white"/>
<path d="M147.254 16.6619C148.835 16.6619 150.117 15.3804 150.117 13.7997C150.117 12.2189 148.835 10.9375 147.254 10.9375C145.673 10.9375 144.391 12.2189 144.391 13.7997C144.391 15.3804 145.673 16.6619 147.254 16.6619Z" fill="white"/>
<path d="M140.221 1.17672L144.223 8.92494C144.656 9.75674 145.579 10.2087 146.503 10.0318C147.231 9.89429 147.833 9.38341 148.089 8.68914L150.9 1.09812C151.069 0.639649 150.729 0.148438 150.237 0.148438H140.843C140.319 0.148438 139.977 0.705141 140.221 1.17672Z" fill="white"/>
<path d="M133.438 2.89401V1.34173C133.438 0.686769 133.968 0.15625 134.623 0.15625H136.143C136.53 0.15625 136.89 0.339646 137.113 0.654028L144.143 10.5833C144.287 10.7863 144.267 11.0614 144.09 11.2382C143.907 11.4282 143.612 11.4478 143.409 11.2841L133.896 3.82405C133.608 3.60136 133.444 3.25424 133.444 2.89401H133.438Z" fill="white"/>
<path d="M133.438 8.40754C133.438 7.80498 134.08 7.41857 134.617 7.70674L143.252 12.3701C143.423 12.4618 143.527 12.6386 143.527 12.8351C143.527 13.1102 143.317 13.3395 143.043 13.3656L134.302 14.0599C133.837 14.0992 133.444 13.7324 133.444 13.2674V8.41409L133.438 8.40754Z" fill="white"/>
<path d="M143.827 15.0289C143.991 15.3695 143.918 15.7756 143.657 16.0441L134.76 25.0826C134.288 25.5607 133.469 25.2266 133.469 24.5521V17.0134C133.469 16.6533 133.725 16.3454 134.071 16.2733L142.838 14.5246C143.244 14.446 143.65 14.649 143.827 15.0224V15.0289Z" fill="white"/>
<path d="M144.005 17.1574L136.674 26.7984C136.137 27.5058 136.641 28.521 137.526 28.521H141.129C141.601 28.521 142.013 28.2197 142.152 27.7679L145.282 17.819C145.388 17.4849 145.244 17.1181 144.936 16.9544C144.615 16.7841 144.222 16.8693 143.999 17.1574H144.005Z" fill="white"/>
<path d="M146.199 18.0848L144.594 27.3067C144.482 27.9486 144.974 28.5315 145.623 28.5315H149.063C149.737 28.5315 150.241 27.8962 150.078 27.2347L147.83 18.0259C147.739 17.6525 147.405 17.3906 147.025 17.3906C146.618 17.3906 146.272 17.6788 146.205 18.0783L146.199 18.0848Z" fill="white"/>
<path d="M149.26 17.9809L153.119 27.5368C153.362 28.1393 153.945 28.5389 154.6 28.5454L160.281 28.6109C161.178 28.624 161.912 27.897 161.912 26.9997V21.76C161.912 21.0789 161.487 20.4697 160.844 20.2405L150.61 16.5858C150.303 16.4745 149.955 16.5138 149.681 16.6906C149.248 16.9657 149.071 17.5158 149.268 17.9874L149.26 17.9809Z" fill="white"/>
<path d="M152.04 15.3066L161.277 16.9505C161.604 17.0095 161.913 16.754 161.913 16.42V12.7718C161.913 12.4378 161.618 12.189 161.291 12.2414L152.052 13.7085C151.706 13.7608 151.437 14.0359 151.378 14.3765C151.305 14.8153 151.6 15.2346 152.04 15.3066Z" fill="white"/>
<path d="M151.125 12.069C151.263 12.2917 151.519 12.403 151.774 12.3637L161.216 10.7198C161.621 10.6477 161.916 10.3006 161.916 9.88797V8.57148C161.916 7.98857 161.334 7.57594 160.783 7.77898L151.453 11.1586C151.08 11.2961 150.923 11.7415 151.133 12.0755L151.125 12.069Z" fill="white"/>
<path d="M153.818 1.23166L149.54 9.47764C149.37 9.81167 149.455 10.2178 149.75 10.447C149.979 10.6238 150.281 10.6631 150.543 10.5452L160.736 5.98014C161.451 5.65921 161.916 4.9453 161.916 4.15934V2.15516C161.916 1.05482 161.025 0.164062 159.925 0.164062H155.588C154.841 0.164062 154.16 0.576698 153.818 1.23821V1.23166Z" fill="white"/>
</svg>
