<svg width="40" height="40" viewBox="0 0 40 40" fill="none" xmlns="http://www.w3.org/2000/svg">
<path d="M25.4104 29.7196H14.5938V10.2812H25.4104V29.7196Z" fill="#FF5F00"/>
<path d="M15.2783 20.0012C15.2767 18.1293 15.701 16.2816 16.519 14.5978C17.337 12.9141 18.5274 11.4386 20 10.2829C18.1764 8.84978 15.9864 7.95858 13.6804 7.71117C11.3743 7.46375 9.04507 7.8701 6.95898 8.88376C4.8729 9.89743 3.11406 11.4775 1.88347 13.4435C0.652887 15.4094 0.000199451 17.6819 0 20.0012C0.000445075 22.3203 0.653209 24.5924 1.88371 26.5581C3.11421 28.5237 4.87283 30.1036 6.95862 31.1172C9.04441 32.1308 11.3733 32.5373 13.6791 32.2901C15.9849 32.043 18.1747 31.1522 19.9983 29.7196C18.5262 28.5636 17.3363 27.0879 16.5186 25.4042C15.7009 23.7206 15.2767 21.873 15.2783 20.0012Z" fill="#EB001B"/>
<path d="M40 20.0012C39.9998 22.3206 39.3471 24.5931 38.1165 26.559C36.8859 28.5249 35.1271 30.105 33.041 31.1187C30.9549 32.1324 28.6257 32.5387 26.3196 32.2913C24.0136 32.0439 21.8236 31.1527 20 29.7196C22.875 27.4562 24.7217 23.9446 24.7217 20.0012C24.7217 16.0579 22.875 12.5462 20 10.2829C21.8236 8.84978 24.0136 7.95858 26.3196 7.71117C28.6257 7.46375 30.9549 7.8701 33.041 8.88376C35.1271 9.89743 36.8859 11.4775 38.1165 13.4435C39.3471 15.4094 39.9998 17.6819 40 20.0012Z" fill="#F79E1B"/>
</svg>
