<svg width="70" height="69" viewBox="0 0 70 69" fill="none" xmlns="http://www.w3.org/2000/svg">
<circle cx="35" cy="34.5" r="33.925" fill="#FFECE9" stroke="#FF4623" stroke-width="1.15"/>
<path d="M32.2901 14.4031C31.9348 14.4018 31.5783 14.4022 31.2209 14.4037C29.5007 14.4117 27.753 14.4569 25.9903 14.5223L26.5003 16.7588C28.3359 16.5513 30.3483 16.3967 32.3605 16.3195C33.4507 16.2776 34.5342 16.2555 35.5852 16.2611C38.7383 16.2775 41.5991 16.5423 43.4708 17.2675L44.2711 17.5778L43.9138 18.3581C41.3029 24.0618 40.699 29.5645 41.1082 34.9636C41.3101 28.5561 43.9736 22.8571 47.47 15.5512C42.7122 14.7606 37.6201 14.4208 32.2901 14.403V14.4031ZM34.8088 17.8881C34.0235 17.8888 33.223 17.9047 32.4226 17.9354C28.6786 18.0792 24.9477 18.5185 22.5161 19.0222C25.2323 24.0605 27.4296 29.1104 28.8485 34.0334C29.025 34.0275 29.2017 34.0289 29.3781 34.0375C29.7391 34.0552 30.0961 34.1041 30.445 34.1803C29.0007 29.5626 27.3557 25.3038 25.3108 21.0514L24.8487 20.0906L25.8986 19.9048C28.5361 19.4378 31.2583 19.257 33.8492 19.2562C34.0219 19.2562 34.1942 19.2568 34.3657 19.2584C36.012 19.2727 37.5986 19.3579 39.0686 19.4861L40.0618 19.5728L39.7721 20.5267C38.092 26.0577 37.7629 31.9977 38.7128 37.6493C38.7286 37.6639 38.7446 37.6785 38.7601 37.6933C39.1027 37.5733 39.4231 37.4509 39.7219 37.3201C38.9803 31.2652 39.3089 25.0184 42.0784 18.5247C40.5329 18.1309 38.1769 17.9251 35.5882 17.8927C35.3284 17.8895 35.0686 17.8879 34.8088 17.8881ZM47.8312 18.5516C45.05 24.4414 43.0746 29.1613 42.7508 34.2566C44.5511 28.2549 48.0308 22.8747 51.9961 19.4182C50.6197 19.0749 49.2303 18.7858 47.8312 18.5516ZM21.3308 20.2164C19.6453 20.5639 17.9988 21.005 16.4062 21.6145C17.1812 22.2865 18.5823 23.5367 20.2821 25.1983C21.0645 24.393 21.8624 23.5974 22.6946 22.874C22.2538 21.9811 21.7991 21.0951 21.3308 20.2164ZM34.0906 20.8886C32.867 20.8826 31.6144 20.9177 30.3573 21.0047C30.2254 22.234 29.4984 23.384 28.63 24.5149C30.0164 27.7914 31.2138 31.1349 32.2917 34.6847C33.9426 35.1717 35.5759 35.7473 36.8989 36.437C36.4074 32.6224 36.4746 28.7138 37.1127 24.8914C35.9551 23.6956 35.3521 22.3677 35.3037 20.9077C34.8994 20.8969 34.4951 20.8906 34.0906 20.8886ZM50.4438 23.313C48.222 25.9454 46.2642 29.2424 44.9301 32.8285C47.3796 29.3442 50.3917 26.6264 53.598 24.7067C52.5534 24.2268 51.5019 23.7622 50.4438 23.313ZM23.4242 24.3874C22.113 25.5723 20.8175 26.9944 19.4683 28.3493C22.3693 30.0735 24.8402 32.1154 26.8558 34.4281C26.981 34.3809 27.1074 34.3384 27.2345 34.2996C26.2913 31.0566 24.9987 27.7381 23.4242 24.3874ZM44.3926 35.5956C42.9194 37.3735 41.5325 38.3121 39.6228 39.0609C39.8376 39.8893 39.5186 40.8403 38.7842 41.5676C38.3522 41.9954 37.8094 42.483 37.0157 42.7998C37.1302 42.8676 37.2471 42.9314 37.3661 42.9909C38.4769 43.5453 40.4394 43.3665 42.2626 42.5373C44.0801 41.7108 45.7038 40.283 46.3055 38.8366C46.6071 38.0235 46.3918 37.5994 45.8638 36.9775C45.4879 36.535 44.9388 36.089 44.3926 35.5957V35.5956ZM29.112 35.6483C28.1494 35.6395 27.1717 35.9173 26.3637 36.5252C25.2146 37.3897 24.3288 38.9315 24.3209 41.5505V41.5684L24.32 41.5864C24.0576 47.1011 24.4637 49.6454 25.2683 51.0258C25.9784 52.2443 27.1595 52.8276 28.8872 53.9003C28.9695 53.6841 29.0552 53.4183 29.1356 53.0829C29.3402 52.2295 29.5094 51.0574 29.6167 49.7609C29.8313 47.1682 29.8 44.055 29.4411 41.8147L29.2514 40.6297L30.4208 40.8987C33.2612 41.5522 34.886 41.6294 35.8294 41.463C36.7729 41.2964 37.0927 40.9668 37.6461 40.4186C38.1663 39.9036 38.1566 39.7183 38.0465 39.4285C37.9362 39.1385 37.494 38.6607 36.7437 38.2036C35.2431 37.2894 32.6931 36.4417 30.3097 35.8095C29.9187 35.7061 29.5164 35.6519 29.112 35.6483ZM46.1015 41.8849C45.2019 42.7612 44.0948 43.4806 42.9321 44.0094C41.0469 44.8667 38.9733 45.2589 37.253 44.688C36.6456 44.914 36.2928 45.1738 36.1148 45.3888C35.8706 45.6838 35.8554 45.9009 35.9381 46.2117C36.0208 46.5226 36.2674 46.8917 36.5723 47.1573C36.8771 47.4228 37.2395 47.5608 37.3772 47.5673C41.5814 47.7669 43.4009 46.5604 45.6677 45.161C46.3288 44.753 46.5818 43.9263 46.5185 43.1008C46.4867 42.6881 46.3666 42.3002 46.228 42.0559C46.1935 41.9936 46.151 41.9361 46.1015 41.8849ZM31.1706 42.7021C31.4156 44.9543 31.4197 47.5819 31.2283 49.8943C31.1163 51.2485 30.9431 52.48 30.7082 53.4598C30.6061 53.8862 30.4937 54.2643 30.3578 54.5971L43.5376 54.0163C43.3888 53.4638 43.2372 52.9091 43.0856 52.354C42.5793 52.5225 42.0617 52.6554 41.5367 52.7515L41.5407 52.8171L40.7935 52.8636C40.3334 52.9188 39.8545 52.9492 39.3576 52.9527L31.8233 53.4208L32.0472 52.378C32.7612 49.0532 32.8271 46.1259 32.3867 42.9234C31.9799 42.8575 31.5744 42.7837 31.1705 42.7021H31.1706ZM34.0431 43.1229C34.3978 45.9919 34.3551 48.7301 33.827 51.676L35.5577 51.5686C35.2863 51.1681 35.0998 50.7162 35.0097 50.2409C34.8932 49.6227 34.958 48.9347 35.3624 48.3658C35.3803 48.3406 35.3996 48.3164 35.4187 48.2921C34.9474 47.8568 34.5537 47.2982 34.3753 46.6278C34.1853 45.9141 34.3039 45.0403 34.8691 44.3575C35.0559 44.132 35.2817 43.9284 35.5468 43.7451C35.3123 43.5582 35.1068 43.3601 34.9292 43.1537C34.654 43.1556 34.3592 43.1454 34.0431 43.1229ZM45.9623 46.877C43.855 48.1576 41.4872 49.3815 37.3005 49.1828C37.1638 49.1761 37.028 49.1576 36.8946 49.1275C36.7838 49.1772 36.7247 49.2404 36.6806 49.3025C36.5941 49.4242 36.5429 49.6439 36.5989 49.9415C36.711 50.5369 37.275 51.1894 37.8001 51.2505C41.5183 51.6829 44.0873 50.4665 45.6472 49.0513C46.3659 48.3993 46.372 47.9822 46.2662 47.5284C46.2132 47.3017 46.0964 47.082 45.9623 46.877ZM45.3619 51.285C45.1123 51.4414 44.8561 51.5871 44.594 51.7216C44.7423 52.2652 44.8909 52.8089 45.0376 53.3526L46.8273 53.0317C46.3655 52.6375 46.0041 52.2272 45.7141 51.8192C45.5845 51.6369 45.4703 51.4597 45.3619 51.285Z" fill="#FF4623"/>
</svg>
