<svg width="24" height="24" viewBox="0 0 24 24" fill="none" xmlns="http://www.w3.org/2000/svg">
<g id="Icons">
<g id="Solid">
<path fill-rule="evenodd" clip-rule="evenodd" d="M7.10924 6.55558C6.87389 6.22482 6.69239 5.84724 6.58125 5.43249C6.08096 3.56536 7.189 1.64618 9.05613 1.14589C10.9233 0.645589 12.8424 1.75363 13.3427 3.62076C13.4539 4.03553 13.4855 4.45329 13.447 4.85744C14.0841 4.97122 14.7016 5.16842 15.2795 5.44919C16.8561 6.21525 18.019 7.55009 18.4575 9.18665C19.003 11.2225 19.8918 12.5293 20.7514 13.3712L20.7658 13.3853C21.3185 13.9266 21.7502 14.3494 22.0461 14.6567C22.194 14.8103 22.3264 14.9539 22.4285 15.0799C22.4791 15.1424 22.5368 15.2183 22.5882 15.3015C22.6265 15.3635 22.7232 15.5251 22.7593 15.7426C22.7791 15.862 22.8149 16.1002 22.7435 16.3722C22.6722 16.6442 22.524 16.834 22.4481 16.9284C22.3245 17.0821 22.1835 17.1715 22.1125 17.2133C22.0287 17.2626 21.9448 17.301 21.8745 17.3302C21.734 17.3888 21.567 17.4442 21.3918 17.4977C21.0424 17.6045 20.5494 17.7366 19.9281 17.903L16.7499 18.7546C16.7674 20.536 15.5846 22.1726 13.7844 22.6549C11.9841 23.1373 10.1414 22.3114 9.26598 20.7599L8.01917 21.094C7.39807 21.2604 6.90478 21.3926 6.54895 21.4749C6.37044 21.5161 6.19807 21.5516 6.04711 21.5712C5.9716 21.581 5.87972 21.5897 5.78254 21.5889C5.70019 21.5882 5.53335 21.5812 5.34939 21.51C5.2365 21.4662 5.01328 21.3758 4.81547 21.176C4.61766 20.9761 4.52962 20.7519 4.48706 20.6386C4.40954 20.4322 4.41251 20.2439 4.41468 20.1711C4.4176 20.0733 4.42962 19.9788 4.44221 19.8994C4.46759 19.7392 4.51045 19.5486 4.56175 19.3416C4.66437 18.9276 4.82684 18.3455 5.03486 17.6002L5.04022 17.581C5.36373 16.422 5.48004 14.846 4.93454 12.8101C4.49602 11.1736 4.8357 9.4361 5.81807 7.98436C6.17815 7.45224 6.6144 6.97265 7.10924 6.55558ZM8.51311 4.91485C8.29869 4.11465 8.77357 3.29215 9.57377 3.07774C10.374 2.86332 11.1965 3.3382 11.4109 4.1384C11.4681 4.35197 11.4765 4.56652 11.4426 4.7709C10.9894 4.81071 10.5367 4.8903 10.0913 5.00964C9.64601 5.12897 9.21425 5.28633 8.80186 5.47845C8.67035 5.3184 8.57033 5.12841 8.51311 4.91485ZM11.3346 20.2057C11.8233 20.6935 12.5517 20.9147 13.2667 20.7231C13.9817 20.5315 14.5019 19.9758 14.6813 19.3089L11.3346 20.2057Z" fill="#151515"/>
<path d="M3.82385 6.98733C4.21049 7.3817 4.20423 8.01483 3.80987 8.40148C3.03363 9.16253 2.72943 10.2978 3.02116 11.345C3.16936 11.877 2.85822 12.4285 2.32619 12.5767C1.79416 12.7249 1.24272 12.4137 1.09451 11.8817C0.607248 10.1325 1.11314 8.24453 2.4097 6.97336C2.80407 6.58671 3.4372 6.59297 3.82385 6.98733Z" fill="#151515"/>
<path d="M16.4776 3.59688C16.6152 3.06203 17.1604 2.74004 17.6953 2.8777C19.4537 3.3303 20.8358 4.71242 21.2884 6.47087C21.4261 7.00572 21.1041 7.5509 20.5692 7.68856C20.0344 7.82622 19.4892 7.50424 19.3515 6.96938C19.0806 5.91661 18.2495 5.08554 17.1967 4.81458C16.6619 4.67692 16.3399 4.13174 16.4776 3.59688Z" fill="#151515"/>
</g>
</g>
</svg>
