<svg width="22" height="22" viewBox="0 0 22 22" fill="none" xmlns="http://www.w3.org/2000/svg">
<path fill-rule="evenodd" clip-rule="evenodd" d="M7.11231 1.83301H14.888C15.6259 1.833 16.2349 1.83299 16.731 1.87352C17.2463 1.91562 17.7199 2.00597 18.1648 2.23265C18.8547 2.58419 19.4157 3.14512 19.7672 3.83504C19.9939 4.27993 20.0842 4.75358 20.1263 5.26883C20.1669 5.76493 20.1668 6.37392 20.1668 7.1118V12.4061C20.1668 13.0201 20.1668 13.5269 20.1385 13.9418C20.1092 14.3719 20.0464 14.7699 19.8877 15.1528C19.5156 16.0513 18.8018 16.7651 17.9033 17.1372C17.5203 17.2959 17.1224 17.3587 16.6922 17.388C16.2774 17.4164 15.7706 17.4164 15.1566 17.4163H15.1252C14.6333 17.4163 14.5357 17.4221 14.4562 17.4409C14.3177 17.4736 14.1887 17.5381 14.0795 17.6292C14.0168 17.6816 13.9536 17.7562 13.6585 18.1497L12.3047 19.9548C12.2191 20.069 12.1223 20.1981 12.0292 20.3016C11.9265 20.4157 11.7559 20.5839 11.4986 20.6839C11.178 20.8086 10.8223 20.8086 10.5018 20.6839C10.2444 20.5839 10.0738 20.4157 9.97111 20.3016C9.878 20.1981 9.78125 20.069 9.69568 19.9548L8.34183 18.1497C8.04672 17.7562 7.98353 17.6816 7.92085 17.6292C7.81159 17.5381 7.68261 17.4736 7.5441 17.4409C7.46464 17.4221 7.36701 17.4163 6.87516 17.4163H6.84375C6.22977 17.4164 5.72298 17.4164 5.30809 17.388C4.87791 17.3587 4.47999 17.2959 4.09699 17.1372C3.19855 16.7651 2.48475 16.0513 2.11261 15.1528C1.95396 14.7699 1.89114 14.3719 1.86179 13.9418C1.83348 13.5269 1.83349 13.0201 1.8335 12.4061L1.8335 7.11182C1.83348 6.37393 1.83348 5.76493 1.87401 5.26883C1.91611 4.75358 2.00646 4.27993 2.23314 3.83504C2.58468 3.14512 3.1456 2.58419 3.83553 2.23265C4.28042 2.00597 4.75407 1.91562 5.26932 1.87352C5.76542 1.83299 6.37442 1.833 7.11231 1.83301Z" fill="black"/>
</svg>
