<svg width="110" height="110" viewBox="0 0 110 110" fill="none" xmlns="http://www.w3.org/2000/svg">
<g clip-path="url(#clip0_105_24485)">
<rect width="110" height="110" rx="55" fill="white"/>
<path d="M67.7891 55.7333L68.2961 66.4339L78.4897 70.8117L84.5542 65.1713L83.8766 59.2726L74.6969 49.5859L67.7891 55.7333Z" fill="#F4A28C"/>
<path opacity="0.09" d="M67.7891 55.7333L68.2961 66.4339L78.4897 70.8117L84.5542 65.1713L83.8766 59.2726L74.6969 49.5859L67.7891 55.7333Z" fill="black"/>
<path d="M82.7704 42.584C82.7704 42.584 78.0661 37.0119 74.1758 34.4086C66.5123 29.2704 63.7336 34.745 64.0699 37.7773C64.4063 40.8095 73.4153 50.0769 73.4153 50.0769L82.7704 42.584Z" fill="#F4A28C"/>
<path d="M41.3399 34.0156H7.86328V56.0653H41.3399V34.0156Z" fill="white"/>
<path d="M15.8969 63.707H7V68.0945H15.8969V63.707Z" fill="white"/>
<path d="M28.5844 63.707H19.6875V68.0945H28.5844V63.707Z" fill="white"/>
<path d="M41.3383 63.707H32.4414V68.0945H41.3383V63.707Z" fill="white"/>
<path d="M15.8969 72.8867H7V77.2742H15.8969V72.8867Z" fill="white"/>
<path d="M28.5844 72.8867H19.6875V77.2742H28.5844V72.8867Z" fill="white"/>
<path d="M41.3383 72.8867H32.4414V77.2742H41.3383V72.8867Z" fill="white"/>
<path d="M15.8969 82.0312H7V86.4187H15.8969V82.0312Z" fill="white"/>
<path d="M28.5844 82.0312H19.6875V86.4187H28.5844V82.0312Z" fill="white"/>
<path d="M41.3383 82.0312H32.4414V86.4187H41.3383V82.0312Z" fill="white"/>
<path opacity="0.09" d="M41.9594 31.2236L31.2344 24.5156L17.8281 48.915L54.2736 72.1639L63.501 54.499L41.9594 31.2236Z" fill="black"/>
<path d="M82.7863 42.5999L41.9102 19L26.6636 45.4078L67.5398 69.0077L82.7863 42.5999Z" fill="#FF4623"/>
<path d="M77.1593 44.9572L58.7734 34.3906L56.2555 38.7718L74.6413 49.3384L77.1593 44.9572Z" fill="white"/>
<path opacity="0.46" d="M43.8754 43.2717L37.3315 39.4936C36.4408 38.9794 35.3019 39.2846 34.7876 40.1753L34.1319 41.3109C33.6177 42.2016 33.9229 43.3406 34.8136 43.8548L41.3575 47.6329C42.2482 48.1472 43.3871 47.842 43.9014 46.9513L44.557 45.8156C45.0713 44.9249 44.7661 43.786 43.8754 43.2717Z" fill="white"/>
<path opacity="0.46" d="M67.7852 57.0729L49.5424 46.5405C48.6517 46.0263 47.5128 46.3314 46.9986 47.2221L46.3429 48.3578C45.8286 49.2485 46.1338 50.3875 47.0245 50.9017L65.2672 61.4341C66.1579 61.9484 67.2969 61.6432 67.8111 60.7525L68.4668 59.6168C68.981 58.7261 68.6759 57.5872 67.7852 57.0729Z" fill="white"/>
<path d="M67.2292 79.4712C67.2292 79.4712 58.2934 70.8278 58.8491 61.5117C59.1026 57.2314 64.6162 55.5788 67.1366 59.0498L67.2341 59.1912C70.5199 63.8565 70.2127 68.712 77.3985 66.7718C84.5842 64.8315 76.2187 53.9847 76.2187 53.9847L82.7707 42.582C82.7707 42.582 90.7999 53.7263 92.823 63.3008C94.8461 72.8753 92.823 82.9812 92.823 82.9812L74.5027 86.8129L67.2292 79.4712Z" fill="#F4A28C"/>
<path d="M69.4766 84.1207L93.4031 78.9922L102.495 109.729L73.0158 114.121L69.4766 84.1207Z" fill="#151515"/>
<path opacity="0.3" d="M45.2915 33.2042C47.1331 33.2042 48.626 31.7112 48.626 29.8697C48.626 28.0281 47.1331 26.5352 45.2915 26.5352C43.4499 26.5352 41.957 28.0281 41.957 29.8697C41.957 31.7112 43.4499 33.2042 45.2915 33.2042Z" fill="white"/>
<path opacity="0.3" d="M49.3384 35.2862C51.18 35.2862 52.6729 33.7933 52.6729 31.9517C52.6729 30.1101 51.18 28.6172 49.3384 28.6172C47.4968 28.6172 46.0039 30.1101 46.0039 31.9517C46.0039 33.7933 47.4968 35.2862 49.3384 35.2862Z" fill="white"/>
</g>
<rect x="0.55" y="0.55" width="108.9" height="108.9" rx="54.45" stroke="#FBE9EB" stroke-width="1.1"/>
<defs>
<clipPath id="clip0_105_24485">
<rect width="110" height="110" rx="55" fill="white"/>
</clipPath>
</defs>
</svg>
