<svg width="124" height="40" viewBox="0 0 124 40" fill="none" xmlns="http://www.w3.org/2000/svg">
<g clip-path="url(#clip0_105_24736)">
<mask id="mask0_105_24736" style="mask-type:luminance" maskUnits="userSpaceOnUse" x="-67" y="-22" width="257" height="84">
<path d="M-66.2852 61.5352H189.441V-21.5348H-66.2852V61.5352Z" fill="white"/>
</mask>
<g mask="url(#mask0_105_24736)">
<path d="M25.4344 7.85826C24.1215 6.36179 21.7482 5.72021 18.7121 5.72021H9.90029C9.59974 5.72005 9.309 5.82717 9.08039 6.02228C8.85177 6.21739 8.7003 6.48769 8.65323 6.78453L4.98577 30.056C4.96877 30.1639 4.97537 30.2743 5.00512 30.3794C5.03487 30.4846 5.08707 30.5821 5.15811 30.6651C5.22915 30.7482 5.31736 30.8148 5.41664 30.8605C5.51593 30.9062 5.62394 30.9298 5.73322 30.9297H11.1732L12.5395 22.2638L12.4972 22.5352C12.5433 22.2389 12.6938 21.9689 12.9214 21.7737C13.1491 21.5786 13.4389 21.4712 13.7387 21.4708H16.3238C21.4023 21.4708 25.3788 19.4081 26.5403 13.441C26.5748 13.2645 26.6046 13.0928 26.6305 12.9249C26.9756 10.7194 26.6282 9.21826 25.4352 7.85905" fill="#003087"/>
<path d="M92.0346 18.9328C91.702 21.1163 90.0345 21.1163 88.422 21.1163H87.5043L88.1483 17.0394C88.1875 16.7932 88.3993 16.612 88.6487 16.612H89.0698C90.1679 16.612 91.2048 16.612 91.7397 17.2371C92.0589 17.6112 92.1553 18.1665 92.0346 18.9328ZM91.3326 13.2355H85.2494C85.048 13.2356 84.8531 13.3075 84.6999 13.4383C84.5467 13.5691 84.4451 13.7503 84.4134 13.9492L81.9553 29.5469C81.944 29.6192 81.9485 29.6931 81.9684 29.7636C81.9883 29.834 82.0233 29.8993 82.0708 29.9549C82.1183 30.0106 82.1773 30.0553 82.2438 30.086C82.3102 30.1167 82.3825 30.1327 82.4557 30.1328H85.5773C85.8683 30.1328 86.1161 29.921 86.1616 29.634L86.8596 25.2104C86.924 24.8003 87.2785 24.4967 87.6942 24.4967H89.6189C93.6267 24.4967 95.9389 22.5587 96.5428 18.7147C96.815 17.0347 96.5538 15.714 95.7671 14.7892C94.902 13.7728 93.3687 13.2347 91.3334 13.2347" fill="#009CDE"/>
<path d="M48.6441 18.9309C48.3115 21.1145 46.6441 21.1145 45.0307 21.1145H44.1131L44.757 17.0376C44.7962 16.7913 45.008 16.6102 45.2574 16.6102H45.6786C46.7766 16.6102 47.8135 16.6102 48.3484 17.2353C48.6684 17.6094 48.7649 18.1647 48.6441 18.9309ZM47.9421 13.2337H41.859C41.4433 13.2337 41.0888 13.5364 41.0237 13.9474L38.5648 29.5451C38.5534 29.6174 38.5577 29.6914 38.5776 29.7619C38.5975 29.8323 38.6324 29.8977 38.68 29.9534C38.7276 30.009 38.7866 30.0538 38.8531 30.0844C38.9196 30.1151 38.992 30.131 39.0652 30.131H41.9703C42.386 30.131 42.7397 29.8282 42.8048 29.4172L43.4691 25.2094C43.5335 24.7984 43.888 24.4957 44.3037 24.4957H46.2284C50.2362 24.4957 52.5484 22.5568 53.1523 18.7129C53.4245 17.0329 53.1633 15.7121 52.3766 14.7874C51.5115 13.7709 49.9782 13.2329 47.9429 13.2329M62.0653 24.531C61.7829 26.1953 60.4629 27.3129 58.7774 27.3129C57.9327 27.3129 57.2558 27.0408 56.8213 26.5263C56.39 26.0165 56.2284 25.2894 56.3649 24.4808C56.6268 22.8306 57.9696 21.6776 59.6292 21.6776C60.4566 21.6776 61.1272 21.9521 61.5712 22.4713C62.0174 22.9945 62.1931 23.7255 62.0653 24.531ZM66.1249 18.8604H63.2119C63.0908 18.8602 62.9737 18.9034 62.8816 18.9821C62.7896 19.0607 62.7287 19.1697 62.71 19.2894L62.5829 20.1035L62.379 19.8086C61.7484 18.8933 60.3421 18.5866 58.9382 18.5866C55.7202 18.5866 52.9711 21.0259 52.4362 24.4455C52.1578 26.1529 52.5531 27.7835 53.5209 28.9216C54.4096 29.967 55.6778 30.4023 57.1892 30.4023C59.7837 30.4023 61.2221 28.7365 61.2221 28.7365L61.0919 29.5459C61.0805 29.6183 61.0849 29.6923 61.1048 29.7628C61.1247 29.8334 61.1597 29.8987 61.2074 29.9544C61.255 30.0101 61.3142 30.0548 61.3808 30.0855C61.4474 30.1161 61.5198 30.1319 61.5931 30.1318H64.2159C64.6316 30.1318 64.9861 29.8298 65.0512 29.418L66.6261 19.447C66.6374 19.3746 66.6329 19.3005 66.6129 19.23C66.5929 19.1595 66.5578 19.0941 66.5101 19.0384C66.4624 18.9828 66.4032 18.9381 66.3365 18.9075C66.2699 18.8769 66.1974 18.8611 66.1241 18.8611" fill="#003087"/>
<path d="M105.454 24.531C105.172 26.1953 103.852 27.3129 102.167 27.3129C101.322 27.3129 100.645 27.0408 100.211 26.5263C99.7791 26.0165 99.6176 25.2894 99.754 24.4808C100.016 22.8306 101.358 21.6776 103.018 21.6776C103.846 21.6776 104.516 21.9521 104.96 22.4713C105.407 22.9945 105.582 23.7255 105.454 24.531ZM109.514 18.8604H106.601C106.48 18.8602 106.363 18.9034 106.271 18.9821C106.179 19.0607 106.118 19.1697 106.099 19.2894L105.972 20.1035L105.768 19.8086C105.138 18.8933 103.731 18.5866 102.327 18.5866C99.1101 18.5866 96.3611 21.0259 95.8254 24.4455C95.547 26.1529 95.9431 27.7835 96.9109 28.9216C97.7995 29.967 99.0678 30.4023 100.579 30.4023C103.174 30.4023 104.613 28.7365 104.613 28.7365L104.483 29.5459C104.471 29.6182 104.475 29.6922 104.495 29.7627C104.515 29.8333 104.549 29.8987 104.597 29.9544C104.644 30.0101 104.704 30.0549 104.77 30.0855C104.837 30.1161 104.909 30.1319 104.982 30.1318H107.604C108.02 30.1318 108.374 29.8298 108.44 29.418L110.015 19.447C110.027 19.3746 110.022 19.3005 110.002 19.23C109.982 19.1595 109.947 19.0941 109.899 19.0384C109.852 18.9827 109.792 18.9381 109.726 18.9075C109.659 18.8769 109.587 18.8611 109.513 18.8611" fill="#009CDE"/>
<path d="M81.6395 18.8616H78.7109C78.4309 18.8616 78.1697 19.0005 78.0128 19.2326L73.9736 25.1809L72.2615 19.4648C72.2092 19.2904 72.1022 19.1375 71.9563 19.0288C71.8104 18.92 71.6333 18.8611 71.4513 18.8608H68.5736C68.4929 18.8609 68.4134 18.8802 68.3416 18.9171C68.2699 18.954 68.208 19.0075 68.1611 19.0732C68.1141 19.1388 68.0835 19.2147 68.0718 19.2945C68.0601 19.3744 68.0675 19.4559 68.0936 19.5322L71.3171 28.9958L68.285 33.2742C68.2314 33.3502 68.1997 33.4394 68.1934 33.5321C68.187 33.6248 68.2062 33.7175 68.249 33.8C68.2917 33.8826 68.3563 33.9518 68.4356 34.0002C68.515 34.0485 68.6062 34.0741 68.6991 34.0742H71.6246C71.9007 34.0742 72.1603 33.9385 72.3187 33.7111L82.0552 19.6577C82.1081 19.5817 82.1391 19.4928 82.145 19.4004C82.1509 19.308 82.1313 19.2158 82.0885 19.1338C82.0456 19.0517 81.9811 18.983 81.902 18.935C81.8228 18.8871 81.7321 18.8617 81.6395 18.8616Z" fill="#003087"/>
<path d="M112.949 13.6638L110.451 29.5469C110.44 29.6193 110.445 29.6933 110.465 29.7638C110.485 29.8342 110.52 29.8996 110.567 29.9552C110.615 30.0109 110.674 30.0556 110.74 30.0862C110.807 30.1169 110.879 30.1328 110.953 30.1328H113.463C113.879 30.1328 114.233 29.8301 114.298 29.4191L116.76 13.8206C116.772 13.7482 116.768 13.6742 116.748 13.6037C116.728 13.5331 116.693 13.4677 116.645 13.412C116.597 13.3563 116.538 13.3117 116.472 13.281C116.405 13.2504 116.333 13.2346 116.259 13.2347H113.45C113.329 13.2344 113.212 13.2775 113.12 13.356C113.028 13.4346 112.967 13.5443 112.949 13.6638Z" fill="#009CDE"/>
<path d="M25.4344 7.85826C24.1215 6.36179 21.7482 5.72021 18.7121 5.72021H9.90029C9.59974 5.72005 9.309 5.82717 9.08039 6.02228C8.85177 6.21739 8.7003 6.48769 8.65323 6.78453L4.98577 30.056C4.96877 30.1639 4.97537 30.2743 5.00512 30.3794C5.03487 30.4846 5.08707 30.5821 5.15811 30.6651C5.22915 30.7482 5.31736 30.8148 5.41664 30.8605C5.51593 30.9062 5.62394 30.9298 5.73322 30.9297H11.1732L12.5395 22.2638L12.4972 22.5352C12.5433 22.2389 12.6938 21.9689 12.9214 21.7737C13.1491 21.5786 13.4389 21.4712 13.7387 21.4708H16.3238C21.4023 21.4708 25.3788 19.4081 26.5403 13.441C26.5748 13.2645 26.6046 13.0928 26.6305 12.9249C26.9756 10.7194 26.6282 9.21826 25.4352 7.85905" fill="#003087"/>
<path d="M14.0079 12.9547C14.0491 12.6954 14.1814 12.4592 14.3811 12.2886C14.5807 12.1179 14.8347 12.0241 15.0973 12.0238H22.0055C22.8236 12.0238 23.5867 12.0771 24.284 12.1885C24.6652 12.2498 25.0424 12.3341 25.4134 12.441C25.8348 12.5595 26.2425 12.7219 26.6299 12.9257C26.9765 10.7194 26.6283 9.21905 25.4354 7.85905C24.1216 6.36336 21.7491 5.72179 18.713 5.72179H9.90042C9.60013 5.722 9.30977 5.82928 9.08148 6.02436C8.8532 6.21944 8.70195 6.48953 8.65492 6.7861L4.9859 30.0552C4.96878 30.1631 4.97526 30.2735 5.00491 30.3787C5.03456 30.4839 5.08667 30.5814 5.15764 30.6646C5.22861 30.7477 5.31676 30.8144 5.41601 30.8602C5.51527 30.906 5.62326 30.9297 5.73256 30.9297H11.1734L12.5396 22.263L14.0079 12.9547Z" fill="#003087"/>
<path d="M26.631 12.9236C26.6041 13.0961 26.574 13.2682 26.5408 13.4397C25.3792 19.4059 21.4027 21.4695 16.3243 21.4695H13.7384C13.4386 21.4697 13.1488 21.5771 12.9212 21.7723C12.6937 21.9674 12.5435 22.2375 12.4976 22.5338L11.1737 30.9275L10.7972 33.3087C10.7822 33.4033 10.7879 33.4999 10.8139 33.592C10.8399 33.6841 10.8856 33.7695 10.9478 33.8423C11.0099 33.9151 11.0872 33.9735 11.1741 34.0135C11.261 34.0536 11.3556 34.0743 11.4513 34.0742H16.0372C16.58 34.0742 17.0411 33.6789 17.1266 33.1432L17.1713 32.9095L18.0357 27.4319L18.0906 27.1291C18.1317 26.8695 18.264 26.6331 18.4639 26.4625C18.6637 26.2918 18.9179 26.1981 19.1808 26.1981H19.867C24.3094 26.1981 27.7878 24.3942 28.8043 19.1738C29.2278 16.9934 29.0082 15.1714 27.8867 13.8922C27.5305 13.4956 27.105 13.1674 26.631 12.9236Z" fill="#009CDE"/>
<path d="M25.413 12.441C25.2357 12.3885 25.053 12.3414 24.8648 12.2998C24.6765 12.2583 24.482 12.2214 24.2828 12.19C23.5847 12.0763 22.8224 12.023 22.0036 12.023H15.0961C14.8332 12.0227 14.5788 12.1164 14.379 12.2873C14.1792 12.4582 14.0471 12.6949 14.0067 12.9547L12.5384 22.2646L12.4961 22.5352C12.5419 22.2389 12.6922 21.9688 12.9197 21.7736C13.1473 21.5784 13.4371 21.4711 13.7369 21.4708H16.3228C21.4012 21.4708 25.3777 19.4081 26.5393 13.441C26.5738 13.2645 26.6028 13.0936 26.6295 12.9249C26.3227 12.7644 26.0032 12.6296 25.6742 12.5218C25.5887 12.4936 25.5016 12.4677 25.413 12.441Z" fill="#012169"/>
</g>
</g>
<defs>
<clipPath id="clip0_105_24736">
<rect width="123.153" height="40" fill="white"/>
</clipPath>
</defs>
</svg>
