<svg width="24" height="24" viewBox="0 0 24 24" fill="none" xmlns="http://www.w3.org/2000/svg">
<path d="M12.4033 1.18553C12.1375 1.13086 11.8633 1.13086 11.5975 1.18553C11.2902 1.24873 11.0156 1.40256 10.7972 1.52485L10.7377 1.5581C8.97477 2.5375 5.99246 4.19516 4.31106 5.12977C3.90282 5.35669 3.69869 5.47016 3.63048 5.62011C3.57102 5.75084 3.57064 5.90083 3.62944 6.03186C3.69689 6.18216 3.90061 6.29675 4.30805 6.52594L11.6081 10.6323C11.7512 10.7127 11.8227 10.753 11.8986 10.7687C11.9657 10.7827 12.035 10.7827 12.1021 10.7687C12.1779 10.753 12.2495 10.7127 12.3925 10.6323L19.6927 6.52593C20.1001 6.29674 20.3038 6.18215 20.3713 6.03185C20.4301 5.90082 20.4297 5.75083 20.3702 5.6201C20.302 5.47014 20.0979 5.35668 19.6897 5.12975C18.0083 4.19514 15.026 2.5375 13.263 1.5581L13.2035 1.52485C12.9852 1.40256 12.7105 1.24873 12.4033 1.18553Z" fill="#626262"/>
<path d="M21.9963 8.89064C21.9959 8.4423 21.9957 8.21813 21.9012 8.08724C21.8187 7.97305 21.6919 7.89894 21.5519 7.88316C21.3914 7.86506 21.1957 7.97518 20.8041 8.19542L13.4082 12.3557C13.2597 12.4392 13.1855 12.4809 13.1314 12.54C13.0836 12.5923 13.0475 12.6541 13.0254 12.7214C13.0004 12.7974 13.0004 12.8826 13.0004 13.0529V21.2282C13.0004 21.6754 13.0004 21.899 13.0944 22.0298C13.1764 22.1439 13.3027 22.2182 13.4423 22.2345C13.6023 22.2532 13.7971 22.145 14.1869 21.9286C15.8532 21.0033 18.8819 19.3215 20.663 18.3319L20.7262 18.2971C20.9573 18.1698 21.2479 18.0097 21.4711 17.7675C21.6641 17.5581 21.8101 17.31 21.8994 17.0396C22.0027 16.7269 22.0015 16.3951 22.0005 16.1313L22.0004 16.0591C22.0004 14.096 21.9978 10.7568 21.9963 8.89064Z" fill="#626262"/>
<path d="M9.81387 21.9286C10.2036 22.145 10.3985 22.2532 10.5584 22.2345C10.698 22.2182 10.8243 22.1439 10.9063 22.0298C11.0004 21.899 11.0004 21.6754 11.0004 21.2282V13.053C11.0004 12.8826 11.0004 12.7975 10.9754 12.7214C10.9533 12.6541 10.9171 12.5923 10.8693 12.54C10.8153 12.481 10.741 12.4392 10.5926 12.3557L3.1966 8.19544C2.80507 7.9752 2.6093 7.86509 2.44886 7.88318C2.30889 7.89897 2.18205 7.97308 2.09957 8.08726C2.00503 8.21815 2.00484 8.44232 2.00447 8.89066C2.00291 10.7568 2.00037 14.0961 2.00037 16.0591L2.00019 16.1313C1.99923 16.3951 1.99802 16.7269 2.10134 17.0396C2.19066 17.31 2.33668 17.5581 2.52964 17.7675C2.7528 18.0097 3.0434 18.1697 3.27452 18.297L3.3377 18.3319C5.11889 19.3215 8.14752 21.0033 9.81387 21.9286Z" fill="#626262"/>
</svg>
