<svg width="110" height="110" viewBox="0 0 110 110" fill="none" xmlns="http://www.w3.org/2000/svg">
<circle cx="55" cy="55" r="54.5" fill="#E8E8E8"/>
<circle cx="55" cy="55" r="54.5" stroke="#151515"/>
<circle cx="55" cy="55" r="54.5" stroke="black" stroke-opacity="0.2"/>
<circle cx="55" cy="55" r="54.5" stroke="black" stroke-opacity="0.2"/>
<circle cx="55" cy="55" r="54.5" stroke="black" stroke-opacity="0.2"/>
<path d="M42 30.0006L41.8464 30.0003C41.2792 29.9987 40.5654 29.9966 39.877 30.1754C39.2808 30.3301 38.7216 30.5844 38.2277 30.925C37.6573 31.3185 37.2309 31.8388 36.892 32.2523L36.8001 32.3642L33.1246 36.8192C32.7835 37.2327 32.6129 37.4394 32.5493 37.6383C32.3717 38.1936 32.7134 38.8148 33.3086 39.0188C33.5218 39.0919 33.8095 39.0919 34.3849 39.0919H75.6151C76.1905 39.0919 76.4782 39.0919 76.6914 39.0188C77.2866 38.8148 77.6283 38.1936 77.4507 37.6383C77.3871 37.4394 77.2165 37.2327 76.8754 36.8192L73.2 32.3642L73.108 32.2523C72.7692 31.8388 72.3426 31.3184 71.7723 30.925C71.2784 30.5844 70.7192 30.3301 70.123 30.1754C69.4346 29.9966 68.7208 29.9987 68.1536 30.0003L68 30.0006H42Z" fill="#151515"/>
<path fill-rule="evenodd" clip-rule="evenodd" d="M80 47.2736C80 46.0008 80 45.3644 79.7275 44.8782C79.4878 44.4506 79.1054 44.1029 78.635 43.885C78.1002 43.6373 77.4001 43.6373 76 43.6373H34C32.5999 43.6373 31.8998 43.6373 31.365 43.885C30.8946 44.1029 30.5122 44.4506 30.2725 44.8782C30 45.3644 30 46.0008 30 47.2736L30.0001 70.5423C30 71.7403 30 72.7739 30.0765 73.6251C30.1572 74.5236 30.3355 75.4173 30.8175 76.2772C31.5366 77.5602 32.6839 78.6032 34.0951 79.2569C35.0411 79.695 36.0241 79.8571 37.0125 79.9305C37.9489 80.0001 39.0858 80 40.4036 80L69.5964 80C70.9142 80 72.0511 80.0001 72.9875 79.9305C73.9759 79.8571 74.9589 79.695 75.9049 79.2569C77.3161 78.6032 78.4634 77.5602 79.1825 76.2773C79.6645 75.4173 79.8428 74.5236 79.9235 73.6251C80 72.7739 80 71.7403 79.9999 70.5423L80 47.2736ZM45 50.4554C46.3807 50.4554 47.5 51.4729 47.5 52.7281C47.5 54.5364 48.2902 56.2706 49.6967 57.5492C51.1032 58.8279 53.0109 59.5462 55 59.5462C56.9891 59.5462 58.8968 58.8279 60.3033 57.5492C61.7098 56.2706 62.5 54.5364 62.5 52.7281C62.5 51.4729 63.6192 50.4554 65 50.4554C66.3807 50.4554 67.5 51.4729 67.5 52.7281C67.5 55.7419 66.183 58.6322 63.8388 60.7633C61.4946 62.8944 58.3152 64.0916 55 64.0916C51.6848 64.0916 48.5054 62.8944 46.1612 60.7633C43.817 58.6322 42.5 55.7419 42.5 52.7281C42.5 51.4729 43.6193 50.4554 45 50.4554Z" fill="#151515"/>
</svg>
