<svg width="40" height="40" viewBox="0 0 40 40" fill="none" xmlns="http://www.w3.org/2000/svg">
<path d="M28.2629 18.1172H27.9763L27.4709 19.4772H27.7683C28.3389 19.4772 28.6389 19.1999 28.8056 18.7505C28.9829 18.2705 28.7883 18.1172 28.2629 18.1172ZM23.4923 18.1452C22.9309 18.1452 22.4656 18.7719 22.1083 19.7519C21.6283 21.0652 21.8083 21.3892 22.3216 21.3892C22.8483 21.3892 23.1976 21.0572 23.6803 19.7385C24.1483 18.4559 24.0256 18.1465 23.4923 18.1452Z" fill="#303C42"/>
<path d="M37.3333 5.33594H2.66667C1.196 5.33594 0 6.53194 0 8.0026V32.0026C0 33.4733 1.196 34.6693 2.66667 34.6693H37.3333C38.804 34.6693 40 33.4733 40 32.0026V8.0026C40 6.53194 38.804 5.33594 37.3333 5.33594ZM10.472 20.5813C10.2333 21.5786 9.67067 22.0773 9.08267 22.3266C8.496 22.5759 7.88533 22.5759 7.55067 22.5759H4L4.524 21.1359H7.84267C8.108 21.1333 8.28267 21.1173 8.40267 21.0693C8.45673 21.0485 8.5051 21.0151 8.54381 20.972C8.58251 20.9289 8.61045 20.8773 8.62533 20.8213C8.64051 20.778 8.64773 20.7324 8.64667 20.6866C8.64642 20.6459 8.63684 20.6057 8.61867 20.5693C8.59093 20.5186 8.54929 20.477 8.49867 20.4493C8.45129 20.4218 8.40068 20.4003 8.348 20.3853L8.02133 20.2893L7.808 20.2279C7.63608 20.1758 7.47456 20.0942 7.33067 19.9866C7.20074 19.8921 7.09329 19.7701 7.016 19.6293C6.95887 19.513 6.9327 19.384 6.94 19.2546C6.95106 19.0826 6.98606 18.913 7.044 18.7506C7.34533 17.8519 7.736 17.4026 8.17733 17.1773C8.62 16.9533 9.11467 16.9533 9.62267 16.9533H12.8467C12.3204 17.2816 11.8666 17.714 11.5133 18.2239L11.4707 18.2879H9.40667C9.28187 18.2841 9.15809 18.3116 9.04667 18.3679C9.00274 18.3906 8.96383 18.4219 8.93222 18.4599C8.90061 18.498 8.87696 18.5419 8.86267 18.5893C8.85011 18.6315 8.84659 18.6758 8.85234 18.7195C8.85808 18.7631 8.87296 18.8051 8.896 18.8426C8.94726 18.9214 9.02627 18.978 9.11733 19.0013L9.39733 19.0813L9.584 19.1346C9.97333 19.2466 10.24 19.4213 10.3867 19.6599C10.5333 19.8999 10.5613 20.2066 10.472 20.5799V20.5813ZM12.604 22.6693H12.6C11.752 22.6693 11.336 22.3266 11.1347 22.0399C10.7813 21.5333 10.7773 20.7639 11.1227 19.8159C11.2936 19.341 11.5267 18.8909 11.816 18.4773C12.236 17.8813 12.7533 17.4306 13.3227 17.1613C13.7162 16.9732 14.1465 16.8748 14.5827 16.8733C15.252 16.8733 15.7333 17.0786 16.0133 17.4799C16.48 18.1466 16.224 19.1319 16.032 19.6599C15.3013 21.6573 14.1467 22.6693 12.604 22.6693ZM19.4373 20.3733L17.9267 20.3719L17.124 22.5759H15.4147L16.9747 18.2879C17.2987 17.4186 17.9827 16.9546 18.9013 16.9546H22.1867C21.6867 17.2586 21.152 17.6893 20.776 18.2239L20.7333 18.2879H18.952C18.8785 18.2846 18.8057 18.3039 18.7434 18.3433C18.6812 18.3826 18.6326 18.4401 18.604 18.5079L18.3613 19.1906L19.868 19.1919L19.4373 20.3733ZM21.924 22.6693H21.9213C21.0733 22.6693 20.6547 22.3266 20.4547 22.0399C20.1013 21.5333 20.0973 20.7639 20.444 19.8159C20.6139 19.3408 20.8466 18.8906 21.136 18.4773C21.5573 17.8813 22.0733 17.4306 22.6427 17.1613C23.0413 16.9746 23.4653 16.8733 23.9027 16.8733C24.572 16.8733 25.0533 17.0786 25.3347 17.4799C25.7987 18.1466 25.5453 19.1319 25.352 19.6599C24.6227 21.6573 23.4693 22.6693 21.924 22.6693ZM28.7773 20.1786C28.8653 20.3146 28.9307 20.4773 28.9933 20.6213C29.2387 21.1853 29.5707 22.5786 29.5707 22.5786H27.7427C27.7427 22.5786 27.3027 20.6813 27.2667 20.5999L26.5227 22.5786H24.784L26.8307 16.9573H28.724C29.5413 16.9573 30.064 17.1386 30.32 17.5079C30.532 17.8119 30.5427 18.2279 30.352 18.7399C30.0427 19.5746 29.2933 19.9866 28.7787 20.1799L28.7773 20.1786ZM35.5133 18.2919H33.5107L31.9493 22.5799H30.3893L31.9507 18.2919H30.9147C30.9694 17.9296 30.8862 17.5598 30.6813 17.2559C30.6026 17.1423 30.5068 17.0416 30.3973 16.9573H36L35.5133 18.2906V18.2919Z" fill="#303C42"/>
<path d="M14.1719 18.1445C13.6106 18.1445 13.1453 18.7712 12.7879 19.7512C12.3079 21.0645 12.4879 21.3885 13.0013 21.3885C13.5279 21.3885 13.8773 21.0565 14.3586 19.7379C14.8279 18.4552 14.7053 18.1459 14.1719 18.1445Z" fill="#303C42"/>
</svg>
