<svg width="16" height="15" viewBox="0 0 16 15" fill="none" xmlns="http://www.w3.org/2000/svg">
<path d="M14.9613 5.19766L10.4983 4.54903L8.50314 0.504303C8.44865 0.393561 8.359 0.303913 8.24826 0.249421C7.97052 0.112311 7.63302 0.226569 7.49415 0.504303L5.49904 4.54903L1.03595 5.19766C0.912902 5.21524 0.800402 5.27325 0.714269 5.36114C0.61014 5.46817 0.552759 5.61215 0.554737 5.76147C0.556715 5.91078 0.617888 6.0532 0.724816 6.15743L3.95392 9.30567L3.19103 13.7512C3.17314 13.8546 3.18458 13.9609 3.22406 14.0582C3.26354 14.1554 3.32948 14.2397 3.41439 14.3013C3.49931 14.363 3.5998 14.3996 3.70448 14.4071C3.80917 14.4146 3.91385 14.3926 4.00665 14.3436L7.99865 12.2447L11.9906 14.3436C12.0996 14.4016 12.2262 14.4209 12.3475 14.3998C12.6533 14.3471 12.859 14.057 12.8063 13.7512L12.0434 9.30567L15.2725 6.15743C15.3604 6.0713 15.4184 5.9588 15.436 5.83575C15.4834 5.52813 15.269 5.24337 14.9613 5.19766Z" fill="#151515"/>
</svg>
