<svg width="20" height="20" viewBox="0 0 20 20" fill="none" xmlns="http://www.w3.org/2000/svg">
<path fill-rule="evenodd" clip-rule="evenodd" d="M8.33301 10C8.33301 9.07952 9.0792 8.33333 9.99967 8.33333C10.9201 8.33333 11.6663 9.07952 11.6663 10C11.6663 10.9205 10.9201 11.6667 9.99967 11.6667C9.0792 11.6667 8.33301 10.9205 8.33301 10Z" fill="black"/>
<path fill-rule="evenodd" clip-rule="evenodd" d="M8.33301 4.16667C8.33301 3.24619 9.0792 2.5 9.99967 2.5C10.9201 2.5 11.6663 3.24619 11.6663 4.16667C11.6663 5.08714 10.9201 5.83333 9.99967 5.83333C9.0792 5.83333 8.33301 5.08714 8.33301 4.16667Z" fill="black"/>
<path fill-rule="evenodd" clip-rule="evenodd" d="M8.33301 15.8333C8.33301 14.9129 9.0792 14.1667 9.99967 14.1667C10.9201 14.1667 11.6663 14.9129 11.6663 15.8333C11.6663 16.7538 10.9201 17.5 9.99967 17.5C9.0792 17.5 8.33301 16.7538 8.33301 15.8333Z" fill="black"/>
</svg>
