<svg width="24" height="24" viewBox="0 0 24 24" fill="none" xmlns="http://www.w3.org/2000/svg">
<path fill-rule="evenodd" clip-rule="evenodd" d="M23.707 15.2934C24.0975 15.6839 24.0975 16.3171 23.707 16.7076L19.707 20.7076C19.3165 21.0981 18.6833 21.0981 18.2928 20.7076L16.2928 18.7076C15.9022 18.3171 15.9022 17.6839 16.2928 17.2934C16.6833 16.9029 17.3165 16.9029 17.707 17.2934L18.9999 18.5863L22.2928 15.2934C22.6833 14.9029 23.3165 14.9029 23.707 15.2934Z" fill="#151515"/>
<path fill-rule="evenodd" clip-rule="evenodd" d="M23.707 15.2934C24.0975 15.6839 24.0975 16.3171 23.707 16.7076L19.707 20.7076C19.3165 21.0981 18.6833 21.0981 18.2928 20.7076L16.2928 18.7076C15.9022 18.3171 15.9022 17.6839 16.2928 17.2934C16.6833 16.9029 17.3165 16.9029 17.707 17.2934L18.9999 18.5863L22.2928 15.2934C22.6833 14.9029 23.3165 14.9029 23.707 15.2934Z" fill="black" fill-opacity="0.2"/>
<path fill-rule="evenodd" clip-rule="evenodd" d="M23.707 15.2934C24.0975 15.6839 24.0975 16.3171 23.707 16.7076L19.707 20.7076C19.3165 21.0981 18.6833 21.0981 18.2928 20.7076L16.2928 18.7076C15.9022 18.3171 15.9022 17.6839 16.2928 17.2934C16.6833 16.9029 17.3165 16.9029 17.707 17.2934L18.9999 18.5863L22.2928 15.2934C22.6833 14.9029 23.3165 14.9029 23.707 15.2934Z" fill="black" fill-opacity="0.2"/>
<path fill-rule="evenodd" clip-rule="evenodd" d="M23.707 15.2934C24.0975 15.6839 24.0975 16.3171 23.707 16.7076L19.707 20.7076C19.3165 21.0981 18.6833 21.0981 18.2928 20.7076L16.2928 18.7076C15.9022 18.3171 15.9022 17.6839 16.2928 17.2934C16.6833 16.9029 17.3165 16.9029 17.707 17.2934L18.9999 18.5863L22.2928 15.2934C22.6833 14.9029 23.3165 14.9029 23.707 15.2934Z" fill="black" fill-opacity="0.2"/>
<path d="M11.597 1.18553C11.8628 1.13086 12.137 1.13086 12.4028 1.18553C12.7101 1.24873 12.9847 1.40256 13.203 1.52485L13.2626 1.5581C15.0255 2.5375 18.0078 4.19514 19.6892 5.12975C20.0974 5.35668 20.3015 5.47014 20.3697 5.6201C20.4292 5.75083 20.4296 5.90082 20.3708 6.03185C20.3033 6.18215 20.0996 6.29674 19.6922 6.52593L17.3631 7.83604L8.40026 2.85668L10.7372 1.5581L10.7967 1.52485C11.0151 1.40256 11.2897 1.24873 11.597 1.18553Z" fill="#151515"/>
<path d="M11.597 1.18553C11.8628 1.13086 12.137 1.13086 12.4028 1.18553C12.7101 1.24873 12.9847 1.40256 13.203 1.52485L13.2626 1.5581C15.0255 2.5375 18.0078 4.19514 19.6892 5.12975C20.0974 5.35668 20.3015 5.47014 20.3697 5.6201C20.4292 5.75083 20.4296 5.90082 20.3708 6.03185C20.3033 6.18215 20.0996 6.29674 19.6922 6.52593L17.3631 7.83604L8.40026 2.85668L10.7372 1.5581L10.7967 1.52485C11.0151 1.40256 11.2897 1.24873 11.597 1.18553Z" fill="black" fill-opacity="0.2"/>
<path d="M11.597 1.18553C11.8628 1.13086 12.137 1.13086 12.4028 1.18553C12.7101 1.24873 12.9847 1.40256 13.203 1.52485L13.2626 1.5581C15.0255 2.5375 18.0078 4.19514 19.6892 5.12975C20.0974 5.35668 20.3015 5.47014 20.3697 5.6201C20.4292 5.75083 20.4296 5.90082 20.3708 6.03185C20.3033 6.18215 20.0996 6.29674 19.6922 6.52593L17.3631 7.83604L8.40026 2.85668L10.7372 1.5581L10.7967 1.52485C11.0151 1.40256 11.2897 1.24873 11.597 1.18553Z" fill="black" fill-opacity="0.2"/>
<path d="M11.597 1.18553C11.8628 1.13086 12.137 1.13086 12.4028 1.18553C12.7101 1.24873 12.9847 1.40256 13.203 1.52485L13.2626 1.5581C15.0255 2.5375 18.0078 4.19514 19.6892 5.12975C20.0974 5.35668 20.3015 5.47014 20.3697 5.6201C20.4292 5.75083 20.4296 5.90082 20.3708 6.03185C20.3033 6.18215 20.0996 6.29674 19.6922 6.52593L17.3631 7.83604L8.40026 2.85668L10.7372 1.5581L10.7967 1.52485C11.0151 1.40256 11.2897 1.24873 11.597 1.18553Z" fill="black" fill-opacity="0.2"/>
<path d="M6.34156 4.00087L15.3168 8.9871L12.3921 10.6323C12.249 10.7127 12.1775 10.753 12.1016 10.7687C12.0345 10.7827 11.9652 10.7827 11.8981 10.7687C11.8222 10.753 11.7507 10.7127 11.6076 10.6323L4.30757 6.52594C3.90012 6.29675 3.6964 6.18216 3.62895 6.03186C3.57015 5.90083 3.57053 5.75084 3.62999 5.62011C3.69821 5.47016 3.90233 5.35669 4.31057 5.12977L6.34156 4.00087Z" fill="#151515"/>
<path d="M6.34156 4.00087L15.3168 8.9871L12.3921 10.6323C12.249 10.7127 12.1775 10.753 12.1016 10.7687C12.0345 10.7827 11.9652 10.7827 11.8981 10.7687C11.8222 10.753 11.7507 10.7127 11.6076 10.6323L4.30757 6.52594C3.90012 6.29675 3.6964 6.18216 3.62895 6.03186C3.57015 5.90083 3.57053 5.75084 3.62999 5.62011C3.69821 5.47016 3.90233 5.35669 4.31057 5.12977L6.34156 4.00087Z" fill="black" fill-opacity="0.2"/>
<path d="M6.34156 4.00087L15.3168 8.9871L12.3921 10.6323C12.249 10.7127 12.1775 10.753 12.1016 10.7687C12.0345 10.7827 11.9652 10.7827 11.8981 10.7687C11.8222 10.753 11.7507 10.7127 11.6076 10.6323L4.30757 6.52594C3.90012 6.29675 3.6964 6.18216 3.62895 6.03186C3.57015 5.90083 3.57053 5.75084 3.62999 5.62011C3.69821 5.47016 3.90233 5.35669 4.31057 5.12977L6.34156 4.00087Z" fill="black" fill-opacity="0.2"/>
<path d="M6.34156 4.00087L15.3168 8.9871L12.3921 10.6323C12.249 10.7127 12.1775 10.753 12.1016 10.7687C12.0345 10.7827 11.9652 10.7827 11.8981 10.7687C11.8222 10.753 11.7507 10.7127 11.6076 10.6323L4.30757 6.52594C3.90012 6.29675 3.6964 6.18216 3.62895 6.03186C3.57015 5.90083 3.57053 5.75084 3.62999 5.62011C3.69821 5.47016 3.90233 5.35669 4.31057 5.12977L6.34156 4.00087Z" fill="black" fill-opacity="0.2"/>
<path d="M21.9958 8.89062C21.9954 8.44229 21.9952 8.21812 21.9007 8.08724C21.8182 7.97305 21.6914 7.89894 21.5514 7.88316C21.3909 7.86506 21.1952 7.97518 20.8036 8.19542L13.4077 12.3557C13.2592 12.4392 13.185 12.4809 13.1309 12.54C13.0831 12.5923 13.047 12.6541 13.0249 12.7214C12.9999 12.7974 12.9999 12.8826 12.9999 13.0529V21.2282C12.9999 21.6754 12.9999 21.899 13.0939 22.0298C13.1759 22.1439 13.3022 22.2182 13.4418 22.2345C13.6018 22.2532 13.7966 22.145 14.1864 21.9286C14.3934 21.8136 14.6216 21.687 14.8657 21.5514C15.1805 21.3766 15.338 21.2891 15.4074 21.1648C15.4681 21.0559 15.486 20.9283 15.4575 20.8068C15.425 20.6682 15.2977 20.5409 15.043 20.2863L14.8786 20.1218C13.707 18.9502 13.707 17.0507 14.8786 15.8792C16.0094 14.7483 17.8185 14.709 18.9965 15.7613L20.8786 13.8792C21.0646 13.6931 21.269 13.5366 21.4859 13.4097C21.7081 13.2796 21.8192 13.2146 21.8717 13.1558C21.9266 13.0943 21.9492 13.0549 21.9745 12.9763C21.9987 12.9014 21.9986 12.8027 21.9985 12.6054C21.9977 11.2359 21.9966 9.86321 21.9958 8.89062Z" fill="#151515"/>
<path d="M21.9958 8.89062C21.9954 8.44229 21.9952 8.21812 21.9007 8.08724C21.8182 7.97305 21.6914 7.89894 21.5514 7.88316C21.3909 7.86506 21.1952 7.97518 20.8036 8.19542L13.4077 12.3557C13.2592 12.4392 13.185 12.4809 13.1309 12.54C13.0831 12.5923 13.047 12.6541 13.0249 12.7214C12.9999 12.7974 12.9999 12.8826 12.9999 13.0529V21.2282C12.9999 21.6754 12.9999 21.899 13.0939 22.0298C13.1759 22.1439 13.3022 22.2182 13.4418 22.2345C13.6018 22.2532 13.7966 22.145 14.1864 21.9286C14.3934 21.8136 14.6216 21.687 14.8657 21.5514C15.1805 21.3766 15.338 21.2891 15.4074 21.1648C15.4681 21.0559 15.486 20.9283 15.4575 20.8068C15.425 20.6682 15.2977 20.5409 15.043 20.2863L14.8786 20.1218C13.707 18.9502 13.707 17.0507 14.8786 15.8792C16.0094 14.7483 17.8185 14.709 18.9965 15.7613L20.8786 13.8792C21.0646 13.6931 21.269 13.5366 21.4859 13.4097C21.7081 13.2796 21.8192 13.2146 21.8717 13.1558C21.9266 13.0943 21.9492 13.0549 21.9745 12.9763C21.9987 12.9014 21.9986 12.8027 21.9985 12.6054C21.9977 11.2359 21.9966 9.86321 21.9958 8.89062Z" fill="black" fill-opacity="0.2"/>
<path d="M21.9958 8.89062C21.9954 8.44229 21.9952 8.21812 21.9007 8.08724C21.8182 7.97305 21.6914 7.89894 21.5514 7.88316C21.3909 7.86506 21.1952 7.97518 20.8036 8.19542L13.4077 12.3557C13.2592 12.4392 13.185 12.4809 13.1309 12.54C13.0831 12.5923 13.047 12.6541 13.0249 12.7214C12.9999 12.7974 12.9999 12.8826 12.9999 13.0529V21.2282C12.9999 21.6754 12.9999 21.899 13.0939 22.0298C13.1759 22.1439 13.3022 22.2182 13.4418 22.2345C13.6018 22.2532 13.7966 22.145 14.1864 21.9286C14.3934 21.8136 14.6216 21.687 14.8657 21.5514C15.1805 21.3766 15.338 21.2891 15.4074 21.1648C15.4681 21.0559 15.486 20.9283 15.4575 20.8068C15.425 20.6682 15.2977 20.5409 15.043 20.2863L14.8786 20.1218C13.707 18.9502 13.707 17.0507 14.8786 15.8792C16.0094 14.7483 17.8185 14.709 18.9965 15.7613L20.8786 13.8792C21.0646 13.6931 21.269 13.5366 21.4859 13.4097C21.7081 13.2796 21.8192 13.2146 21.8717 13.1558C21.9266 13.0943 21.9492 13.0549 21.9745 12.9763C21.9987 12.9014 21.9986 12.8027 21.9985 12.6054C21.9977 11.2359 21.9966 9.86321 21.9958 8.89062Z" fill="black" fill-opacity="0.2"/>
<path d="M21.9958 8.89062C21.9954 8.44229 21.9952 8.21812 21.9007 8.08724C21.8182 7.97305 21.6914 7.89894 21.5514 7.88316C21.3909 7.86506 21.1952 7.97518 20.8036 8.19542L13.4077 12.3557C13.2592 12.4392 13.185 12.4809 13.1309 12.54C13.0831 12.5923 13.047 12.6541 13.0249 12.7214C12.9999 12.7974 12.9999 12.8826 12.9999 13.0529V21.2282C12.9999 21.6754 12.9999 21.899 13.0939 22.0298C13.1759 22.1439 13.3022 22.2182 13.4418 22.2345C13.6018 22.2532 13.7966 22.145 14.1864 21.9286C14.3934 21.8136 14.6216 21.687 14.8657 21.5514C15.1805 21.3766 15.338 21.2891 15.4074 21.1648C15.4681 21.0559 15.486 20.9283 15.4575 20.8068C15.425 20.6682 15.2977 20.5409 15.043 20.2863L14.8786 20.1218C13.707 18.9502 13.707 17.0507 14.8786 15.8792C16.0094 14.7483 17.8185 14.709 18.9965 15.7613L20.8786 13.8792C21.0646 13.6931 21.269 13.5366 21.4859 13.4097C21.7081 13.2796 21.8192 13.2146 21.8717 13.1558C21.9266 13.0943 21.9492 13.0549 21.9745 12.9763C21.9987 12.9014 21.9986 12.8027 21.9985 12.6054C21.9977 11.2359 21.9966 9.86321 21.9958 8.89062Z" fill="black" fill-opacity="0.2"/>
<path d="M9.81339 21.9286C10.2031 22.145 10.398 22.2532 10.558 22.2345C10.6975 22.2182 10.8238 22.1439 10.9059 22.0298C10.9999 21.899 10.9999 21.6754 10.9999 21.2282V13.053C10.9999 12.8826 10.9999 12.7975 10.9749 12.7214C10.9528 12.6541 10.9166 12.5923 10.8688 12.54C10.8148 12.481 10.7405 12.4392 10.5921 12.3557L3.19611 8.19544C2.80458 7.9752 2.60881 7.86509 2.44837 7.88318C2.3084 7.89897 2.18156 7.97308 2.09908 8.08726C2.00454 8.21815 2.00436 8.44232 2.00398 8.89066C2.00242 10.7568 1.99988 14.0961 1.99988 16.0591L1.9997 16.1313C1.99874 16.3951 1.99753 16.7269 2.10085 17.0396C2.19018 17.31 2.3362 17.5581 2.52915 17.7675C2.75231 18.0097 3.04291 18.1697 3.27404 18.297L3.33721 18.3319C5.1184 19.3215 8.14703 21.0033 9.81339 21.9286Z" fill="#151515"/>
<path d="M9.81339 21.9286C10.2031 22.145 10.398 22.2532 10.558 22.2345C10.6975 22.2182 10.8238 22.1439 10.9059 22.0298C10.9999 21.899 10.9999 21.6754 10.9999 21.2282V13.053C10.9999 12.8826 10.9999 12.7975 10.9749 12.7214C10.9528 12.6541 10.9166 12.5923 10.8688 12.54C10.8148 12.481 10.7405 12.4392 10.5921 12.3557L3.19611 8.19544C2.80458 7.9752 2.60881 7.86509 2.44837 7.88318C2.3084 7.89897 2.18156 7.97308 2.09908 8.08726C2.00454 8.21815 2.00436 8.44232 2.00398 8.89066C2.00242 10.7568 1.99988 14.0961 1.99988 16.0591L1.9997 16.1313C1.99874 16.3951 1.99753 16.7269 2.10085 17.0396C2.19018 17.31 2.3362 17.5581 2.52915 17.7675C2.75231 18.0097 3.04291 18.1697 3.27404 18.297L3.33721 18.3319C5.1184 19.3215 8.14703 21.0033 9.81339 21.9286Z" fill="black" fill-opacity="0.2"/>
<path d="M9.81339 21.9286C10.2031 22.145 10.398 22.2532 10.558 22.2345C10.6975 22.2182 10.8238 22.1439 10.9059 22.0298C10.9999 21.899 10.9999 21.6754 10.9999 21.2282V13.053C10.9999 12.8826 10.9999 12.7975 10.9749 12.7214C10.9528 12.6541 10.9166 12.5923 10.8688 12.54C10.8148 12.481 10.7405 12.4392 10.5921 12.3557L3.19611 8.19544C2.80458 7.9752 2.60881 7.86509 2.44837 7.88318C2.3084 7.89897 2.18156 7.97308 2.09908 8.08726C2.00454 8.21815 2.00436 8.44232 2.00398 8.89066C2.00242 10.7568 1.99988 14.0961 1.99988 16.0591L1.9997 16.1313C1.99874 16.3951 1.99753 16.7269 2.10085 17.0396C2.19018 17.31 2.3362 17.5581 2.52915 17.7675C2.75231 18.0097 3.04291 18.1697 3.27404 18.297L3.33721 18.3319C5.1184 19.3215 8.14703 21.0033 9.81339 21.9286Z" fill="black" fill-opacity="0.2"/>
<path d="M9.81339 21.9286C10.2031 22.145 10.398 22.2532 10.558 22.2345C10.6975 22.2182 10.8238 22.1439 10.9059 22.0298C10.9999 21.899 10.9999 21.6754 10.9999 21.2282V13.053C10.9999 12.8826 10.9999 12.7975 10.9749 12.7214C10.9528 12.6541 10.9166 12.5923 10.8688 12.54C10.8148 12.481 10.7405 12.4392 10.5921 12.3557L3.19611 8.19544C2.80458 7.9752 2.60881 7.86509 2.44837 7.88318C2.3084 7.89897 2.18156 7.97308 2.09908 8.08726C2.00454 8.21815 2.00436 8.44232 2.00398 8.89066C2.00242 10.7568 1.99988 14.0961 1.99988 16.0591L1.9997 16.1313C1.99874 16.3951 1.99753 16.7269 2.10085 17.0396C2.19018 17.31 2.3362 17.5581 2.52915 17.7675C2.75231 18.0097 3.04291 18.1697 3.27404 18.297L3.33721 18.3319C5.1184 19.3215 8.14703 21.0033 9.81339 21.9286Z" fill="black" fill-opacity="0.2"/>
</svg>
