<svg width="32" height="32" viewBox="0 0 32 32" fill="none" xmlns="http://www.w3.org/2000/svg">
<path fill-rule="evenodd" clip-rule="evenodd" d="M31.6113 20.3905C32.132 20.9112 32.132 21.7554 31.6113 22.2761L26.2779 27.6095C25.7572 28.1302 24.913 28.1302 24.3923 27.6095L21.7256 24.9428C21.205 24.4221 21.205 23.5779 21.7256 23.0572C22.2463 22.5365 23.0906 22.5365 23.6113 23.0572L25.3351 24.781L29.7256 20.3905C30.2463 19.8698 31.0906 19.8698 31.6113 20.3905Z" fill="#151515"/>
<path fill-rule="evenodd" clip-rule="evenodd" d="M31.6113 20.3905C32.132 20.9112 32.132 21.7554 31.6113 22.2761L26.2779 27.6095C25.7572 28.1302 24.913 28.1302 24.3923 27.6095L21.7256 24.9428C21.205 24.4221 21.205 23.5779 21.7256 23.0572C22.2463 22.5365 23.0906 22.5365 23.6113 23.0572L25.3351 24.781L29.7256 20.3905C30.2463 19.8698 31.0906 19.8698 31.6113 20.3905Z" fill="black" fill-opacity="0.2"/>
<path fill-rule="evenodd" clip-rule="evenodd" d="M31.6113 20.3905C32.132 20.9112 32.132 21.7554 31.6113 22.2761L26.2779 27.6095C25.7572 28.1302 24.913 28.1302 24.3923 27.6095L21.7256 24.9428C21.205 24.4221 21.205 23.5779 21.7256 23.0572C22.2463 22.5365 23.0906 22.5365 23.6113 23.0572L25.3351 24.781L29.7256 20.3905C30.2463 19.8698 31.0906 19.8698 31.6113 20.3905Z" fill="black" fill-opacity="0.2"/>
<path fill-rule="evenodd" clip-rule="evenodd" d="M31.6113 20.3905C32.132 20.9112 32.132 21.7554 31.6113 22.2761L26.2779 27.6095C25.7572 28.1302 24.913 28.1302 24.3923 27.6095L21.7256 24.9428C21.205 24.4221 21.205 23.5779 21.7256 23.0572C22.2463 22.5365 23.0906 22.5365 23.6113 23.0572L25.3351 24.781L29.7256 20.3905C30.2463 19.8698 31.0906 19.8698 31.6113 20.3905Z" fill="black" fill-opacity="0.2"/>
<path d="M15.4646 1.58006C15.819 1.50717 16.1846 1.50717 16.539 1.58006C16.9487 1.66432 17.3149 1.86943 17.606 2.03248L17.6854 2.07681C20.0359 3.38268 24.0123 5.59287 26.2542 6.83902C26.7985 7.14159 27.0707 7.29287 27.1616 7.49281C27.2409 7.66712 27.2414 7.86711 27.163 8.04181C27.0731 8.24221 26.8014 8.395 26.2582 8.70059L23.1528 10.4474L11.2023 3.80826L14.3182 2.07681L14.3976 2.03248C14.6887 1.86943 15.0549 1.66432 15.4646 1.58006Z" fill="#151515"/>
<path d="M15.4646 1.58006C15.819 1.50717 16.1846 1.50717 16.539 1.58006C16.9487 1.66432 17.3149 1.86943 17.606 2.03248L17.6854 2.07681C20.0359 3.38268 24.0123 5.59287 26.2542 6.83902C26.7985 7.14159 27.0707 7.29287 27.1616 7.49281C27.2409 7.66712 27.2414 7.86711 27.163 8.04181C27.0731 8.24221 26.8014 8.395 26.2582 8.70059L23.1528 10.4474L11.2023 3.80826L14.3182 2.07681L14.3976 2.03248C14.6887 1.86943 15.0549 1.66432 15.4646 1.58006Z" fill="black" fill-opacity="0.2"/>
<path d="M15.4646 1.58006C15.819 1.50717 16.1846 1.50717 16.539 1.58006C16.9487 1.66432 17.3149 1.86943 17.606 2.03248L17.6854 2.07681C20.0359 3.38268 24.0123 5.59287 26.2542 6.83902C26.7985 7.14159 27.0707 7.29287 27.1616 7.49281C27.2409 7.66712 27.2414 7.86711 27.163 8.04181C27.0731 8.24221 26.8014 8.395 26.2582 8.70059L23.1528 10.4474L11.2023 3.80826L14.3182 2.07681L14.3976 2.03248C14.6887 1.86943 15.0549 1.66432 15.4646 1.58006Z" fill="black" fill-opacity="0.2"/>
<path d="M15.4646 1.58006C15.819 1.50717 16.1846 1.50717 16.539 1.58006C16.9487 1.66432 17.3149 1.86943 17.606 2.03248L17.6854 2.07681C20.0359 3.38268 24.0123 5.59287 26.2542 6.83902C26.7985 7.14159 27.0707 7.29287 27.1616 7.49281C27.2409 7.66712 27.2414 7.86711 27.163 8.04181C27.0731 8.24221 26.8014 8.395 26.2582 8.70059L23.1528 10.4474L11.2023 3.80826L14.3182 2.07681L14.3976 2.03248C14.6887 1.86943 15.0549 1.66432 15.4646 1.58006Z" fill="black" fill-opacity="0.2"/>
<path d="M8.45737 5.33385L20.4243 11.9822L16.5247 14.1757C16.3339 14.283 16.2386 14.3366 16.1374 14.3577C16.0479 14.3763 15.9556 14.3763 15.8661 14.3577C15.7649 14.3366 15.6696 14.283 15.4788 14.1757L5.74537 8.7006C5.20212 8.39502 4.93049 8.24223 4.84055 8.04183C4.76215 7.86713 4.76266 7.66714 4.84195 7.49283C4.9329 7.29289 5.20506 7.14161 5.74939 6.83904L8.45737 5.33385Z" fill="#151515"/>
<path d="M8.45737 5.33385L20.4243 11.9822L16.5247 14.1757C16.3339 14.283 16.2386 14.3366 16.1374 14.3577C16.0479 14.3763 15.9556 14.3763 15.8661 14.3577C15.7649 14.3366 15.6696 14.283 15.4788 14.1757L5.74537 8.7006C5.20212 8.39502 4.93049 8.24223 4.84055 8.04183C4.76215 7.86713 4.76266 7.66714 4.84195 7.49283C4.9329 7.29289 5.20506 7.14161 5.74939 6.83904L8.45737 5.33385Z" fill="black" fill-opacity="0.2"/>
<path d="M8.45737 5.33385L20.4243 11.9822L16.5247 14.1757C16.3339 14.283 16.2386 14.3366 16.1374 14.3577C16.0479 14.3763 15.9556 14.3763 15.8661 14.3577C15.7649 14.3366 15.6696 14.283 15.4788 14.1757L5.74537 8.7006C5.20212 8.39502 4.93049 8.24223 4.84055 8.04183C4.76215 7.86713 4.76266 7.66714 4.84195 7.49283C4.9329 7.29289 5.20506 7.14161 5.74939 6.83904L8.45737 5.33385Z" fill="black" fill-opacity="0.2"/>
<path d="M8.45737 5.33385L20.4243 11.9822L16.5247 14.1757C16.3339 14.283 16.2386 14.3366 16.1374 14.3577C16.0479 14.3763 15.9556 14.3763 15.8661 14.3577C15.7649 14.3366 15.6696 14.283 15.4788 14.1757L5.74537 8.7006C5.20212 8.39502 4.93049 8.24223 4.84055 8.04183C4.76215 7.86713 4.76266 7.66714 4.84195 7.49283C4.9329 7.29289 5.20506 7.14161 5.74939 6.83904L8.45737 5.33385Z" fill="black" fill-opacity="0.2"/>
<path d="M29.3297 11.8535C29.3292 11.2557 29.3289 10.9568 29.2029 10.7823C29.0929 10.6301 28.9238 10.5313 28.7371 10.5102C28.5232 10.4861 28.2622 10.6329 27.7402 10.9266L17.8788 16.4736C17.6809 16.5849 17.5819 16.6406 17.5099 16.7194C17.4461 16.789 17.3979 16.8715 17.3684 16.9612C17.3351 17.0626 17.3351 17.1761 17.3351 17.4033V28.3036C17.3351 28.8999 17.3351 29.198 17.4605 29.3724C17.5699 29.5245 17.7382 29.6236 17.9244 29.6454C18.1377 29.6703 18.3975 29.5261 18.9171 29.2375C19.1932 29.0842 19.4974 28.9153 19.8229 28.7346C20.2427 28.5014 20.4526 28.3849 20.5451 28.2191C20.6261 28.0739 20.65 27.9037 20.612 27.7418C20.5686 27.557 20.3989 27.3873 20.0593 27.0477L19.84 26.8284C18.2779 25.2663 18.2779 22.7337 19.84 21.1716C21.3478 19.6638 23.7599 19.6114 25.3306 21.0144L27.84 18.5049C28.0881 18.2568 28.3606 18.0482 28.6499 17.8789C28.9461 17.7055 29.0942 17.6188 29.1642 17.5405C29.2375 17.4584 29.2675 17.4059 29.3013 17.3011C29.3336 17.2012 29.3335 17.0696 29.3333 16.8066C29.3322 14.9806 29.3307 13.1503 29.3297 11.8535Z" fill="#151515"/>
<path d="M29.3297 11.8535C29.3292 11.2557 29.3289 10.9568 29.2029 10.7823C29.0929 10.6301 28.9238 10.5313 28.7371 10.5102C28.5232 10.4861 28.2622 10.6329 27.7402 10.9266L17.8788 16.4736C17.6809 16.5849 17.5819 16.6406 17.5099 16.7194C17.4461 16.789 17.3979 16.8715 17.3684 16.9612C17.3351 17.0626 17.3351 17.1761 17.3351 17.4033V28.3036C17.3351 28.8999 17.3351 29.198 17.4605 29.3724C17.5699 29.5245 17.7382 29.6236 17.9244 29.6454C18.1377 29.6703 18.3975 29.5261 18.9171 29.2375C19.1932 29.0842 19.4974 28.9153 19.8229 28.7346C20.2427 28.5014 20.4526 28.3849 20.5451 28.2191C20.6261 28.0739 20.65 27.9037 20.612 27.7418C20.5686 27.557 20.3989 27.3873 20.0593 27.0477L19.84 26.8284C18.2779 25.2663 18.2779 22.7337 19.84 21.1716C21.3478 19.6638 23.7599 19.6114 25.3306 21.0144L27.84 18.5049C28.0881 18.2568 28.3606 18.0482 28.6499 17.8789C28.9461 17.7055 29.0942 17.6188 29.1642 17.5405C29.2375 17.4584 29.2675 17.4059 29.3013 17.3011C29.3336 17.2012 29.3335 17.0696 29.3333 16.8066C29.3322 14.9806 29.3307 13.1503 29.3297 11.8535Z" fill="black" fill-opacity="0.2"/>
<path d="M29.3297 11.8535C29.3292 11.2557 29.3289 10.9568 29.2029 10.7823C29.0929 10.6301 28.9238 10.5313 28.7371 10.5102C28.5232 10.4861 28.2622 10.6329 27.7402 10.9266L17.8788 16.4736C17.6809 16.5849 17.5819 16.6406 17.5099 16.7194C17.4461 16.789 17.3979 16.8715 17.3684 16.9612C17.3351 17.0626 17.3351 17.1761 17.3351 17.4033V28.3036C17.3351 28.8999 17.3351 29.198 17.4605 29.3724C17.5699 29.5245 17.7382 29.6236 17.9244 29.6454C18.1377 29.6703 18.3975 29.5261 18.9171 29.2375C19.1932 29.0842 19.4974 28.9153 19.8229 28.7346C20.2427 28.5014 20.4526 28.3849 20.5451 28.2191C20.6261 28.0739 20.65 27.9037 20.612 27.7418C20.5686 27.557 20.3989 27.3873 20.0593 27.0477L19.84 26.8284C18.2779 25.2663 18.2779 22.7337 19.84 21.1716C21.3478 19.6638 23.7599 19.6114 25.3306 21.0144L27.84 18.5049C28.0881 18.2568 28.3606 18.0482 28.6499 17.8789C28.9461 17.7055 29.0942 17.6188 29.1642 17.5405C29.2375 17.4584 29.2675 17.4059 29.3013 17.3011C29.3336 17.2012 29.3335 17.0696 29.3333 16.8066C29.3322 14.9806 29.3307 13.1503 29.3297 11.8535Z" fill="black" fill-opacity="0.2"/>
<path d="M29.3297 11.8535C29.3292 11.2557 29.3289 10.9568 29.2029 10.7823C29.0929 10.6301 28.9238 10.5313 28.7371 10.5102C28.5232 10.4861 28.2622 10.6329 27.7402 10.9266L17.8788 16.4736C17.6809 16.5849 17.5819 16.6406 17.5099 16.7194C17.4461 16.789 17.3979 16.8715 17.3684 16.9612C17.3351 17.0626 17.3351 17.1761 17.3351 17.4033V28.3036C17.3351 28.8999 17.3351 29.198 17.4605 29.3724C17.5699 29.5245 17.7382 29.6236 17.9244 29.6454C18.1377 29.6703 18.3975 29.5261 18.9171 29.2375C19.1932 29.0842 19.4974 28.9153 19.8229 28.7346C20.2427 28.5014 20.4526 28.3849 20.5451 28.2191C20.6261 28.0739 20.65 27.9037 20.612 27.7418C20.5686 27.557 20.3989 27.3873 20.0593 27.0477L19.84 26.8284C18.2779 25.2663 18.2779 22.7337 19.84 21.1716C21.3478 19.6638 23.7599 19.6114 25.3306 21.0144L27.84 18.5049C28.0881 18.2568 28.3606 18.0482 28.6499 17.8789C28.9461 17.7055 29.0942 17.6188 29.1642 17.5405C29.2375 17.4584 29.2675 17.4059 29.3013 17.3011C29.3336 17.2012 29.3335 17.0696 29.3333 16.8066C29.3322 14.9806 29.3307 13.1503 29.3297 11.8535Z" fill="black" fill-opacity="0.2"/>
<path d="M13.0865 29.2375C13.6061 29.526 13.8659 29.6703 14.0792 29.6454C14.2653 29.6236 14.4337 29.5245 14.5431 29.3724C14.6685 29.198 14.6685 28.8999 14.6685 28.3036V17.4033C14.6685 17.1762 14.6685 17.0626 14.6351 16.9612C14.6056 16.8715 14.5574 16.7891 14.4937 16.7194C14.4217 16.6407 14.3227 16.585 14.1247 16.4736L4.26344 10.9266C3.74139 10.633 3.48037 10.4861 3.26644 10.5103C3.07982 10.5313 2.9107 10.6301 2.80073 10.7824C2.67468 10.9569 2.67443 11.2558 2.67393 11.8536C2.67185 14.3418 2.66846 18.7941 2.66846 21.4115L2.66822 21.5077C2.66694 21.8595 2.66533 22.3019 2.80309 22.7188C2.92219 23.0793 3.11688 23.4102 3.37415 23.6894C3.6717 24.0122 4.05917 24.2257 4.36734 24.3954L4.45157 24.4419C6.82649 25.7613 10.8647 28.0038 13.0865 29.2375Z" fill="#151515"/>
<path d="M13.0865 29.2375C13.6061 29.526 13.8659 29.6703 14.0792 29.6454C14.2653 29.6236 14.4337 29.5245 14.5431 29.3724C14.6685 29.198 14.6685 28.8999 14.6685 28.3036V17.4033C14.6685 17.1762 14.6685 17.0626 14.6351 16.9612C14.6056 16.8715 14.5574 16.7891 14.4937 16.7194C14.4217 16.6407 14.3227 16.585 14.1247 16.4736L4.26344 10.9266C3.74139 10.633 3.48037 10.4861 3.26644 10.5103C3.07982 10.5313 2.9107 10.6301 2.80073 10.7824C2.67468 10.9569 2.67443 11.2558 2.67393 11.8536C2.67185 14.3418 2.66846 18.7941 2.66846 21.4115L2.66822 21.5077C2.66694 21.8595 2.66533 22.3019 2.80309 22.7188C2.92219 23.0793 3.11688 23.4102 3.37415 23.6894C3.6717 24.0122 4.05917 24.2257 4.36734 24.3954L4.45157 24.4419C6.82649 25.7613 10.8647 28.0038 13.0865 29.2375Z" fill="black" fill-opacity="0.2"/>
<path d="M13.0865 29.2375C13.6061 29.526 13.8659 29.6703 14.0792 29.6454C14.2653 29.6236 14.4337 29.5245 14.5431 29.3724C14.6685 29.198 14.6685 28.8999 14.6685 28.3036V17.4033C14.6685 17.1762 14.6685 17.0626 14.6351 16.9612C14.6056 16.8715 14.5574 16.7891 14.4937 16.7194C14.4217 16.6407 14.3227 16.585 14.1247 16.4736L4.26344 10.9266C3.74139 10.633 3.48037 10.4861 3.26644 10.5103C3.07982 10.5313 2.9107 10.6301 2.80073 10.7824C2.67468 10.9569 2.67443 11.2558 2.67393 11.8536C2.67185 14.3418 2.66846 18.7941 2.66846 21.4115L2.66822 21.5077C2.66694 21.8595 2.66533 22.3019 2.80309 22.7188C2.92219 23.0793 3.11688 23.4102 3.37415 23.6894C3.6717 24.0122 4.05917 24.2257 4.36734 24.3954L4.45157 24.4419C6.82649 25.7613 10.8647 28.0038 13.0865 29.2375Z" fill="black" fill-opacity="0.2"/>
<path d="M13.0865 29.2375C13.6061 29.526 13.8659 29.6703 14.0792 29.6454C14.2653 29.6236 14.4337 29.5245 14.5431 29.3724C14.6685 29.198 14.6685 28.8999 14.6685 28.3036V17.4033C14.6685 17.1762 14.6685 17.0626 14.6351 16.9612C14.6056 16.8715 14.5574 16.7891 14.4937 16.7194C14.4217 16.6407 14.3227 16.585 14.1247 16.4736L4.26344 10.9266C3.74139 10.633 3.48037 10.4861 3.26644 10.5103C3.07982 10.5313 2.9107 10.6301 2.80073 10.7824C2.67468 10.9569 2.67443 11.2558 2.67393 11.8536C2.67185 14.3418 2.66846 18.7941 2.66846 21.4115L2.66822 21.5077C2.66694 21.8595 2.66533 22.3019 2.80309 22.7188C2.92219 23.0793 3.11688 23.4102 3.37415 23.6894C3.6717 24.0122 4.05917 24.2257 4.36734 24.3954L4.45157 24.4419C6.82649 25.7613 10.8647 28.0038 13.0865 29.2375Z" fill="black" fill-opacity="0.2"/>
</svg>
