<svg width="32" height="32" viewBox="0 0 32 32" fill="none" xmlns="http://www.w3.org/2000/svg">
<path fill-rule="evenodd" clip-rule="evenodd" d="M6.66797 5.33268C5.93159 5.33268 5.33464 5.92964 5.33464 6.66602C5.33464 7.4024 5.93159 7.99935 6.66797 7.99935L25.3346 7.99935C27.5438 7.99935 29.3346 9.79021 29.3346 11.9994V25.3327C29.3346 27.5418 27.5438 29.3327 25.3346 29.3327H6.66797C4.45883 29.3327 2.66797 27.5418 2.66797 25.3327V6.66602C2.66797 4.45688 4.45883 2.66602 6.66797 2.66602H22.668C23.4044 2.66602 24.0013 3.26297 24.0013 3.99935C24.0013 4.73573 23.4044 5.33268 22.668 5.33268H6.66797ZM22.0013 16.666C20.8967 16.666 20.0013 17.5614 20.0013 18.666C20.0013 19.7706 20.8967 20.666 22.0013 20.666C23.1059 20.666 24.0013 19.7706 24.0013 18.666C24.0013 17.5614 23.1059 16.666 22.0013 16.666Z" fill="#FF4623"/>
</svg>
