<svg width="32" height="32" viewBox="0 0 32 32" fill="none" xmlns="http://www.w3.org/2000/svg">
<path fill-rule="evenodd" clip-rule="evenodd" d="M1.33203 6.66602C1.33203 4.45688 3.12289 2.66602 5.33203 2.66602H26.6654C28.8745 2.66602 30.6654 4.45688 30.6654 6.66602C30.6654 8.87515 28.8745 10.666 26.6654 10.666H5.33203C3.12289 10.666 1.33203 8.87516 1.33203 6.66602Z" fill="#D21F37"/>
<path fill-rule="evenodd" clip-rule="evenodd" d="M5.33203 13.3327C4.59565 13.3327 3.9987 13.9296 3.9987 14.666V21.6544C3.99868 22.7277 3.99867 23.6135 4.05762 24.3351C4.11886 25.0846 4.25028 25.7735 4.58 26.4206C5.09132 27.4242 5.90722 28.2401 6.91075 28.7514C7.55786 29.0811 8.2468 29.2125 8.99626 29.2738C9.71785 29.3327 10.6037 29.3327 11.6769 29.3327H20.3205C21.3937 29.3327 22.2795 29.3327 23.0011 29.2738C23.7506 29.2125 24.4395 29.0811 25.0866 28.7514C26.0902 28.2401 26.9061 27.4242 27.4174 26.4206C27.7471 25.7735 27.8785 25.0846 27.9398 24.3351C27.9987 23.6135 27.9987 22.7277 27.9987 21.6544V14.666C27.9987 13.9296 27.4017 13.3327 26.6654 13.3327H5.33203ZM13.332 17.3327C12.5957 17.3327 11.9987 17.9296 11.9987 18.666C11.9987 19.4024 12.5957 19.9993 13.332 19.9993H18.6654C19.4017 19.9993 19.9987 19.4024 19.9987 18.666C19.9987 17.9296 19.4017 17.3327 18.6654 17.3327H13.332Z" fill="#D21F37"/>
</svg>
