<svg width="32" height="32" viewBox="0 0 32 32" fill="none" xmlns="http://www.w3.org/2000/svg">
<path d="M16.539 1.58006C16.1846 1.50717 15.819 1.50717 15.4646 1.58006C15.0549 1.66432 14.6887 1.86943 14.3976 2.03248L14.3182 2.07681C11.9677 3.38269 7.99125 5.59289 5.74939 6.83904C5.20506 7.14161 4.93289 7.29289 4.84195 7.49283C4.76266 7.66714 4.76215 7.86713 4.84055 8.04183C4.93049 8.24223 5.20212 8.39502 5.74537 8.7006L15.4788 14.1757C15.6696 14.283 15.7649 14.3366 15.8661 14.3577C15.9556 14.3763 16.0479 14.3763 16.1374 14.3577C16.2386 14.3366 16.3339 14.283 16.5247 14.1757L26.2582 8.70059C26.8014 8.395 27.0731 8.24221 27.163 8.04181C27.2414 7.86711 27.2409 7.66712 27.1616 7.49281C27.0707 7.29287 26.7985 7.14159 26.2542 6.83902C24.0123 5.59287 20.0359 3.38268 17.6854 2.07681L17.606 2.03248C17.3149 1.86943 16.9487 1.66432 16.539 1.58006Z" fill="#FAA426"/>
<path d="M29.3297 11.8535C29.3292 11.2557 29.3289 10.9569 29.2029 10.7823C29.0929 10.6301 28.9238 10.5313 28.7371 10.5102C28.5232 10.4861 28.2622 10.6329 27.7402 10.9266L17.8788 16.4736C17.6809 16.5849 17.5819 16.6406 17.5099 16.7194C17.4461 16.789 17.3979 16.8715 17.3684 16.9612C17.3351 17.0626 17.3351 17.1761 17.3351 17.4033V28.3036C17.3351 28.8999 17.3351 29.198 17.4605 29.3724C17.5699 29.5245 17.7382 29.6236 17.9244 29.6454C18.1377 29.6703 18.3975 29.526 18.9171 29.2375C21.1389 28.0038 25.1771 25.7613 27.552 24.4419L27.6362 24.3954C27.9444 24.2257 28.3319 24.0123 28.6294 23.6894C28.8867 23.4102 29.0814 23.0793 29.2005 22.7188C29.3383 22.3019 29.3366 21.8595 29.3354 21.5077L29.3351 21.4115C29.3351 18.7941 29.3317 14.3417 29.3297 11.8535Z" fill="#FAA426"/>
<path d="M13.0865 29.2375C13.6061 29.526 13.8659 29.6703 14.0792 29.6454C14.2653 29.6236 14.4337 29.5245 14.5431 29.3724C14.6685 29.198 14.6685 28.8999 14.6685 28.3036V17.4033C14.6685 17.1762 14.6685 17.0626 14.6351 16.9612C14.6056 16.8715 14.5574 16.7891 14.4937 16.7194C14.4217 16.6407 14.3227 16.585 14.1247 16.4736L4.26344 10.9266C3.74139 10.633 3.48037 10.4861 3.26644 10.5103C3.07982 10.5313 2.9107 10.6301 2.80073 10.7824C2.67468 10.9569 2.67443 11.2558 2.67393 11.8536C2.67185 14.3418 2.66846 18.7941 2.66846 21.4115L2.66822 21.5077C2.66694 21.8595 2.66533 22.3019 2.80309 22.7188C2.92219 23.0793 3.11688 23.4102 3.37415 23.6894C3.6717 24.0122 4.05917 24.2257 4.36734 24.3954L4.45157 24.4419C6.82649 25.7613 10.8647 28.0038 13.0865 29.2375Z" fill="#FAA426"/>
</svg>
