<svg width="15" height="16" viewBox="0 0 15 16" fill="none" xmlns="http://www.w3.org/2000/svg">
<path fill-rule="evenodd" clip-rule="evenodd" d="M0.593778 1.13514C0.852134 1.50683 5.95678 8.93919 5.95904 8.94696C5.96048 8.95193 4.97424 10.1036 3.76739 11.5062C2.56054 12.9088 1.33177 14.337 1.03682 14.6798L0.50051 15.3032H1.1179H1.73527L4.1242 12.5268L6.51312 9.7504L6.55153 9.80401C6.57264 9.83349 7.43163 11.0829 8.46039 12.5804L10.3309 15.3032H12.4154H14.5L14.3916 15.1465C13.5323 13.9043 8.85037 7.0816 8.8462 7.06557C8.84283 7.05259 9.89719 5.81598 11.4381 4.02565L14.0357 1.00761L13.4253 1.00381L12.815 1L12.7691 1.04755C12.7438 1.07369 11.7272 2.2531 10.51 3.66845C9.29274 5.08379 8.29108 6.2418 8.28406 6.2418C8.27703 6.2418 7.46207 5.06411 6.47301 3.62471L4.67476 1.00761L2.58738 1.00392L0.5 1.00022L0.593778 1.13514ZM5.54598 4.02931C6.35181 5.18203 7.32318 6.57131 7.70461 7.1166C8.08602 7.66189 9.36806 9.49567 10.5536 11.1917C11.7391 12.8877 12.7317 14.3066 12.7593 14.3447L12.8096 14.4141L11.8576 14.4103L10.9056 14.4066L10.824 14.2899C10.6873 14.0944 7.70434 9.82834 5.5023 6.6792C2.31577 2.12214 2.19276 1.94597 2.19276 1.9395C2.19276 1.93616 2.61757 1.93344 3.13681 1.93345L4.08086 1.93346L5.54598 4.02931Z" fill="#626262" stroke="#626262" stroke-width="0.3"/>
</svg>
