<svg width="56" height="57" viewBox="0 0 56 57" fill="none" xmlns="http://www.w3.org/2000/svg">
<circle cx="28" cy="28.5" r="28" fill="#F0F2F5"/>
<path d="M20.9993 25.583C20.9993 22.0392 23.8722 19.1663 27.416 19.1663C30.5552 19.1663 33.17 21.4217 33.7242 24.4008C33.8019 24.8186 34.1006 25.161 34.5039 25.2948C36.8265 26.0651 38.4994 28.2552 38.4994 30.833C38.4994 34.0547 35.8877 36.6663 32.666 36.6663C32.0217 36.6663 31.4993 37.1887 31.4993 37.833C31.4993 38.4773 32.0217 38.9997 32.666 38.9997C37.1763 38.9997 40.8327 35.3433 40.8327 30.833C40.8327 27.4585 38.7866 24.5645 35.87 23.3192C34.872 19.584 31.4664 16.833 27.416 16.833C22.5835 16.833 18.666 20.7505 18.666 25.583C18.666 25.7 18.6683 25.8165 18.6729 25.9325C16.5782 27.141 15.166 29.4043 15.166 31.9997C15.166 35.8657 18.3 38.9997 22.166 38.9997C22.8103 38.9997 23.3327 38.4773 23.3327 37.833C23.3327 37.1887 22.8103 36.6663 22.166 36.6663C19.5887 36.6663 17.4993 34.577 17.4993 31.9997C17.4993 30.0661 18.6756 28.4046 20.3561 27.6966C20.8424 27.4918 21.1307 26.986 21.0591 26.4632C21.0197 26.176 20.9993 25.8822 20.9993 25.583Z" fill="#475367"/>
<path d="M27.2243 31.1277C27.6663 30.7348 28.3324 30.7348 28.7744 31.1277L30.5244 32.6833C31.006 33.1113 31.0494 33.8487 30.6213 34.3303C30.2468 34.7516 29.6356 34.8376 29.166 34.5659V40.1663C29.166 40.8107 28.6437 41.333 27.9993 41.333C27.355 41.333 26.8327 40.8107 26.8327 40.1663V34.5659C26.3631 34.8376 25.7519 34.7516 25.3774 34.3303C24.9493 33.8487 24.9927 33.1113 25.4743 32.6833L27.2243 31.1277Z" fill="#475367"/>
</svg>
