<svg width="1440" height="752" viewBox="0 0 1440 752" fill="none" xmlns="http://www.w3.org/2000/svg">
<path d="M66.8238 124.413C81.848 124.413 96.5349 119.958 109.027 111.611C121.52 103.264 131.256 91.3996 137.006 77.5189C142.755 63.6383 144.259 48.3646 141.328 33.6288C138.397 18.8933 131.162 5.3576 120.538 -5.26605C109.915 -15.8901 96.3791 -23.1249 81.6436 -26.0558C66.9081 -28.9871 51.6341 -27.4826 37.7534 -21.733C23.8728 -15.9838 12.0086 -6.24689 3.66187 6.24511C-4.68526 18.7375 -9.14062 33.4243 -9.14062 48.4488H66.8238V124.413ZM66.8238 124.413C56.848 124.413 46.9699 126.378 37.7534 130.196C28.5369 134.013 20.1629 139.609 13.1089 146.663C6.05496 153.717 0.459337 162.091 -3.35799 171.307C-7.17568 180.523 -9.14062 190.402 -9.14062 200.377C-9.14062 210.353 -7.17568 220.231 -3.35799 229.447C0.459337 238.664 6.05496 247.038 13.1089 254.092C20.1629 261.146 28.5369 266.742 37.7534 270.559C46.9699 274.377 56.848 276.342 66.8238 276.342V124.413ZM66.8238 428.268C56.848 428.272 46.9699 426.304 37.7534 422.487C28.5369 418.67 20.1629 413.075 13.1089 406.022C6.05496 398.967 0.459337 390.593 -3.35799 381.376C-7.17568 372.16 -9.14062 362.282 -9.14062 352.307H142.788M66.8238 428.268C76.7997 428.268 86.6774 426.304 95.8939 422.487C105.11 418.67 113.485 413.075 120.538 406.022C127.592 398.967 133.188 390.593 137.006 381.376C140.823 372.16 142.788 362.282 142.788 352.307M66.8238 428.268C56.848 428.268 46.9699 430.237 37.7534 434.053C28.5369 437.87 20.1629 443.466 13.1089 450.518C6.05496 457.574 0.459337 465.948 -3.35799 475.164C-7.17568 484.381 -9.14062 494.258 -9.14062 504.234H66.8238M66.8238 428.268V504.234M142.788 352.307C142.788 337.28 147.243 322.595 155.59 310.102C163.937 297.61 175.801 287.873 189.682 282.124C203.563 276.375 218.837 274.87 233.572 277.801C248.308 280.732 261.843 287.967 272.467 298.591C283.091 309.215 290.326 322.75 293.257 337.487C296.188 352.223 294.684 367.497 288.934 381.376C283.185 395.255 273.448 407.119 260.956 415.468C248.463 423.816 233.777 428.272 218.752 428.268M142.788 352.307H218.752V428.268M66.8238 504.234V580.199C76.7993 580.199 86.6774 578.234 95.8939 574.417C105.11 570.597 113.485 565.005 120.538 557.949C127.592 550.897 133.188 542.519 137.006 533.306C140.823 524.09 142.788 514.209 142.788 504.234M66.8238 504.234H142.788M218.752 428.268C208.777 428.268 198.898 430.237 189.682 434.053C180.466 437.87 172.092 443.466 165.038 450.518C157.984 457.574 152.388 465.948 148.571 475.164C144.753 484.381 142.788 494.258 142.788 504.234M218.752 428.268V580.199C208.777 580.199 198.898 578.234 189.682 574.417C180.466 570.597 172.092 565.005 165.038 557.949C157.984 550.897 152.388 542.519 148.571 533.306C144.753 524.09 142.788 514.209 142.788 504.234M142.788 656.164C142.788 641.137 138.333 626.452 129.986 613.96C121.639 601.468 109.775 591.732 95.8939 585.98C82.0133 580.231 66.7396 578.728 52.0038 581.659C37.2683 584.589 23.7326 591.823 13.1089 602.448C2.48493 613.074 -4.7499 626.608 -7.6808 641.344C-10.6121 656.08 -9.10758 671.354 -3.35799 685.233C2.3916 699.112 12.1281 710.976 24.6201 719.325C37.1125 727.673 51.7993 732.129 66.8238 732.129V656.164H142.788ZM142.788 656.164C142.788 641.137 147.243 626.452 155.59 613.96C163.937 601.468 175.801 591.732 189.682 585.98C203.563 580.231 218.837 578.728 233.572 581.659C248.308 584.589 261.843 591.823 272.467 602.448C283.091 613.074 290.326 626.608 293.257 641.344C296.188 656.08 294.684 671.354 288.934 685.233C283.185 699.112 273.448 710.976 260.956 719.325C248.463 727.673 233.777 732.129 218.752 732.129V656.164H142.788ZM120.538 754.375C109.915 743.753 96.3791 736.519 81.6436 733.585C66.9081 730.655 51.6341 732.162 37.7534 737.91C23.8728 743.659 12.0086 753.395 3.66187 765.887M218.752 124.413C208.777 124.413 198.898 122.448 189.682 118.631C180.466 114.813 172.092 109.217 165.038 102.163C157.984 95.1098 152.388 86.7354 148.571 77.5189C144.753 68.3024 142.788 58.4243 142.788 48.4488H294.717M218.752 124.413C228.728 124.413 238.606 122.448 247.822 118.631C257.039 114.813 265.413 109.217 272.467 102.163C279.521 95.1098 285.117 86.7354 288.934 77.5189C292.752 68.3024 294.717 58.4243 294.717 48.4488M218.752 124.413C208.777 124.413 198.898 126.378 189.682 130.196C180.466 134.013 172.092 139.609 165.038 146.663C157.984 153.717 152.388 162.091 148.571 171.307C144.753 180.523 142.788 190.402 142.788 200.377H218.752M218.752 124.413V200.377M294.717 48.4488C294.717 38.473 296.681 28.5949 300.499 19.3784C304.317 10.1619 309.912 1.78793 316.966 -5.26605C324.02 -12.32 332.394 -17.9157 341.611 -21.733C350.827 -25.5507 360.706 -27.5156 370.682 -27.5156V124.413M294.717 48.4488C294.717 58.4243 296.681 68.3024 300.499 77.5189C304.317 86.7354 309.912 95.1098 316.966 102.163C324.02 109.217 332.394 114.813 341.611 118.631C350.827 122.448 360.706 124.413 370.682 124.413M218.752 200.377H294.717C294.717 210.353 292.752 220.231 288.934 229.447C285.117 238.664 279.521 247.038 272.467 254.092C265.413 261.146 257.039 266.742 247.822 270.559C238.606 274.377 228.728 276.342 218.752 276.342V200.377ZM370.682 124.413C380.657 124.413 390.535 126.378 399.751 130.196C408.968 134.013 417.342 139.609 424.397 146.663C431.45 153.717 437.045 162.091 440.862 171.307C444.679 180.523 446.647 190.402 446.647 200.377M370.682 124.413V276.342C380.657 276.342 390.535 274.377 399.751 270.559C408.968 266.742 417.342 261.146 424.397 254.092C431.45 247.038 437.045 238.664 440.862 229.447C444.679 220.231 446.647 210.353 446.647 200.377M446.647 200.377C446.647 190.402 448.612 180.523 452.428 171.307C456.245 162.091 461.841 153.717 468.893 146.663C475.949 139.609 484.323 134.013 493.539 130.196C502.756 126.378 512.633 124.413 522.609 124.413M446.647 200.377C446.647 210.353 448.612 220.231 452.428 229.447C456.245 238.664 461.841 247.038 468.893 254.092C475.949 261.146 484.323 266.742 493.539 270.559C502.756 274.377 512.633 276.342 522.609 276.342M522.609 124.413C507.585 124.413 492.896 119.958 480.404 111.611C467.912 103.264 458.177 91.3996 452.428 77.5189C446.68 63.6383 445.173 48.3646 448.103 33.6288C451.037 18.8933 458.271 5.3576 468.893 -5.26605C479.518 -15.8901 493.053 -23.1249 507.789 -26.0558C522.525 -28.9871 537.799 -27.4826 551.681 -21.733C565.561 -15.9834 577.424 -6.24689 585.773 6.24511C594.118 18.7375 598.574 33.4243 598.574 48.4488M522.609 124.413V48.4488H598.574M522.609 124.413V276.342M522.609 276.342C532.584 276.342 542.465 278.306 551.681 282.124C560.898 285.941 569.272 291.537 576.324 298.591C583.38 305.645 588.972 314.019 592.792 323.236C596.609 332.452 598.574 342.331 598.574 352.307M522.609 276.342V428.268C532.584 428.268 542.465 426.304 551.681 422.487C560.898 418.67 569.272 413.075 576.324 406.022C583.38 398.967 588.972 390.593 592.792 381.376C596.609 372.16 598.574 362.282 598.574 352.307M370.682 428.268C355.655 428.272 340.97 423.816 328.477 415.468C315.985 407.119 306.248 395.255 300.499 381.376C294.75 367.497 293.245 352.223 296.176 337.487C299.107 322.75 306.342 309.215 316.966 298.591C327.59 287.967 341.125 280.732 355.862 277.801C370.598 274.87 385.872 276.375 399.751 282.124C413.63 287.873 425.494 297.61 433.843 310.102C442.191 322.595 446.647 337.28 446.647 352.307H370.682V428.268ZM370.682 428.268C380.657 428.268 390.535 430.237 399.751 434.053C408.968 437.87 417.342 443.466 424.397 450.518C431.45 457.574 437.045 465.948 440.862 475.164C444.679 484.381 446.647 494.258 446.647 504.234M370.682 428.268V580.199M446.647 504.234C446.647 514.209 444.679 524.09 440.862 533.306C437.045 542.519 431.45 550.897 424.397 557.949C417.342 565.005 408.968 570.597 399.751 574.417C390.535 578.234 380.657 580.199 370.682 580.199M446.647 504.234C446.647 489.21 451.099 474.521 459.448 462.029C467.796 449.537 479.66 439.802 493.539 434.053C507.418 428.305 522.692 426.798 537.428 429.728C552.164 432.662 565.702 439.896 576.324 450.518C586.95 461.143 594.183 474.678 597.114 489.414C600.044 504.15 598.541 519.424 592.792 533.306C587.04 547.186 577.305 559.049 564.813 567.398C552.321 575.743 537.635 580.199 522.609 580.199M446.647 504.234H522.609V580.199M370.682 580.199C360.706 580.199 350.827 582.163 341.611 585.98C332.394 589.8 324.02 595.392 316.966 602.448C309.912 609.5 304.317 617.878 300.499 627.095C296.681 636.307 294.717 646.188 294.717 656.164H370.682M370.682 580.199V656.164M370.682 656.164H446.647C446.647 666.139 444.679 676.017 440.862 685.233C437.045 694.45 431.45 702.824 424.397 709.88C417.342 716.932 408.968 722.528 399.751 726.344C390.535 730.161 380.657 732.129 370.682 732.129M370.682 656.164V732.129M522.609 580.199C532.584 580.199 542.465 582.163 551.681 585.98C560.898 589.8 569.272 595.392 576.324 602.448C583.38 609.5 588.972 617.878 592.792 627.095C596.609 636.307 598.574 646.188 598.574 656.164C598.574 666.139 596.609 676.017 592.792 685.233C588.972 694.45 583.38 702.824 576.324 709.88C569.272 716.932 560.898 722.528 551.681 726.344C542.465 730.161 532.584 732.125 522.609 732.129V580.199ZM370.682 732.129C360.706 732.129 350.827 734.094 341.611 737.91C332.394 741.727 324.02 747.323 316.966 754.375C309.912 761.431 304.317 769.805 300.499 779.021M598.574 48.4488C598.574 33.4243 603.029 18.7375 611.374 6.24511C619.723 -6.24689 631.587 -15.9838 645.47 -21.733C659.349 -27.4826 674.622 -28.9871 689.359 -26.0558C704.095 -23.1249 717.629 -15.8901 728.255 -5.26605C738.876 5.3576 746.11 18.8933 749.044 33.6288C751.975 48.3646 750.468 63.6383 744.719 77.5189C738.971 91.3996 729.235 103.264 716.743 111.611C704.251 119.958 689.562 124.413 674.539 124.413M598.574 48.4488H674.539V124.413M674.539 124.413C664.563 124.413 654.682 126.378 645.47 130.196C636.253 134.013 627.875 139.609 620.823 146.663C613.767 153.717 608.175 162.091 604.355 171.307C600.538 180.523 598.574 190.402 598.574 200.377C598.574 210.353 600.538 220.231 604.355 229.447C608.175 238.664 613.767 247.038 620.823 254.092C627.875 261.146 636.253 266.742 645.47 270.559C654.682 274.377 664.563 276.342 674.539 276.342V124.413ZM598.574 352.307C598.574 362.282 600.538 372.16 604.355 381.376C608.175 390.593 613.767 398.967 620.823 406.022C627.875 413.075 636.253 418.67 645.47 422.487C654.682 426.304 664.563 428.272 674.539 428.268M598.574 352.307H750.504M674.539 428.268C684.514 428.268 694.392 426.304 703.608 422.487C712.825 418.67 721.199 413.075 728.255 406.022C735.307 398.967 740.903 390.593 744.719 381.376C748.536 372.16 750.504 362.282 750.504 352.307M674.539 428.268C664.563 428.268 654.682 430.237 645.47 434.053C636.253 437.87 627.875 443.466 620.823 450.518C613.767 457.574 608.175 465.948 604.355 475.164C600.538 484.381 598.574 494.258 598.574 504.234H674.539M674.539 428.268V504.234M750.504 352.307C750.504 337.28 754.956 322.595 763.305 310.102C771.653 297.61 783.517 287.873 797.396 282.124C811.276 276.375 826.549 274.87 841.285 277.801C856.022 280.732 869.559 287.967 880.181 298.591C890.807 309.215 898.04 322.75 900.971 337.487C903.902 352.223 902.398 367.497 896.65 381.376C890.898 395.255 881.162 407.119 868.67 415.468C856.178 423.816 841.492 428.272 826.466 428.268M750.504 352.307H826.466V428.268M585.773 765.887C577.424 753.395 565.561 743.659 551.681 737.91C537.799 732.162 522.525 730.655 507.789 733.585C493.053 736.519 479.518 743.753 468.893 754.375M674.539 504.234V580.199C684.514 580.199 694.392 578.234 703.608 574.417C712.825 570.597 721.199 565.005 728.255 557.949C735.307 550.897 740.903 542.519 744.719 533.306C748.536 524.09 750.504 514.209 750.504 504.234M674.539 504.234H750.504M826.466 428.268C816.49 428.268 806.613 430.237 797.396 434.053C788.18 437.87 779.806 443.466 772.75 450.518C765.698 457.574 760.102 465.948 756.285 475.164C752.469 484.381 750.5 494.258 750.504 504.234M826.466 428.268V580.199C816.49 580.199 806.613 578.234 797.396 574.417C788.18 570.597 779.806 565.005 772.75 557.949C765.698 550.897 760.102 542.519 756.285 533.306C752.469 524.09 750.504 514.209 750.504 504.234M750.504 656.164C750.504 641.137 746.048 626.452 737.7 613.96C729.351 601.468 717.487 591.732 703.608 585.98C689.729 580.231 674.455 578.728 659.719 581.659C644.983 584.589 631.449 591.823 620.823 602.448C610.198 613.074 602.964 626.608 600.034 641.344C597.103 656.08 598.606 671.354 604.355 685.233C610.107 699.112 619.843 710.976 632.335 719.325C644.827 727.673 659.512 732.129 674.539 732.129V656.164H750.504ZM750.504 656.164C750.504 641.137 754.956 626.452 763.305 613.96C771.653 601.468 783.517 591.732 797.396 585.98C811.276 580.231 826.549 578.728 841.285 581.659C856.022 584.589 869.559 591.823 880.181 602.448C890.807 613.074 898.04 626.608 900.971 641.344C903.902 656.08 902.398 671.354 896.65 685.233C890.898 699.112 881.162 710.976 868.67 719.325C856.178 727.673 841.492 732.129 826.466 732.129V656.164H750.504ZM728.255 754.375C717.629 743.753 704.095 736.519 689.359 733.585C674.622 730.655 659.349 732.162 645.47 737.91C631.587 743.659 619.723 753.395 611.374 765.887M826.466 124.413C816.49 124.413 806.613 122.448 797.396 118.631C788.18 114.813 779.806 109.217 772.75 102.163C765.698 95.1098 760.102 86.7354 756.285 77.5189C752.469 68.3024 750.501 58.4243 750.501 48.4488H902.431M826.466 124.413C836.441 124.413 846.322 122.448 855.535 118.631C864.752 114.813 873.129 109.217 880.181 102.163C887.237 95.1098 892.829 86.7354 896.65 77.5189C900.466 68.3024 902.431 58.4243 902.431 48.4488M826.466 124.413C816.49 124.413 806.613 126.378 797.396 130.196C788.18 134.013 779.806 139.609 772.75 146.663C765.698 153.717 760.102 162.091 756.285 171.307C752.469 180.523 750.5 190.402 750.504 200.377H826.466M826.466 124.413V200.377M902.431 48.4488C902.431 38.473 904.395 28.5949 908.212 19.3784C912.032 10.1619 917.625 1.78793 924.68 -5.26605C931.733 -12.32 940.11 -17.9157 949.327 -21.733C958.54 -25.5507 968.421 -27.5156 978.396 -27.5156V124.413M902.431 48.4488C902.431 58.4243 904.395 68.3024 908.212 77.5189C912.032 86.7354 917.625 95.1098 924.68 102.163C931.733 109.217 940.11 114.813 949.327 118.631C958.54 122.448 968.421 124.413 978.396 124.413M826.466 200.377H902.431C902.431 210.353 900.466 220.231 896.65 229.447C892.829 238.664 887.237 247.038 880.181 254.092C873.129 261.146 864.752 266.742 855.535 270.559C846.322 274.377 836.441 276.342 826.466 276.342V200.377ZM978.396 124.413C988.371 124.413 998.249 126.378 1007.47 130.196C1016.68 134.013 1025.06 139.609 1032.11 146.663C1039.16 153.717 1044.76 162.091 1048.58 171.307C1052.39 180.523 1054.36 190.402 1054.36 200.377M978.396 124.413V276.342C988.371 276.342 998.249 274.377 1007.47 270.559C1016.68 266.742 1025.06 261.146 1032.11 254.092C1039.16 247.038 1044.76 238.664 1048.58 229.447C1052.39 220.231 1054.36 210.353 1054.36 200.377M1054.36 200.377C1054.36 190.402 1056.33 180.523 1060.14 171.307C1063.96 162.091 1069.55 153.717 1076.61 146.663C1083.66 139.609 1092.04 134.013 1101.25 130.196C1110.47 126.378 1120.35 124.413 1130.32 124.413M1054.36 200.377C1054.36 210.353 1056.33 220.231 1060.14 229.447C1063.96 238.664 1069.55 247.038 1076.61 254.092C1083.66 261.146 1092.04 266.742 1101.25 270.559C1110.47 274.377 1120.35 276.342 1130.32 276.342M1130.32 124.413C1115.3 124.413 1100.61 119.958 1088.12 111.611C1075.63 103.264 1065.89 91.3996 1060.14 77.5189C1054.39 63.6383 1052.89 48.3646 1055.82 33.6288C1058.75 18.8933 1065.99 5.3576 1076.61 -5.26605C1087.23 -15.8901 1100.77 -23.1249 1115.5 -26.0558C1130.24 -28.9871 1145.51 -27.4826 1159.4 -21.733C1173.28 -15.9834 1185.14 -6.24689 1193.49 6.24511C1201.83 18.7375 1206.29 33.4243 1206.29 48.4488M1130.32 124.413V48.4488H1206.29M1130.32 124.413V276.342M1130.32 276.342C1140.3 276.342 1150.18 278.306 1159.4 282.124C1168.61 285.941 1176.99 291.537 1184.04 298.591C1191.09 305.645 1196.69 314.019 1200.51 323.236C1204.32 332.452 1206.29 342.331 1206.29 352.307M1130.32 276.342V428.268C1140.3 428.268 1150.18 426.304 1159.4 422.487C1168.61 418.67 1176.99 413.075 1184.04 406.022C1191.09 398.967 1196.69 390.593 1200.51 381.376C1204.32 372.16 1206.29 362.282 1206.29 352.307M978.396 428.268C963.369 428.272 948.684 423.816 936.192 415.468C923.7 407.119 913.964 395.255 908.212 381.376C902.464 367.497 900.96 352.223 903.891 337.487C906.821 322.75 914.055 309.215 924.68 298.591C935.302 287.967 948.84 280.732 963.576 277.801C978.312 274.87 993.586 276.375 1007.47 282.124C1021.34 287.873 1033.21 297.61 1041.56 310.102C1049.91 322.595 1054.36 337.28 1054.36 352.307H978.396V428.268ZM978.396 428.268C988.371 428.268 998.249 430.237 1007.47 434.053C1016.68 437.87 1025.06 443.466 1032.11 450.518C1039.16 457.574 1044.76 465.948 1048.58 475.164C1052.39 484.381 1054.36 494.258 1054.36 504.234M978.396 428.268V580.199M1054.36 504.234C1054.36 514.209 1052.39 524.09 1048.58 533.306C1044.76 542.519 1039.16 550.897 1032.11 557.949C1025.06 565.005 1016.68 570.597 1007.47 574.417C998.249 578.234 988.371 580.199 978.396 580.199M1054.36 504.234C1054.36 489.21 1058.81 474.521 1067.16 462.029C1075.51 449.537 1087.37 439.802 1101.25 434.053C1115.13 428.305 1130.41 426.798 1145.14 429.728C1159.88 432.662 1173.42 439.896 1184.04 450.518C1194.66 461.143 1201.9 474.678 1204.83 489.414C1207.76 504.15 1206.26 519.424 1200.51 533.306C1194.75 547.186 1185.02 559.049 1172.53 567.398C1160.03 575.743 1145.35 580.199 1130.32 580.199M1054.36 504.234H1130.32V580.199M978.396 580.199C968.421 580.199 958.54 582.163 949.327 585.98C940.11 589.8 931.733 595.392 924.68 602.448C917.625 609.5 912.032 617.878 908.212 627.095C904.395 636.307 902.431 646.188 902.431 656.164H978.396M978.396 580.199V656.164M978.396 656.164H1054.36C1054.36 666.139 1052.39 676.017 1048.58 685.233C1044.76 694.45 1039.16 702.824 1032.11 709.88C1025.06 716.932 1016.68 722.528 1007.47 726.344C998.249 730.161 988.371 732.129 978.396 732.129M978.396 656.164V732.129M1130.32 580.199C1140.3 580.199 1150.18 582.163 1159.4 585.98C1168.61 589.8 1176.99 595.392 1184.04 602.448C1191.09 609.5 1196.69 617.878 1200.51 627.095C1204.32 636.307 1206.29 646.188 1206.29 656.164C1206.29 666.139 1204.32 676.017 1200.51 685.233C1196.69 694.45 1191.09 702.824 1184.04 709.88C1176.99 716.932 1168.61 722.528 1159.4 726.344C1150.18 730.161 1140.3 732.125 1130.32 732.129V580.199ZM978.396 732.129C968.421 732.129 958.54 734.094 949.327 737.91C940.11 741.727 931.733 747.323 924.68 754.375C917.625 761.431 912.032 769.805 908.212 779.021M1206.29 48.4488C1206.29 33.4243 1210.74 18.7375 1219.09 6.24511C1227.44 -6.24689 1239.3 -15.9838 1253.18 -21.733C1267.06 -27.4826 1282.34 -28.9871 1297.07 -26.0558C1311.81 -23.1249 1325.34 -15.8901 1335.97 -5.26605C1346.59 5.3576 1353.82 18.8933 1356.76 33.6288C1359.69 48.3646 1358.18 63.6383 1352.43 77.5189C1346.69 91.3996 1336.95 103.264 1324.46 111.611C1311.97 119.958 1297.28 124.413 1282.25 124.413M1206.29 48.4488H1282.25V124.413M1282.25 124.413C1272.28 124.413 1262.4 126.378 1253.18 130.196C1243.97 134.013 1235.59 139.609 1228.54 146.663C1221.48 153.717 1215.89 162.091 1212.07 171.307C1208.25 180.523 1206.29 190.402 1206.29 200.377C1206.29 210.353 1208.25 220.231 1212.07 229.447C1215.89 238.664 1221.48 247.038 1228.54 254.092C1235.59 261.146 1243.97 266.742 1253.18 270.559C1262.4 274.377 1272.28 276.342 1282.25 276.342V124.413ZM1206.29 352.307C1206.29 362.282 1208.25 372.16 1212.07 381.376C1215.89 390.593 1221.48 398.967 1228.54 406.022C1235.59 413.075 1243.97 418.67 1253.18 422.487C1262.4 426.304 1272.28 428.272 1282.25 428.268M1206.29 352.307H1358.22M1282.25 428.268C1292.23 428.268 1302.11 426.304 1311.32 422.487C1320.54 418.67 1328.91 413.075 1335.97 406.022C1343.02 398.967 1348.62 390.593 1352.43 381.376C1356.25 372.16 1358.22 362.282 1358.22 352.307M1282.25 428.268C1272.28 428.268 1262.4 430.237 1253.18 434.053C1243.97 437.87 1235.59 443.466 1228.54 450.518C1221.48 457.574 1215.89 465.948 1212.07 475.164C1208.25 484.381 1206.29 494.258 1206.29 504.234H1282.25M1282.25 428.268V504.234M1358.22 352.307C1358.22 337.28 1362.67 322.595 1371.02 310.102C1379.37 297.61 1391.23 287.873 1405.11 282.124C1418.99 276.375 1434.26 274.87 1449 277.801M1358.22 352.307H1434.18V428.268M1193.49 765.887C1185.14 753.395 1173.28 743.659 1159.4 737.91C1145.51 732.162 1130.24 730.655 1115.5 733.585C1100.77 736.519 1087.23 743.753 1076.61 754.375M1282.25 504.234V580.199C1292.23 580.199 1302.11 578.234 1311.32 574.417C1320.54 570.597 1328.91 565.005 1335.97 557.949C1343.02 550.897 1348.62 542.519 1352.43 533.306C1356.25 524.09 1358.22 514.209 1358.22 504.234M1282.25 504.234H1358.22M1434.18 428.268C1424.2 428.268 1414.33 430.237 1405.11 434.053C1395.89 437.87 1387.52 443.466 1380.46 450.518C1373.41 457.574 1367.82 465.948 1364 475.164C1360.18 484.381 1358.21 494.258 1358.22 504.234M1434.18 428.268V580.199C1424.2 580.199 1414.33 578.234 1405.11 574.417C1395.89 570.597 1387.52 565.005 1380.46 557.949C1373.41 550.897 1367.82 542.519 1364 533.306C1360.18 524.09 1358.22 514.209 1358.22 504.234M1358.22 656.164C1358.22 641.137 1353.76 626.452 1345.41 613.96C1337.07 601.468 1325.2 591.732 1311.32 585.98C1297.44 580.231 1282.17 578.728 1267.43 581.659C1252.7 584.589 1239.16 591.823 1228.54 602.448C1217.91 613.074 1210.68 626.608 1207.75 641.344C1204.82 656.08 1206.32 671.354 1212.07 685.233C1217.82 699.112 1227.56 710.976 1240.05 719.325C1252.54 727.673 1267.23 732.129 1282.25 732.129V656.164H1358.22ZM1358.22 656.164C1358.22 641.137 1362.67 626.452 1371.02 613.96C1379.37 601.468 1391.23 591.732 1405.11 585.98C1418.99 580.231 1434.26 578.728 1449 581.659M1358.22 656.164H1434.18V732.129M1335.97 754.375C1325.34 743.753 1311.81 736.519 1297.07 733.585C1282.34 730.655 1267.06 732.162 1253.18 737.91C1239.3 743.659 1227.44 753.395 1219.09 765.887M1358.22 48.4488C1358.22 58.4243 1360.18 68.3024 1364 77.5189C1367.82 86.7354 1373.41 95.1098 1380.46 102.163C1387.52 109.217 1395.89 114.813 1405.11 118.631C1414.33 122.448 1424.2 124.413 1434.18 124.413M1434.18 124.413C1424.2 124.413 1414.33 126.378 1405.11 130.196C1395.89 134.013 1387.52 139.609 1380.46 146.663C1373.41 153.717 1367.82 162.091 1364 171.307C1360.18 180.523 1358.21 190.402 1358.22 200.377H1434.18M1434.18 124.413V200.377M1434.18 200.377V276.342" stroke="#EBEBEB" stroke-width="1.14646" stroke-miterlimit="10" stroke-dasharray="1.09 1.09"/>
</svg>
