<svg width="40" height="40" viewBox="0 0 40 40" fill="none" xmlns="http://www.w3.org/2000/svg">
<path d="M17.7614 25.2782H15.0146L16.7313 14.7276H19.4785L17.7614 25.2782ZM12.7037 14.7276L10.085 21.9844L9.77509 20.4217L9.77537 20.4223L8.85109 15.6775C8.85109 15.6775 8.73933 14.7276 7.54807 14.7276H3.21877L3.16797 14.9062C3.16797 14.9062 4.49188 15.1817 6.04128 16.1122L8.42775 25.2785H11.2898L15.66 14.7276H12.7037ZM34.3093 25.2782H36.8315L34.6324 14.7273H32.4243C31.4046 14.7273 31.1563 15.5136 31.1563 15.5136L27.0595 25.2782H29.923L30.4956 23.711H33.9875L34.3093 25.2782ZM31.2867 21.5461L32.73 17.5978L33.5419 21.5461H31.2867ZM27.2743 17.2648L27.6663 14.9991C27.6663 14.9991 26.4567 14.5391 25.1957 14.5391C23.8326 14.5391 20.5955 15.1348 20.5955 18.0319C20.5955 20.7576 24.3948 20.7914 24.3948 22.2231C24.3948 23.6549 20.9869 23.3983 19.8623 22.4955L19.4539 24.8645C19.4539 24.8645 20.6805 25.4602 22.5544 25.4602C24.4289 25.4602 27.2568 24.4897 27.2568 21.8481C27.2568 19.1049 23.4234 18.8495 23.4234 17.6568C23.4237 16.4638 26.0989 16.6171 27.2743 17.2648Z" fill="#2566AF"/>
<path d="M9.77537 20.4213L8.85109 15.6765C8.85109 15.6765 8.73933 14.7266 7.54807 14.7266H3.21877L3.16797 14.9052C3.16797 14.9052 5.2488 15.3364 7.24468 16.9522C9.15307 18.4965 9.77537 20.4213 9.77537 20.4213Z" fill="#E6A540"/>
</svg>
