<svg width="40" height="27" viewBox="0 0 40 27" fill="none" xmlns="http://www.w3.org/2000/svg">
<g id="Visa" clip-path="url(#clip0_955_12029)">
<g id="Group">
<path id="Vector" d="M17.7653 18.2782H15.0185L16.7352 7.72759H19.4824L17.7653 18.2782ZM12.7076 7.72759L10.0889 14.9844L9.77899 13.4217L9.77927 13.4223L8.85499 8.67755C8.85499 8.67755 8.74323 7.72759 7.55197 7.72759H3.22268L3.17188 7.90623C3.17188 7.90623 4.49578 8.18168 6.04518 9.11217L8.43166 18.2785H11.2937L15.6639 7.72759H12.7076ZM34.3132 18.2782H36.8354L34.6363 7.72731H32.4282C31.4085 7.72731 31.1602 8.51358 31.1602 8.51358L27.0634 18.2782H29.9269L30.4995 16.711H33.9914L34.3132 18.2782ZM31.2906 14.5461L32.7339 10.5978L33.5458 14.5461H31.2906ZM27.2782 10.2648L27.6702 7.99908C27.6702 7.99908 26.4606 7.53906 25.1996 7.53906C23.8365 7.53906 20.5994 8.13483 20.5994 11.0319C20.5994 13.7576 24.3987 13.7914 24.3987 15.2231C24.3987 16.6549 20.9909 16.3983 19.8662 15.4955L19.4578 17.8645C19.4578 17.8645 20.6844 18.4602 22.5583 18.4602C24.4328 18.4602 27.2607 17.4897 27.2607 14.8481C27.2607 12.1049 23.4273 11.8495 23.4273 10.6568C23.4276 9.46382 26.1028 9.61707 27.2782 10.2648Z" fill="#2566AF"/>
</g>
<path id="Vector_2" d="M9.77927 13.4213L8.855 8.67652C8.855 8.67652 8.74324 7.72656 7.55197 7.72656H3.22268L3.17188 7.90521C3.17188 7.90521 5.2527 8.33645 7.24858 9.95217C9.15697 11.4965 9.77927 13.4213 9.77927 13.4213Z" fill="#E6A540"/>
</g>
<defs>
<clipPath id="clip0_955_12029">
<rect width="40" height="27" fill="white"/>
</clipPath>
</defs>
</svg>
