<svg width="20" height="20" viewBox="0 0 20 20" fill="none" xmlns="http://www.w3.org/2000/svg">
<path d="M6.24935 8.75033C6.24935 8.05997 6.80899 7.50033 7.49935 7.50033C8.18971 7.50033 8.74935 8.05997 8.74935 8.75033C8.74935 9.44068 8.18971 10.0003 7.49935 10.0003C6.80899 10.0003 6.24935 9.44068 6.24935 8.75033Z" fill="#FF4623"/>
<path fill-rule="evenodd" clip-rule="evenodd" d="M14.8648 1.667L5.1339 1.66699C4.69464 1.66698 4.31562 1.66697 4.0035 1.69247C3.67404 1.71939 3.34636 1.77882 3.03104 1.93948C2.56064 2.17916 2.17819 2.56161 1.9385 3.03202C1.77784 3.34733 1.71841 3.67502 1.69149 4.00447C1.66599 4.3166 1.666 4.69555 1.66602 5.13481V12.3658C1.666 12.805 1.66599 13.1841 1.69149 13.4962C1.71841 13.8256 1.77784 14.1533 1.9385 14.4686C2.17819 14.939 2.56064 15.3215 3.03104 15.5612C3.34636 15.7218 3.67404 15.7813 4.00349 15.8082C4.31561 15.8337 4.69454 15.8337 5.13378 15.8337L14.8648 15.8337C15.304 15.8337 15.6831 15.8337 15.9952 15.8082C16.3247 15.7813 16.6523 15.7218 16.9677 15.5612C17.4381 15.3215 17.8205 14.939 18.0602 14.4686C18.2209 14.1533 18.2803 13.8256 18.3072 13.4962C18.3327 13.184 18.3327 12.8051 18.3327 12.3658V5.13486C18.3327 4.69557 18.3327 4.31661 18.3072 4.00447C18.2803 3.67502 18.2209 3.34734 18.0602 3.03202C17.8205 2.56161 17.4381 2.17916 16.9677 1.93948C16.6523 1.77882 16.3247 1.71939 15.9952 1.69247C15.6831 1.66697 15.3041 1.66698 14.8648 1.667ZM15.416 5.41699C15.416 4.95676 15.0429 4.58366 14.5827 4.58366C14.1224 4.58366 13.7493 4.95676 13.7493 5.41699V12.0837C13.7493 12.5439 14.1224 12.917 14.5827 12.917C15.0429 12.917 15.416 12.5439 15.416 12.0837V5.41699ZM7.49935 5.83366C5.88852 5.83366 4.58268 7.1395 4.58268 8.75033C4.58268 10.3612 5.88852 11.667 7.49935 11.667C9.11018 11.667 10.416 10.3612 10.416 8.75033C10.416 7.1395 9.11018 5.83366 7.49935 5.83366Z" fill="#FF4623"/>
<path d="M4.16602 17.5003C4.16602 17.0401 4.53911 16.667 4.99935 16.667H7.49935C7.95959 16.667 8.33268 17.0401 8.33268 17.5003C8.33268 17.9606 7.95959 18.3337 7.49935 18.3337H4.99935C4.53911 18.3337 4.16602 17.9606 4.16602 17.5003Z" fill="#FF4623"/>
<path d="M11.666 17.5003C11.666 17.0401 12.0391 16.667 12.4994 16.667H14.9993C15.4596 16.667 15.8327 17.0401 15.8327 17.5003C15.8327 17.9606 15.4596 18.3337 14.9993 18.3337H12.4994C12.0391 18.3337 11.666 17.9606 11.666 17.5003Z" fill="#FF4623"/>
</svg>
